<?xml version="1.0" standalone="no"?>
<!DOCTYPE svg PUBLIC "-//W3C//DTD SVG 1.1//EN" "http://www.w3.org/Graphics/SVG/1.1/DTD/svg11.dtd" >
<svg xmlns="http://www.w3.org/2000/svg" xmlns:xlink="http://www.w3.org/1999/xlink" version="1.1">
<metadata>
Created by FontForge 20170731 at Wed Oct 16 03:26:05 2019
 By Aleksey,,,
</metadata>
<defs>
<font id="font" horiz-adv-x="880" >
  <font-face 
    font-family="Sporting Grotesque"
    font-weight="700"
    font-stretch="normal"
    units-per-em="1000"
    panose-1="2 0 8 3 0 0 0 0 0 0"
    ascent="777"
    descent="-223"
    x-height="555"
    cap-height="777"
    bbox="-136 -551 1417 1082"
    underline-thickness="0"
    underline-position="0"
    unicode-range="U+0020-FB02"
  />
<missing-glyph horiz-adv-x="434" 
 />
    <glyph glyph-name=".notdef" horiz-adv-x="434" 
 />
    <glyph glyph-name=".notdef" horiz-adv-x="434" 
 />
    <glyph glyph-name=".null" horiz-adv-x="0" 
 />
    <glyph glyph-name="nonmarkingreturn" horiz-adv-x="333" 
 />
    <glyph glyph-name="space" unicode=" " horiz-adv-x="434" 
 />
    <glyph glyph-name="exclam" unicode="!" horiz-adv-x="358" 
d="M90 777l30 -537h118l30 537h-178zM90 0h178v150h-178v-150z" />
    <glyph glyph-name="quotedbl" unicode="&#x22;" horiz-adv-x="457" 
d="M90 480h97v297h-97v-297zM270 480h97v297h-97v-297z" />
    <glyph glyph-name="numbersign" unicode="#" horiz-adv-x="650" 
d="M557 283h-111l33 150h131v50h-120l52 232h-56l-51 -232h-177l51 232h-56l-51 -232h-111v-50h100l-32 -150h-119v-50h108l-51 -233h55l51 233h178l-51 -233h54l51 233h122v50zM247 433h177l-32 -150h-178z" />
    <glyph glyph-name="dollar" unicode="$" 
d="M455 -223v211q3 0 9.5 -0.5t10.5 -0.5q163 0 266.5 60t103.5 170q0 84 -56.5 142t-191.5 85l-142 28v194q51 -5 87.5 -22.5t53 -39.5t25.5 -43t9 -35l1 -14l183 50q0 4 -1.5 12t-10 30.5t-21.5 43.5t-41 46.5t-64 45t-93.5 33.5t-127.5 17v222h-43v-221
q-169 -2 -259.5 -69t-90.5 -163q0 -74 61 -128.5t173 -78.5l116 -25v-214q-44 5 -78.5 18.5t-54.5 30t-34 36t-19 37.5t-7.5 32.5t-2.5 23.5l1 9l-183 -47q2 -43 22.5 -84t62 -80t117 -66.5t176.5 -33.5v-212h43zM383 487q-137 27 -137 91q0 39 44.5 64t121.5 26v-187z
M494 310q41 -9 59.5 -13.5t44.5 -13.5t36.5 -18.5t19 -25t8.5 -36.5q0 -44 -50.5 -68.5t-139.5 -24.5h-17v208z" />
    <glyph glyph-name="percent" unicode="%" horiz-adv-x="924" 
d="M20 590q0 -90 59.5 -145.5t151.5 -55.5t151.5 55.5t59.5 145.5t-59.5 146t-151.5 56t-151.5 -56t-59.5 -146zM644 784l-411 -764l46 -23l413 763zM81 590q0 68 39 111t111 43t111 -43t39 -111t-39 -111t-111 -43t-111 43t-39 111zM482 190q0 -90 59.5 -145.5t151.5 -55.5
t151.5 55.5t59.5 145.5t-59.5 146t-151.5 56t-151.5 -56t-59.5 -146zM543 190q0 68 39 111t111 43t111 -43t39 -111t-39 -111t-111 -43t-111 43t-39 111z" />
    <glyph glyph-name="ampersand" unicode="&#x26;" horiz-adv-x="942" 
d="M62 668q137 -110 269 -259l-311 -292v-117h605q35 -60 64 -117.5t41 -84.5l11 -28l180 49q-37 73 -105 181h106v110h-179q-105 153 -221 283l286 267v117h-746v-109zM608 668l-184 -172q-105 103 -197 172h381zM557 110h-337l202 189q58 -72 135 -189z" />
    <glyph glyph-name="quotesingle" unicode="'" horiz-adv-x="277" 
d="M90 480h97v297h-97v-297z" />
    <glyph glyph-name="parenleft" unicode="(" horiz-adv-x="381" 
d="M40 339q0 -95 32.5 -179t82.5 -139t104 -89t102 -41v41q-28 6 -61 24.5t-68.5 53.5t-64.5 80t-47.5 110.5t-18.5 138.5t18.5 138.5t47.5 110.5t64.5 80t68.5 53.5t61 24.5v41q-48 -7 -102 -41t-104 -89t-82.5 -139t-32.5 -179z" />
    <glyph glyph-name="parenright" unicode=")" horiz-adv-x="381" 
d="M341 339q0 95 -32.5 179t-82.5 139t-104 89t-102 41v-41q28 -6 61 -24.5t68.5 -53.5t64.5 -80t47.5 -110.5t18.5 -138.5t-18.5 -138.5t-47.5 -110.5t-64.5 -80t-68.5 -53.5t-61 -24.5v-41q48 7 102 41t104 89t82.5 139t32.5 179z" />
    <glyph glyph-name="asterisk" unicode="*" horiz-adv-x="434" 
d="M241 639l-5 112l73 -83l31 30l-86 74l113 -8v44l-111 -9l84 77l-31 30l-73 -87l5 116h-43l6 -116l-74 89l-30 -31l84 -79l-113 10v-44l113 2l-84 -69l30 -31l77 84l-9 -111h43z" />
    <glyph glyph-name="plus" unicode="+" horiz-adv-x="650" 
d="M300 580v-280h-280v-50h280v-280h50v280h280v50h-280v280h-50zM322 568z" />
    <glyph glyph-name="comma" unicode="," horiz-adv-x="298" 
d="M238 150h-178v-150h101q-3 -27 -16.5 -52.5t-31 -42.5t-34.5 -30t-29 -19l-11 -6l101 -26q4 3 10.5 9t23.5 26t30 42t23.5 56t10.5 68v125z" />
    <glyph glyph-name="hyphen" unicode="-" horiz-adv-x="502" 
d="M462 248v97h-422v-97h422z" />
    <glyph glyph-name="period" unicode="." horiz-adv-x="298" 
d="M60 0h178v150h-178v-150z" />
    <glyph glyph-name="slash" unicode="/" horiz-adv-x="245" 
d="M233 729l-272 -824l49 -15l274 823z" />
    <glyph glyph-name="zero" unicode="0" 
d="M63 389q0 -181 97 -291.5t280 -110.5q182 0 279 110.5t97 291.5q0 182 -96.5 292t-279.5 110t-280 -110t-97 -292zM248 389q0 81 18 141t62 99t112 39q99 0 145 -77t46 -202q0 -124 -46 -201.5t-145 -77.5t-145.5 77.5t-46.5 201.5z" />
    <glyph glyph-name="one" unicode="1" 
d="M810 0v110h-220v667h-178q0 -105 -75.5 -146.5t-237.5 -41.5v-129q81 0 142.5 13t92 30t50 39.5t23.5 34t5 21.5v-488h-313v-110h711z" />
    <glyph glyph-name="two" unicode="2" 
d="M780 529q0 116 -90.5 189t-257.5 73q-84 0 -151.5 -23t-107.5 -61t-61.5 -83t-21.5 -92q0 -41 12.5 -77t30.5 -58.5t36 -39.5t31 -24l12 -7l188 51q-5 2 -13.5 5.5t-30.5 17t-39 29.5t-30.5 44t-13.5 59q0 60 40.5 98t115.5 38q82 0 124 -41.5t42 -101.5q0 -47 -28 -95.5
t-73 -89t-99.5 -78.5t-109 -67t-99.5 -50.5t-73 -32.5l-28 -12v-100h710v110h-454q62 28 112 54t114.5 68.5t108 84.5t74 98t30.5 114z" />
    <glyph glyph-name="three" unicode="3" 
d="M452 346q184 0 184 -116q0 -54 -48 -87t-125 -33q-49 0 -87 12t-60.5 30.5t-38.5 41.5t-22.5 46t-9.5 41.5t-3 30.5l1 12l-186 -48q0 -6 1.5 -16.5t10.5 -40.5t23 -57t44.5 -60.5t71 -57.5t105 -40.5t143.5 -16.5q157 0 260.5 61.5t103.5 180.5q0 41 -17.5 73.5t-39 50
t-51 30t-41.5 15.5t-23 5q14 3 31 9.5t48.5 24t52 51.5t20.5 79q0 97 -91.5 160.5t-240.5 63.5q-54 0 -100.5 -9t-81 -24t-63 -35t-47.5 -41.5t-33.5 -43.5t-22.5 -42t-13.5 -35t-6.5 -24l-2 -9l187 -51q2 1 0 11t2 27t8 37t18.5 40.5t34 37.5t53 27.5t75.5 10.5
q60 0 99.5 -30t39.5 -79q0 -107 -183 -107h-74v-106h94z" />
    <glyph glyph-name="four" unicode="4" 
d="M20 185h485v-185h178v185h164v113h-164v479h-210l-453 -459v-133zM505 618v-320h-311z" />
    <glyph glyph-name="five" unicode="5" 
d="M820 262q0 119 -93.5 196t-223.5 77q-39 0 -74.5 -6.5t-57.5 -16t-38 -19t-23 -15.5l-7 -7l45 197h435v109h-586l-83 -419h173q7 6 19.5 15t55 24t89.5 15q82 0 133 -43.5t51 -107.5t-51 -107.5t-133 -43.5q-64 0 -109 20t-63.5 48.5t-28 57t-8.5 48.5v20l-186 -48
q0 -6 1.5 -15.5t10 -37.5t23 -53.5t44.5 -56.5t70 -53t104 -37.5t142 -15.5q168 0 268.5 73t100.5 202z" />
    <glyph glyph-name="six" unicode="6" 
d="M473 668q44 0 77.5 -12.5t50.5 -30t27 -35.5t12 -30l3 -13l184 50q-2 8 -7 21t-29 46.5t-58.5 59t-101.5 46.5t-151 21q-200 0 -310 -111t-110 -291t101.5 -291t285.5 -111q157 0 261.5 79t104.5 202q0 82 -42.5 142t-106 87t-137.5 27q-61 0 -112.5 -16t-81.5 -38.5
t-51 -45t-29 -38.5l-8 -16q-5 133 55 215.5t173 82.5zM264 249q1 6 3 16.5t15 36.5t32.5 46t59 36.5t91.5 16.5q77 0 119.5 -42.5t42.5 -109.5q0 -58 -49.5 -98.5t-131.5 -40.5q-43 0 -77.5 14.5t-53 35t-31 40.5t-16.5 34z" />
    <glyph glyph-name="seven" unicode="7" 
d="M848 777h-816v-109h628q-14 -4 -29 -8.5t-58 -26.5t-80 -50.5t-84.5 -82.5t-81.5 -119.5t-61 -165t-33 -215.5h188q3 113 28 209.5t63 161t83 116t89.5 80.5t81 48.5t59.5 26.5l23 6v129z" />
    <glyph glyph-name="eight" unicode="8" 
d="M796 582q0 93 -101 151t-255 58q-153 0 -254.5 -64.5t-101.5 -164.5q0 -47 22.5 -82.5t56.5 -54t53.5 -25.5t33.5 -10q-12 -2 -26.5 -5t-47.5 -16.5t-57.5 -32t-44.5 -53t-20 -77.5q0 -100 108 -159.5t278 -59.5q169 0 277.5 66t108.5 173q0 42 -20.5 76t-46.5 52.5
t-58.5 32t-48 17t-23.5 4.5q6 1 21 5.5t41 17.5t48.5 31t39.5 50t17 70zM270 562q0 47 45 76.5t125 29.5t125.5 -29.5t45.5 -76.5t-45.5 -76.5t-125.5 -29.5t-125 29.5t-45 76.5zM640 226q0 -49 -50.5 -82.5t-149.5 -33.5t-150 33.5t-51 82.5t51 82.5t150 33.5t149.5 -33.5
t50.5 -82.5z" />
    <glyph glyph-name="nine" unicode="9" 
d="M407 110q-44 0 -77.5 12.5t-50.5 30.5t-27 35.5t-12 29.5l-3 13l-184 -50q2 -8 7 -21t29 -46.5t58.5 -59t101.5 -46.5t151 -21q200 0 310 111t110 291t-101.5 291t-285.5 111q-157 0 -261.5 -79t-104.5 -202q0 -82 42.5 -142t106 -87t137.5 -27q61 0 112.5 16t81.5 38.5
t51 45t29 38.5l8 16q5 -133 -55 -215.5t-173 -82.5zM616 529q-1 -6 -3 -16.5t-15 -36.5t-32.5 -46t-59 -36.5t-91.5 -16.5q-77 0 -119.5 42.5t-42.5 109.5q0 58 49.5 98.5t131.5 40.5q43 0 77.5 -14.5t53 -35t31 -40.5t16.5 -34z" />
    <glyph glyph-name="colon" unicode=":" horiz-adv-x="298" 
d="M60 405h178v150h-178v-150zM60 0h178v150h-178v-150z" />
    <glyph glyph-name="semicolon" unicode=";" horiz-adv-x="298" 
d="M60 405h178v150h-178v-150zM238 150h-178v-150h101q-3 -27 -16.5 -52.5t-31 -42.5t-34.5 -30t-29 -19l-11 -6l101 -26q4 3 10.5 9t23.5 26t30 42t23.5 56t10.5 68v125z" />
    <glyph glyph-name="less" unicode="&#x3c;" horiz-adv-x="650" 
d="M75 287v-52l453 -249l26 45l-418 230l419 230l-26 46zM276 568z" />
    <glyph glyph-name="equal" unicode="=" horiz-adv-x="650" 
d="M610 420h-570v-50h570v50zM610 180h-570v-50h570v50zM322 568z" />
    <glyph glyph-name="greater" unicode="&#x3e;" horiz-adv-x="650" 
d="M121 537l-25 -46l418 -230l-418 -230l26 -45l453 249v52zM302 568z" />
    <glyph glyph-name="question" unicode="?" horiz-adv-x="792" 
d="M772 566q0 95 -98.5 160t-258.5 65q-77 0 -140 -12.5t-103 -33t-70 -45t-45 -48.5t-24 -44.5t-11 -33.5l-2 -12l183 -50q0 6 1 16.5t12.5 37.5t31.5 47.5t65.5 37.5t107.5 17q77 0 122 -31t45 -82q0 -32 -18 -59t-46 -44.5t-61 -36.5t-63.5 -34t-54 -36.5t-31.5 -45
t4 -59.5h118q0 29 25 52.5t62 38.5t81 36t81 43.5t62 63t25 92.5zM288 0h178v150h-178v-150z" />
    <glyph glyph-name="at" unicode="@" horiz-adv-x="1146" 
d="M792 0q29 0 64.5 12t76.5 40.5t75 69t56 105.5t22 142q0 121 -68 219t-177.5 150t-235.5 52q-239 0 -392 -146.5t-153 -379.5q0 -222 148.5 -361t388.5 -139q141 0 255 59t190 168h-63q-58 -82 -159.5 -129.5t-211.5 -47.5q-215 0 -347 125t-132 336q0 131 67 239
t173 166.5t225 58.5q120 0 219 -45t160.5 -136t61.5 -211q0 -83 -40 -151.5t-98 -110.5q-46 -33 -72 -33q-6 0 -9 2t-3 6.5t1.5 9t4 12.5t3.5 13l106 460h-96l-69 -128q-1 6 -3 15.5t-14.5 33.5t-31 43t-56 34t-85.5 15q-138 0 -245.5 -105t-107.5 -265q0 -86 63 -148.5
t173 -62.5q46 0 87.5 15t67 33t48.5 43t29 34.5t11 18.5q0 -74 19.5 -102.5t73.5 -28.5zM524 97q-57 0 -93 33.5t-36 91.5q0 99 59.5 168t141.5 69q54 0 94.5 -29t40.5 -97q0 -100 -58 -168t-149 -68z" />
    <glyph glyph-name="A" unicode="A" horiz-adv-x="1063" 
d="M861 0h192l-367 777h-309l-367 -777h191l107 235h446zM506 668h51l147 -323h-346zM545 855z" />
    <glyph glyph-name="B" unicode="B" horiz-adv-x="922" 
d="M456 777h-366v-777h386q386 0 386 227q0 42 -16 75t-36.5 50.5t-47 30t-40 16t-22.5 4.5q8 1 20 4.5t35 14.5t41 27t32 45t14 66q0 111 -93.5 164t-292.5 53zM466 452h-198v216h198q191 0 191 -108t-191 -108zM268 110v236h227q84 0 133 -30.5t49 -87.5q0 -58 -51.5 -88
t-139.5 -30h-218z" />
    <glyph glyph-name="C" unicode="C" horiz-adv-x="1073" 
d="M1001 452q0 7 -1 19t-9.5 47.5t-24.5 67.5t-50.5 71t-81.5 67t-124 47.5t-172 19.5q-216 0 -347 -112.5t-131 -289.5q0 -176 132.5 -289t346.5 -113q89 0 164 17t123.5 43.5t86.5 59t58 65t32.5 59t16.5 43.5l3 17l-183 47q0 -5 -0.5 -13t-6 -32t-15.5 -45.5t-32.5 -47.5
t-53 -45t-81 -32t-112.5 -13q-133 0 -213.5 75.5t-80.5 203.5q0 126 76 202.5t218 76.5q63 0 112.5 -14.5t78 -38t48.5 -52t27.5 -57t11 -52t2.5 -38.5l-1 -14zM532 855zM532 -9z" />
    <glyph glyph-name="D" unicode="D" horiz-adv-x="1000" 
d="M477 777h-387v-777h387q203 0 333 105.5t130 282.5q0 178 -130 283.5t-333 105.5zM268 668h146q168 0 254.5 -72.5t86.5 -207.5t-86 -206.5t-255 -71.5h-146v558z" />
    <glyph glyph-name="E" unicode="E" horiz-adv-x="815" 
d="M90 0h685v110h-507v223h448v109h-448v226h477v109h-655v-777zM470 855z" />
    <glyph glyph-name="F" unicode="F" horiz-adv-x="764" 
d="M90 0h178v333h448v109h-448v226h476v109h-654v-777zM470 855z" />
    <glyph glyph-name="G" unicode="G" horiz-adv-x="1071" 
d="M991 512q-1 6 -3 16t-13.5 39t-28.5 55.5t-52.5 58.5t-81.5 55t-118 39t-159 16q-216 0 -345.5 -112.5t-129.5 -290.5q0 -174 127.5 -287.5t318.5 -113.5q64 0 118 13t85 32t53 38t30 32l8 13v-115h167v413h-484v-109h317q-1 -8 -4 -21t-19.5 -46.5t-42.5 -59
t-78.5 -46.5t-121.5 -21q-133 0 -211 78t-78 200t74 201t215 79q55 0 100 -11.5t73 -29.5t48.5 -40t30 -44t15 -40t6.5 -29l1 -12z" />
    <glyph glyph-name="H" unicode="H" horiz-adv-x="1006" 
d="M738 0h178v777h-178v-335h-470v335h-178v-777h178v333h470v-333z" />
    <glyph glyph-name="I" unicode="I" horiz-adv-x="358" 
d="M90 777v-777h178v777h-178zM195 855z" />
    <glyph glyph-name="J" unicode="J" horiz-adv-x="824" 
d="M20 303q0 -157 96.5 -236.5t259.5 -79.5q165 0 261.5 79.5t96.5 236.5v474h-178v-488q0 -87 -39.5 -133t-140.5 -46q-108 0 -144.5 61.5t-28.5 178.5z" />
    <glyph glyph-name="K" unicode="K" horiz-adv-x="912" 
d="M730 0h222l-438 442l408 335h-222l-432 -366v366h-178v-777h178v238l131 109z" />
    <glyph glyph-name="L" unicode="L" horiz-adv-x="743" 
d="M90 0h643v110h-465v667h-178v-777z" />
    <glyph glyph-name="M" unicode="M" horiz-adv-x="1312" 
d="M656 170l-259 607h-307v-777h178v668l301 -668h174l301 668v-668h178v777h-307z" />
    <glyph glyph-name="N" unicode="N" horiz-adv-x="1007" 
d="M917 777h-178v-607l-406 607h-243v-777h178v607l406 -607h243v777z" />
    <glyph glyph-name="O" unicode="O" horiz-adv-x="1110" 
d="M60 389q0 -177 136 -289.5t359 -112.5t359 112.5t136 289.5t-136 289.5t-359 112.5t-359 -112.5t-136 -289.5zM245 389q0 123 78 201t232 78t232 -78t78 -201t-78 -201t-232 -78t-232 78t-78 201zM569 855z" />
    <glyph glyph-name="P" unicode="P" horiz-adv-x="862" 
d="M90 777v-777h178v333h188q198 0 292 55t94 167t-94 167t-292 55h-366zM268 442v226h198q191 0 191 -113t-191 -113h-198z" />
    <glyph glyph-name="Q" unicode="Q" horiz-adv-x="1130" 
d="M60 389q0 -177 136 -289.5t359 -112.5q38 0 83 5q-26 -13 -26 -65q1 -52 47.5 -91.5t149.5 -39.5q41 0 75.5 7t55 17.5t35 21t19.5 17.5l6 7l-36 121q-1 -2 -4 -6.5t-15.5 -14.5t-28.5 -18t-45 -14.5t-64 -6.5q-88 0 -88 58q0 12 8 18t14 8q144 41 226.5 141.5
t82.5 236.5q0 177 -136 289.5t-359 112.5t-359 -112.5t-136 -289.5zM245 389q0 123 78 201t232 78t232 -78t78 -201t-78 -201t-232 -78t-232 78t-78 201zM565 855z" />
    <glyph glyph-name="R" unicode="R" horiz-adv-x="915" 
d="M90 777v-777h178v333h110q118 0 166.5 -20t62.5 -74q6 -22 13.5 -50t11.5 -43t9.5 -35t8.5 -30t7 -23.5t6.5 -20.5t5.5 -14.5t6 -12.5l6 -10h194q-15 17 -76 176q-8 21 -13 33.5t-13.5 34.5t-16.5 42q-31 80 -135 93q221 25 221 176q0 112 -94 167t-292 55h-366zM268 442
v226h198q191 0 191 -113t-191 -113h-198z" />
    <glyph glyph-name="S" unicode="S" horiz-adv-x="871" 
d="M379 487q-137 27 -137 91q0 39 45 64.5t123 25.5q62 0 107.5 -16t65.5 -39t31.5 -46t11.5 -39l1 -16l183 50q0 5 -1.5 13t-11 32t-24 45.5t-44.5 48t-69.5 45.5t-102.5 32t-140 13q-173 0 -266 -67t-93 -165q0 -74 61 -128.5t173 -78.5l198 -42q41 -9 59.5 -13.5
t44.5 -13.5t36.5 -18.5t19 -25t8.5 -36.5q0 -44 -50.5 -68.5t-139.5 -24.5q-57 0 -101.5 10.5t-70.5 27t-44.5 37t-25.5 41t-10.5 37t-3.5 27.5l1 10l-183 -47q2 -36 16 -71t46.5 -71t81 -63t125.5 -44t172 -17q163 0 266.5 60t103.5 170q0 84 -56.5 142t-191.5 85z" />
    <glyph glyph-name="T" unicode="T" horiz-adv-x="882" 
d="M10 668h342v-668h178v668h342v109h-862v-109z" />
    <glyph glyph-name="U" unicode="U" horiz-adv-x="992" 
d="M724 777v-453q0 -124 -56 -169t-172 -45t-172 45t-56 169v453h-178v-453q0 -337 406 -337t406 337v453h-178zM525 855z" />
    <glyph glyph-name="V" unicode="V" horiz-adv-x="1003" 
d="M212 777h-202l397 -777h189l397 777h-201l-290 -607z" />
    <glyph glyph-name="W" unicode="W" horiz-adv-x="1427" 
d="M1417 777h-202l-201 -607l-172 607h-257l-172 -608l-201 608h-202l291 -777h214l198 668l199 -668h212z" />
    <glyph glyph-name="X" unicode="X" horiz-adv-x="982" 
d="M755 0h217l-373 388l373 389h-217l-264 -276l-264 276h-217l372 -389l-372 -388h217l264 275z" />
    <glyph glyph-name="Y" unicode="Y" horiz-adv-x="982" 
d="M972 777h-217l-264 -292l-264 292h-217l392 -412v-365h178v365zM814 855z" />
    <glyph glyph-name="Z" unicode="Z" horiz-adv-x="818" 
d="M798 110h-543l543 548v119h-778v-109h543l-543 -548v-120h778v110z" />
    <glyph glyph-name="bracketleft" unicode="[" horiz-adv-x="333" 
d="M313 818h-253v-997h253v50h-203v897h203v50z" />
    <glyph glyph-name="backslash" unicode="\" horiz-adv-x="245" 
d="M-39 713l274 -823l49 15l-272 824z" />
    <glyph glyph-name="bracketright" unicode="]" horiz-adv-x="333" 
d="M20 768h203v-897h-203v-50h253v997h-253v-50z" />
    <glyph glyph-name="underscore" unicode="_" horiz-adv-x="510" 
d="M490 -60h-470v-50h470v50zM252 568z" />
    <glyph glyph-name="grave" unicode="`" horiz-adv-x="727" 
d="M334 776l229 -143h117l-136 143h-210zM601 613z" />
    <glyph glyph-name="a" unicode="a" horiz-adv-x="773" 
d="M625 152l9 207q3 89 -69 149t-202 60q-57 0 -106.5 -10.5t-82.5 -27t-59.5 -36.5t-42 -40.5t-25.5 -37t-13 -26.5l-4 -11l172 -44q0 5 1 13.5t9.5 29.5t23 37t45.5 29.5t74 13.5q68 0 91 -31.5t23 -81.5q-211 -18 -312 -82.5t-101 -143.5q0 -63 43.5 -97.5t120.5 -34.5
q48 0 94 20t74 42.5t55 56.5t34 45t14 24q0 -92 32.5 -140t116.5 -48q39 0 72 13t47 26l14 13l-33 108q-3 -6 -9 -14t-26 -22t-40 -14q-42 0 -40 55zM228 153q0 47 58 87t183 52v-39q-3 -6 -8 -16.5t-23 -37.5t-37.5 -47.5t-51 -37.5t-63.5 -17q-58 0 -58 56zM383 633z" />
    <glyph glyph-name="b" unicode="b" horiz-adv-x="805" 
d="M255 791q-84 -14 -165 -14v-777h96l38 127q2 -6 6.5 -15.5t22.5 -33.5t41.5 -42.5t65.5 -33.5t92 -15q127 0 210 81.5t83 208.5t-83 209t-209 82q-43 0 -79.5 -10.5t-57.5 -25t-35.5 -29.5t-20.5 -25l-5 -11v324zM399 97q-85 0 -127.5 52t-42.5 128t42.5 128.5
t127.5 52.5t129 -50.5t44 -130.5t-44 -130t-129 -50z" />
    <glyph glyph-name="c" unicode="c" horiz-adv-x="777" 
d="M567 225q0 -5 -1 -13.5t-9.5 -31t-23 -39t-46 -30.5t-73.5 -14q-87 0 -134.5 49t-47.5 132q0 79 43 129.5t125 50.5q50 0 83 -20t45.5 -49t17.5 -57.5t3 -48.5l-2 -20l160 41q0 3 0.5 9t-1 24t-5 35.5t-13.5 41.5t-24 44.5t-38 41t-54.5 35.5t-75 24t-98.5 9
q-153 0 -245.5 -82t-92.5 -208q0 -135 98 -213t239 -78q59 0 108.5 11t82.5 28t59 38t40.5 42.5t24 38.5t12.5 28l3 11z" />
    <glyph glyph-name="d" unicode="d" horiz-adv-x="805" 
d="M549 467l-5.5 11t-19 24.5t-36 30.5t-57 24t-79.5 11q-127 0 -209.5 -82t-82.5 -209t82.5 -208.5t210.5 -81.5q50 0 92 14.5t66 35t40.5 41t22.5 34.5l6 15l39 -127h96v791q-83 -14 -166 -14v-310zM405 97q-85 0 -128.5 50t-43.5 130t43.5 130.5t128.5 50.5t128 -52.5
t43 -128.5t-43 -128t-128 -52z" />
    <glyph glyph-name="e" unicode="e" horiz-adv-x="787" 
d="M226 268l486 -10q4 19 4 42t-5.5 53.5t-17.5 59.5t-36 57.5t-57.5 50t-86 34.5t-116.5 13q-153 0 -245 -82t-92 -208q0 -135 98 -213t239 -78q59 0 109 11t82.5 28t59 38t40.5 42.5t23.5 38.5t12.5 28l3 11l-160 41q0 -5 -1 -13.5t-9.5 -31t-23 -39t-45.5 -30.5t-74 -14
q-94 0 -140.5 49.5t-47.5 121.5zM541 356l-305 -10q1 5 3 13t13 28t26.5 35.5t46 28t69.5 12.5q37 0 66 -11t43.5 -26.5t24 -31.5t11.5 -27zM413 633z" />
    <glyph glyph-name="f" unicode="f" horiz-adv-x="564" 
d="M0 555v-97h128v-458h165v458h202v97h-212q-16 14 -16 39q0 35 27 63.5t95 28.5q43 0 74 -13t45.5 -32t23 -38t9.5 -32l1 -13l172 44q-1 4 -3.5 11t-13.5 26.5t-25.5 37.5t-42 39.5t-60 37t-82 26.5t-106.5 11q-126 0 -198.5 -49.5t-72.5 -113.5q0 -23 10.5 -41.5t17 -24
t11.5 -7.5h-149z" />
    <glyph glyph-name="g" unicode="g" horiz-adv-x="774" 
d="M375 170q143 0 227.5 56t84.5 142q0 54 -35 98q-18 28 -11 45t47 17q34 0 86 -8l-38 123q-54 4 -72 4q-41 0 -64 -21t-23 -58q0 -20 24 -56q-86 56 -228 56q-145 0 -229.5 -56.5t-84.5 -143.5q0 -56 37 -101t106 -70q-140 -19 -140 -92q0 -28 19 -49.5t46.5 -31.5
t45.5 -14t28 -5q-12 -2 -19 -3t-31.5 -6t-41.5 -13t-37 -20.5t-31 -31.5t-11 -42q0 -50 54.5 -88t173.5 -38h221q129 0 203.5 44.5t74.5 122.5q0 32 -10.5 59.5t-34.5 53t-70.5 40t-112.5 14.5h-205q-101 0 -101 43q0 40 55 37q41 -7 97 -7zM226 368q0 103 147 103
q145 0 145 -103q0 -101 -145 -101q-147 0 -147 101zM496 -12q47 -3 67 -20t20 -49q0 -46 -47.5 -61.5t-147.5 -15.5q-103 0 -143.5 17t-40.5 59q0 23 10 40t22.5 24.5t29 12t23.5 5t12 0.5z" />
    <glyph glyph-name="h" unicode="h" horiz-adv-x="815" 
d="M255 791q-74 -14 -165 -14v-777h165v336q1 5 4 13t15.5 29t30 37.5t50 29.5t72.5 13q61 0 97.5 -28t36.5 -82v-348h164v340q0 108 -63.5 168t-189.5 60q-53 0 -94 -14.5t-63 -33.5t-36.5 -43.5t-18.5 -36.5t-5 -21v372z" />
    <glyph glyph-name="i" unicode="i" horiz-adv-x="345" 
d="M90 650h165v127h-165v-127zM90 0h165v555h-165v-555z" />
    <glyph glyph-name="j" unicode="j" horiz-adv-x="345" 
d="M90 635h165v127h-165v-127zM90 5q0 -72 -22 -102t-68 -30q-34 0 -60 20t-35 40l-9 20l-32 -107q2 -3 6.5 -9t20 -20t34 -25t48.5 -20t64 -9q95 0 156.5 65.5t61.5 184.5v542h-165v-550z" />
    <glyph glyph-name="k" unicode="k" horiz-adv-x="708" 
d="M90 0h165v138l75 72l207 -210h201l-314 298l274 257h-200l-243 -244v481q-74 -15 -165 -15v-777z" />
    <glyph glyph-name="l" unicode="l" horiz-adv-x="345" 
d="M90 0h165v791q-84 -14 -165 -14v-777z" />
    <glyph glyph-name="m" unicode="m" horiz-adv-x="1203" 
d="M1113 340q0 113 -57 170.5t-164 57.5q-58 0 -102.5 -17t-67 -37.5t-37.5 -49t-18.5 -41.5t-4.5 -24q0 4 -0.5 11.5t-5 24.5t-11.5 33t-22 35t-35 33t-52.5 23t-72.5 9q-60 0 -106 -17.5t-68.5 -42.5t-36.5 -50t-16 -42l-3 -18l-47 157h-96v-555h165v336q1 5 4 13t15.5 29
t28.5 37.5t44 29.5t62 13q35 0 58.5 -10t34 -28.5t14 -35.5t3.5 -41v-343h165v336q1 5 4 13t15.5 29t28.5 37.5t44 29.5t62 13q35 0 58.5 -10t34 -28.5t14 -35.5t3.5 -41v-343h165v340z" />
    <glyph glyph-name="n" unicode="n" horiz-adv-x="815" 
d="M560 0h165v340q0 228 -260 228q-62 0 -108.5 -17.5t-69 -42.5t-36 -50t-15.5 -42l-3 -18l-47 157h-96v-555h165v336q1 5 4.5 13t16 29t29.5 37.5t47.5 29.5t67.5 13q140 0 140 -110v-348zM421 633z" />
    <glyph glyph-name="o" unicode="o" horiz-adv-x="808" 
d="M60 278q0 -126 93 -208.5t250 -82.5q159 0 252 82.5t93 208.5q0 125 -93 207.5t-252 82.5q-157 0 -250 -82.5t-93 -207.5zM233 278q0 77 40 128.5t130 51.5q89 0 130.5 -51.5t41.5 -128.5t-41.5 -129t-130.5 -52t-129.5 51.5t-40.5 129.5zM381 633z" />
    <glyph glyph-name="p" unicode="p" horiz-adv-x="805" 
d="M255 89l5.5 -11t19.5 -24.5t36 -31t57 -24.5t80 -11q126 0 209 82t83 209t-83 208.5t-210 81.5q-50 0 -92 -14.5t-66 -35t-41 -41t-23 -35.5l-6 -14l-38 127h-96v-778h165v312zM399 458q85 0 129 -50t44 -130t-44 -130.5t-129 -50.5t-127.5 52.5t-42.5 128.5t42.5 128
t127.5 52z" />
    <glyph glyph-name="q" unicode="q" horiz-adv-x="805" 
d="M549 -223h166v778h-96l-39 -127q-2 6 -6.5 15.5t-22 33.5t-41 42.5t-65.5 33.5t-92 15q-128 0 -210.5 -81.5t-82.5 -208.5t82.5 -209t209.5 -82q43 0 79.5 10.5t57 25t35 29.5t20.5 26l5 10v-311zM405 458q85 0 128 -52t43 -128t-43 -128.5t-128 -52.5t-128.5 50.5
t-43.5 130.5t43.5 130t128.5 50z" />
    <glyph glyph-name="r" unicode="r" horiz-adv-x="571" 
d="M255 337q1 5 2.5 13t8 29t15 37t24.5 29t36 13q44 0 44 -50q0 -34 -4.5 -67t-8.5 -49l-4 -16l160 41q13 37 13 106q0 145 -149 145q-45 0 -78 -17.5t-48 -42.5t-23 -50t-9 -42l-1 -18l-47 157h-96v-555h165v337z" />
    <glyph glyph-name="s" unicode="s" horiz-adv-x="700" 
d="M200 222l-160 -41q0 -4 1.5 -11t9 -27t19.5 -38.5t37.5 -41t59 -38.5t87 -27t118.5 -11q125 0 206.5 45.5t81.5 127.5q0 137 -193 169l-140 23q-57 10 -81.5 20t-24.5 33t26.5 40.5t75.5 17.5q40 0 69.5 -10t43.5 -24.5t22.5 -29t9.5 -24.5l2 -10l160 41q-1 7 -4 17.5
t-22 38.5t-48 49.5t-88.5 39t-137.5 17.5q-113 0 -187.5 -46.5t-74.5 -126.5q0 -117 187 -151l130 -24q60 -11 86 -25.5t26 -39.5q0 -28 -35 -43t-88 -15q-49 0 -85 13t-52.5 31.5t-25.5 36.5t-10 31z" />
    <glyph glyph-name="t" unicode="t" horiz-adv-x="573" 
d="M0 458h128v-264q0 -105 56.5 -156t159.5 -51q40 0 76.5 8.5t59.5 20.5t40.5 24t25.5 20l7 9l-32 108q-2 -3 -5.5 -8.5t-15.5 -19.5t-26.5 -24.5t-37 -19t-47.5 -8.5q-98 0 -98 109v252h255v97h-255v209l-159 -100v-109h-132v-97z" />
    <glyph glyph-name="u" unicode="u" horiz-adv-x="815" 
d="M254 555h-164v-340q0 -228 260 -228q62 0 108.5 17.5t69 42.5t36 50t16.5 43l2 17l47 -157h96v555h-165v-336q-1 -5 -4.5 -13t-16 -29t-29.5 -37.5t-47.5 -29.5t-67.5 -13q-141 0 -141 110v348zM412 633z" />
    <glyph glyph-name="v" unicode="v" horiz-adv-x="748" 
d="M738 555h-181l-183 -409l-183 409h-181l284 -555h160z" />
    <glyph glyph-name="w" unicode="w" horiz-adv-x="1097" 
d="M246 0h163l139 401l140 -401h163l236 555h-181l-142 -409l-136 409h-159l-136 -409l-142 409h-181z" />
    <glyph glyph-name="x" unicode="x" horiz-adv-x="758" 
d="M201 555h-191l273 -278l-273 -277h191l178 180l178 -180h191l-274 277l274 278h-191l-178 -181z" />
    <glyph glyph-name="y" unicode="y" horiz-adv-x="738" 
d="M287 15q-32 -68 -62 -105t-71 -37q-36 0 -63 20t-36 40l-9 20l-32 -107l6 -9t18.5 -20t31 -25t43.5 -20t57 -9q78 0 130.5 40t102.5 135l325 617h-181l-183 -399l-173 399h-181zM360 633z" />
    <glyph glyph-name="z" unicode="z" horiz-adv-x="705" 
d="M60 0h585v97h-377l377 351v107h-585v-97h383l-383 -351v-107z" />
    <glyph glyph-name="braceleft" unicode="{" horiz-adv-x="306" 
d="M30 292q40 -1 67.5 -20.5t20.5 -67.5l-21 -136q-14 -89 38 -132t146 -48l5 40q-72 7 -106 40t-25 109l16 132q7 59 -21.5 91t-68.5 37q40 5 68.5 37t21.5 91l-16 132q-9 76 25 109t106 40l-5 41q-93 -5 -145.5 -48t-38.5 -133l21 -136q7 -48 -20.5 -67.5t-67.5 -20.5v-90
z" />
    <glyph glyph-name="bar" unicode="|" horiz-adv-x="170" 
d="M60 729v-839h50v839h-50z" />
    <glyph glyph-name="braceright" unicode="}" horiz-adv-x="306" 
d="M276 382q-40 1 -67.5 20.5t-20.5 67.5l21 136q14 90 -38.5 133t-145.5 48l-5 -41q72 -7 106 -40t25 -109l-16 -132q-7 -59 21.5 -91t68.5 -37q-40 -5 -68.5 -37t-21.5 -91l16 -132q9 -76 -25 -109t-106 -40l5 -40q94 5 146 48t38 132l-21 136q-7 48 20.5 67.5t67.5 20.5
v90z" />
    <glyph glyph-name="exclamdown" unicode="&#xa1;" horiz-adv-x="358" 
d="M90 90h178v150h-178v-150zM268 -537l-30 537h-118l-30 -537h178z" />
    <glyph glyph-name="cent" unicode="&#xa2;" 
d="M467 -223v211q74 3 133 24t90 49.5t51 56.5t26 47l6 19l-160 41q0 -5 -1 -13.5t-9 -30t-22 -38t-44 -31t-70 -15.5v360q43 -4 71.5 -25.5t39 -49.5t15 -55t2.5 -45l-2 -19l160 41q0 3 0.5 8.5t-1 23t-5 34.5t-12 40t-21.5 43t-35 40.5t-50.5 35.5t-70 25.5t-91.5 12.5
v210h-43v-210q-145 -6 -231.5 -87t-86.5 -202q0 -131 91.5 -207.5t226.5 -82.5v-211h43zM278 278q0 73 37 122.5t109 56.5v-358q-70 10 -108 57.5t-38 121.5z" />
    <glyph glyph-name="sterling" unicode="&#xa3;" 
d="M570 391h-227l-32 27q-27 24 -42.5 39t-30 41.5t-14.5 53.5q0 51 44.5 83.5t123.5 32.5q42 0 76 -11.5t54 -30t34 -41.5t20 -45.5t9 -41t3 -30.5l-1 -11l185 51q0 6 -0.5 16t-6.5 39.5t-18 56t-39 59t-63.5 56t-97 39.5t-136.5 16q-185 0 -278 -74.5t-93 -177.5
q0 -84 67 -147h-107v-50h170q8 -6 12 -8q89 -66 95 -118q-7 5 -18.5 12.5t-46 20t-66.5 12.5q-75 0 -116 -37t-41 -99q0 -61 48.5 -99t132.5 -38q104 0 164 52q97 -52 180 -52q64 0 117 18t86 46.5t58.5 63.5t38 69.5t20 63t8.5 46.5l2 18l-185 48q-2 -1 0 -14t-1.5 -35.5
t-7.5 -49t-16 -53.5t-28.5 -48.5t-45 -35.5t-64.5 -14q-49 0 -85 24q17 40 17 89q0 64 -38 118h180v50zM164 81q-29 0 -45.5 13.5t-16.5 31.5t11 31t33 13q17 0 33.5 -8.5t25.5 -16t30 -28.5q-2 -4 -7 -10t-23.5 -16t-40.5 -10z" />
    <glyph glyph-name="yen" unicode="&#xa5;" 
d="M351 365v-33h-196v-50h196v-110h-196v-50h196v-122h178v122h196v50h-196v110h196v50h-196v33l351 412h-217l-223 -292l-223 292h-217z" />
    <glyph glyph-name="brokenbar" unicode="&#xa6;" horiz-adv-x="170" 
d="M60 729v-335h50v335h-50zM60 225v-335h50v335h-50z" />
    <glyph glyph-name="section" unicode="&#xa7;" horiz-adv-x="712" 
d="M632 275q0 48 -35 88t-148 90l-153 67q-49 21 -69.5 40t-20.5 41q0 30 27 48.5t75 18.5q56 0 95.5 -15t55 -37t23.5 -43.5t7 -36.5l-1 -15l180 48q-1 9 -5.5 24t-28.5 53.5t-59 67.5t-105.5 53t-160.5 24q-119 0 -199 -51t-80 -134q0 -61 44 -100t137 -82
q-68 -12 -108.5 -50t-40.5 -89q0 -52 47.5 -93.5t142.5 -82.5l148 -64q51 -22 69.5 -39.5t18.5 -40.5q0 -32 -26.5 -50t-75.5 -18q-56 0 -95 15t-55 37t-24 43.5t-7 36.5l1 15l-180 -48q1 -9 5.5 -24t28.5 -53t59 -67t105.5 -53t160.5 -24q119 0 199 50.5t80 133.5
q0 62 -45 105t-134 78q67 13 107 49.5t40 83.5zM327 340q55 0 94 -16.5t39 -46.5q0 -22 -27 -37t-66 -15q-61 0 -95.5 18.5t-34.5 45.5q0 22 25.5 36.5t64.5 14.5z" />
    <glyph glyph-name="dieresis" unicode="&#xa8;" horiz-adv-x="358" 
d="M-10 627h138v150h-138v-150zM230 627h138v150h-138v-150zM179 613z" />
    <glyph glyph-name="copyright" unicode="&#xa9;" horiz-adv-x="1064" 
d="M60 311q0 -199 136.5 -335.5t335.5 -136.5t335.5 136.5t136.5 335.5t-136.5 335.5t-335.5 136.5t-335.5 -136.5t-136.5 -335.5zM116 310q0 173 121.5 294.5t294.5 121.5t294.5 -121.5t121.5 -294.5t-121.5 -294.5t-294.5 -121.5t-294.5 121.5t-121.5 294.5zM835 387
q-1 9 -3.5 24t-21 52.5t-48 66.5t-91.5 53t-145 24q-147 0 -230.5 -82.5t-83.5 -213.5q0 -130 87 -213.5t233 -83.5q79 0 140 23t91.5 55.5t49 65t23.5 55.5l4 23l-142 40q0 -6 -0.5 -15.5t-9 -34t-23.5 -43.5t-50 -34.5t-83 -15.5q-81 0 -129 50t-48 128t45 127.5t126 49.5
q35 0 63 -8t45 -20.5t29.5 -28t18 -30.5t8.5 -27.5t3 -20.5v-8z" />
    <glyph glyph-name="guillemotleft" unicode="&#xab;" horiz-adv-x="689" 
d="M30 277l201 -219h128l-151 219l151 219h-128zM330 277l201 -219h128l-151 219l151 219h-128z" />
    <glyph glyph-name="registered" unicode="&#xae;" horiz-adv-x="1064" 
d="M60 311q0 -199 136.5 -335.5t335.5 -136.5t335.5 136.5t136.5 335.5t-136.5 335.5t-335.5 136.5t-335.5 -136.5t-136.5 -335.5zM116 310q0 173 121.5 294.5t294.5 121.5t294.5 -121.5t121.5 -294.5t-121.5 -294.5t-294.5 -121.5t-294.5 121.5t-121.5 294.5zM292 595v-569
h138v237h55q74 0 97.5 -12t33.5 -50l8 -31q19 -80 26 -105t18 -39h150q-17 24 -29 58.5t-38 137.5q-8 33 -30.5 56t-55.5 27q60 8 92.5 42t32.5 86q0 162 -255 162h-243zM430 370v116h105q60 0 86 -12t26 -46t-26 -46t-86 -12h-105z" />
    <glyph glyph-name="degree" unicode="&#xb0;" horiz-adv-x="348" 
d="M40 597q0 -54 39.5 -92t93.5 -38q55 0 95 38t40 92t-40 93t-95 39q-54 0 -93.5 -39t-39.5 -93zM96 597q0 36 22 58.5t55 22.5q34 0 56.5 -22.5t22.5 -58.5q0 -35 -22.5 -57t-56.5 -22q-33 0 -55 22t-22 57z" />
    <glyph glyph-name="plusminus" unicode="&#xb1;" horiz-adv-x="650" 
d="M300 696v-280h-280v-50h280v-280h50v280h280v50h-280v280h-50zM630 50h-610v-50h610v50zM322 568z" />
    <glyph glyph-name="acute" unicode="&#xb4;" horiz-adv-x="727" 
d="M610 777l-136 -144h117l229 144h-210zM601 613z" />
    <glyph glyph-name="mu" unicode="&#xb5;" horiz-adv-x="815" 
d="M90 -223h165v243q31 -33 115 -33q50 0 90.5 17.5t62 42.5t36 50t19.5 43l4 17l47 -157h96v555h-165v-316q0 -65 -49 -103.5t-106 -38.5q-67 0 -108.5 37t-41.5 107l-1 314h-164v-778zM412 633z" />
    <glyph glyph-name="paragraph" unicode="&#xb6;" horiz-adv-x="836" 
d="M299 -223h165v891h117v-891h165v1000h-447q-126 0 -202.5 -53.5t-76.5 -168.5q0 -105 77.5 -161t201.5 -56v-561z" />
    <glyph glyph-name="periodcentered" unicode="&#xb7;" horiz-adv-x="545" 
d="M72 280q0 -82 59 -140.5t141 -58.5q83 0 142 58.5t59 140.5q0 84 -59 142.5t-142 58.5t-141.5 -58.5t-58.5 -142.5z" />
    <glyph glyph-name="cedilla" unicode="&#xb8;" horiz-adv-x="833" 
d="M382 22h-58l-42 -118l52 -10q13 22 39 22q19 0 30.5 -11t11.5 -29q0 -21 -18 -33t-49 -12q-28 0 -51.5 11.5t-33.5 21.5t-11 14l-18 -68q4 -5 13 -13t41.5 -21t69.5 -13q55 0 96 30t41 83q0 39 -24 62.5t-63 23.5q-15 0 -28.5 -4t-19.5 -8l-6 -5z" />
    <glyph glyph-name="guillemotright" unicode="&#xbb;" horiz-adv-x="689" 
d="M158 496h-128l151 -219l-151 -219h128l201 219zM458 496h-128l151 -219l-151 -219h128l201 219z" />
    <glyph glyph-name="onequarter" unicode="&#xbc;" horiz-adv-x="778" 
d="M582 784l-411 -764l46 -23l413 763zM320 390v42h-105v346h-65q0 -55 -36 -77t-114 -22v-49q89 0 119 23.5t30 82.5l1 -304h-150v-42h320zM403 94h232v-94h65v94h78v42h-78v252h-86l-211 -232v-62zM635 341v-205h-182z" />
    <glyph glyph-name="onehalf" unicode="&#xbd;" horiz-adv-x="778" 
d="M582 784l-411 -764l46 -23l413 763zM320 390v42h-105v346h-65q0 -55 -36 -77t-114 -22v-49q89 0 119 23.5t30 82.5l1 -304h-150v-42h320zM770 268q0 56 -40.5 91.5t-115.5 35.5q-73 0 -113.5 -38t-40.5 -88q0 -29 12 -55t24 -37l12 -11l66 20q-5 3 -14.5 10.5t-21 28
t-11.5 42.5q0 34 21.5 56.5t64.5 22.5q44 0 66.5 -22.5t22.5 -57.5q0 -36 -25 -72.5t-61 -63.5t-72 -48.5t-61 -33.5l-25 -11v-37h320v42h-220q7 5 34.5 21t46.5 27.5t46 33t43.5 41t29 47t12.5 56.5z" />
    <glyph glyph-name="threequarters" unicode="&#xbe;" horiz-adv-x="778" 
d="M168 574q108 0 108 -67q0 -33 -26 -51t-72 -18q-33 0 -57 11t-34 26t-15 30.5t-5 26.5v11l-67 -20q0 -5 1.5 -14.5t12 -32.5t27.5 -40.5t53.5 -32t85.5 -14.5q71 0 118 29.5t47 87.5q0 26 -10.5 45.5t-23 28.5t-31.5 15t-27 7t-18 2q12 1 25 3.5t32 10.5t31 26.5t12 44.5
q0 44 -41.5 73t-107.5 29q-42 0 -75 -12.5t-49 -30.5t-26.5 -35.5t-13.5 -30.5l-2 -12l67 -20v10t4.5 22t13 28t29 22t49.5 10q37 0 60 -17.5t23 -44.5q0 -30 -26.5 -47t-71.5 -17h-25v-42h25zM582 784l-411 -764l46 -23l413 763zM403 94h232v-94h65v94h78v42h-78v252h-86
l-211 -232v-62zM635 341v-205h-182z" />
    <glyph glyph-name="questiondown" unicode="&#xbf;" horiz-adv-x="792" 
d="M288 90h178v150h-178v-150zM772 -326q0 52 -25 92.5t-62 63t-81 43.5t-81 36t-62 38.5t-25 52.5h-118q-12 -36 -4 -59.5t31.5 -45t54 -36.5t63.5 -34t61 -36.5t46 -44.5t18 -59q0 -51 -45 -82t-122 -31q-62 0 -107.5 16t-65.5 39t-31.5 46t-12.5 39l-1 16l-183 -50
q0 -5 1.5 -13t11 -32t24 -45.5t45 -48t70.5 -45.5t103 -32t140 -13q160 0 258.5 65t98.5 160z" />
    <glyph glyph-name="Agrave" unicode="&#xc0;" horiz-adv-x="1063" 
d="M278 1018l229 -143h117l-136 143h-210zM861 0h192l-367 777h-309l-367 -777h191l107 235h446zM506 668h51l147 -323h-346z" />
    <glyph glyph-name="Aacute" unicode="&#xc1;" horiz-adv-x="1063" 
d="M554 1019l-136 -144h117l229 144h-210zM861 0h192l-367 777h-309l-367 -777h191l107 235h446zM506 668h51l147 -323h-346z" />
    <glyph glyph-name="Acircumflex" unicode="&#xc2;" horiz-adv-x="1063" 
d="M470 1019l-186 -144h97l164 62l164 -62h97l-186 144h-150zM861 0h192l-367 777h-309l-367 -777h191l107 235h446zM506 668h51l147 -323h-346z" />
    <glyph glyph-name="Atilde" unicode="&#xc3;" horiz-adv-x="1063" 
d="M636 967q-31 0 -81.5 33t-95.5 33q-41 0 -70 -27t-37 -54l-9 -27l40 -56q2 7 5.5 18t22 29.5t44.5 18.5q33 0 82.5 -33t95.5 -33q41 0 70 27t37 54l9 27l-40 56q-1 -3 -2 -7.5t-6.5 -15.5t-13 -20t-21 -16t-30.5 -7zM861 0h192l-367 777h-309l-367 -777h191l107 235h446z
M506 668h51l147 -323h-346z" />
    <glyph glyph-name="Adieresis" unicode="&#xc4;" horiz-adv-x="1063" 
d="M356 869h138v150h-138v-150zM596 869h138v150h-138v-150zM861 0h192l-367 777h-309l-367 -777h191l107 235h446zM506 668h51l147 -323h-346z" />
    <glyph glyph-name="Aring" unicode="&#xc5;" horiz-adv-x="1063" 
d="M426 971q0 -45 34 -77t85 -32q52 0 86.5 32t34.5 77q0 49 -33.5 80t-87.5 31q-52 0 -85.5 -32.5t-33.5 -78.5zM502 972q0 20 13 32t31 12t31 -13t13 -31q0 -19 -13 -31.5t-31 -12.5t-31 12t-13 32zM861 0h192l-367 777h-309l-367 -777h191l107 235h446zM506 668h51
l147 -323h-346z" />
    <glyph glyph-name="AE" unicode="&#xc6;" horiz-adv-x="1412" 
d="M687 0h685v110h-507v223h448v109h-448v226h477v109h-965l-367 -777h191l152 333h334v-333zM506 668h181v-226h-284z" />
    <glyph glyph-name="Ccedilla" unicode="&#xc7;" horiz-adv-x="1073" 
d="M1001 452q0 7 -1 19t-9.5 47.5t-24.5 67.5t-50.5 71t-81.5 67t-124 47.5t-172 19.5q-216 0 -347 -112.5t-131 -289.5q0 -164 116 -274.5t308 -124.5l-30 -86l52 -10q13 22 39 22q19 0 30.5 -11t11.5 -29q0 -21 -18 -33t-49 -12q-28 0 -51.5 11.5t-33.5 21.5t-11 14
l-18 -68q4 -5 13 -13t41.5 -21t69.5 -13q55 0 96 30t41 83q0 39 -24 62.5t-63 23.5q-15 0 -28.5 -4t-19.5 -8l-6 -5l15 42q89 0 163.5 17t123 44t86 59t57.5 64.5t32.5 59.5t16.5 43l3 17l-183 47q0 -5 -0.5 -13t-6 -32t-15.5 -45.5t-32.5 -47.5t-53 -45t-81 -32t-112.5 -13
q-133 0 -213.5 75.5t-80.5 203.5q0 126 76 202.5t218 76.5q63 0 112.5 -14.5t78 -38t48.5 -52t27.5 -57t11 -52t2.5 -38.5l-1 -14z" />
    <glyph glyph-name="Egrave" unicode="&#xc8;" horiz-adv-x="815" 
d="M213 1018l229 -143h117l-136 143h-210zM90 0h685v110h-507v223h448v109h-448v226h477v109h-655v-777z" />
    <glyph glyph-name="Eacute" unicode="&#xc9;" horiz-adv-x="815" 
d="M459 1019l-136 -144h117l229 144h-210zM90 0h685v110h-507v223h448v109h-448v226h477v109h-655v-777z" />
    <glyph glyph-name="Ecircumflex" unicode="&#xca;" horiz-adv-x="815" 
d="M355 1019l-186 -144h97l164 62l164 -62h97l-186 144h-150zM90 0h685v110h-507v223h448v109h-448v226h477v109h-655v-777z" />
    <glyph glyph-name="Edieresis" unicode="&#xcb;" horiz-adv-x="815" 
d="M251 869h138v150h-138v-150zM491 869h138v150h-138v-150zM90 0h685v110h-507v223h448v109h-448v226h477v109h-655v-777z" />
    <glyph glyph-name="Igrave" unicode="&#xcc;" horiz-adv-x="358" 
d="M-68 1018l229 -143h117l-136 143h-210zM90 777v-777h178v777h-178z" />
    <glyph glyph-name="Iacute" unicode="&#xcd;" horiz-adv-x="358" 
d="M216 1019l-136 -144h117l229 144h-210zM90 777v-777h178v777h-178z" />
    <glyph glyph-name="Icircumflex" unicode="&#xce;" horiz-adv-x="358" 
d="M104 1019l-186 -144h97l164 62l164 -62h97l-186 144h-150zM90 777v-777h178v777h-178z" />
    <glyph glyph-name="Idieresis" unicode="&#xcf;" horiz-adv-x="358" 
d="M-10 869h138v150h-138v-150zM230 869h138v150h-138v-150zM90 777v-777h178v777h-178z" />
    <glyph glyph-name="Ntilde" unicode="&#xd1;" horiz-adv-x="1007" 
d="M594 960q-31 0 -81.5 33t-95.5 33q-41 0 -70 -27t-37 -54l-9 -27l40 -56q2 7 5.5 18t22 29.5t44.5 18.5q33 0 82.5 -33t95.5 -33q41 0 70 27t37 54l9 27l-40 56q-1 -3 -2 -7.5t-6.5 -15.5t-13 -20t-21 -16t-30.5 -7zM917 777h-178v-607l-406 607h-243v-777h178v607
l406 -607h243v777z" />
    <glyph glyph-name="Ograve" unicode="&#xd2;" horiz-adv-x="1110" 
d="M302 1018l229 -143h117l-136 143h-210zM60 389q0 -177 136 -289.5t359 -112.5t359 112.5t136 289.5t-136 289.5t-359 112.5t-359 -112.5t-136 -289.5zM245 389q0 123 78 201t232 78t232 -78t78 -201t-78 -201t-232 -78t-232 78t-78 201z" />
    <glyph glyph-name="Oacute" unicode="&#xd3;" horiz-adv-x="1110" 
d="M578 1019l-136 -144h117l229 144h-210zM60 389q0 -177 136 -289.5t359 -112.5t359 112.5t136 289.5t-136 289.5t-359 112.5t-359 -112.5t-136 -289.5zM245 389q0 123 78 201t232 78t232 -78t78 -201t-78 -201t-232 -78t-232 78t-78 201z" />
    <glyph glyph-name="Ocircumflex" unicode="&#xd4;" horiz-adv-x="1110" 
d="M479 1019l-186 -144h97l164 62l164 -62h97l-186 144h-150zM60 389q0 -177 136 -289.5t359 -112.5t359 112.5t136 289.5t-136 289.5t-359 112.5t-359 -112.5t-136 -289.5zM245 389q0 123 78 201t232 78t232 -78t78 -201t-78 -201t-232 -78t-232 78t-78 201z" />
    <glyph glyph-name="Odieresis" unicode="&#xd6;" horiz-adv-x="1110" 
d="M60 389q0 -177 136 -289.5t359 -112.5t359 112.5t136 289.5t-136 289.5t-359 112.5t-359 -112.5t-136 -289.5zM245 389q0 123 78 201t232 78t232 -78t78 -201t-78 -201t-232 -78t-232 78t-78 201zM569 855zM365 869h138v150h-138v-150zM605 869h138v150h-138v-150z
M554 855z" />
    <glyph glyph-name="multiply" unicode="&#xd7;" horiz-adv-x="650" 
d="M60 502l229 -229l-229 -229l36 -36l229 229l229 -229l36 36l-229 229l229 229l-36 36l-229 -229l-229 229zM321 568z" />
    <glyph glyph-name="Oslash" unicode="&#xd8;" horiz-adv-x="1110" 
d="M60 389q0 -142 90 -245t246 -140l-31 -94l49 -15l33 100q54 -8 108 -8q223 0 359 112.5t136 289.5q0 144 -92 247.5t-252 138.5l31 91l-51 16l-32 -98q-45 7 -99 7q-223 0 -359 -112.5t-136 -289.5zM245 389q0 123 78 201t232 78q34 0 59 -4l-178 -539q-95 27 -143 97.5
t-48 166.5zM865 389q0 -123 -78 -201t-232 -78q-40 0 -68 4l179 540q99 -26 149 -97t50 -168z" />
    <glyph glyph-name="Ugrave" unicode="&#xd9;" horiz-adv-x="992" 
d="M258 1018l229 -143h117l-136 143h-210zM724 777v-453q0 -124 -56 -169t-172 -45t-172 45t-56 169v453h-178v-453q0 -337 406 -337t406 337v453h-178z" />
    <glyph glyph-name="Uacute" unicode="&#xda;" horiz-adv-x="992" 
d="M534 1019l-136 -144h117l229 144h-210zM724 777v-453q0 -124 -56 -169t-172 -45t-172 45t-56 169v453h-178v-453q0 -337 406 -337t406 337v453h-178z" />
    <glyph glyph-name="Ucircumflex" unicode="&#xdb;" horiz-adv-x="992" 
d="M418 1019l-186 -144h97l164 62l164 -62h97l-186 144h-150zM724 777v-453q0 -124 -56 -169t-172 -45t-172 45t-56 169v453h-178v-453q0 -337 406 -337t406 337v453h-178z" />
    <glyph glyph-name="Udieresis" unicode="&#xdc;" horiz-adv-x="992" 
d="M305 869h138v150h-138v-150zM545 869h138v150h-138v-150zM724 777v-453q0 -124 -56 -169t-172 -45t-172 45t-56 169v453h-178v-453q0 -337 406 -337t406 337v453h-178z" />
    <glyph glyph-name="Yacute" unicode="&#xdd;" horiz-adv-x="982" 
d="M490 1019l-136 -144h117l229 144h-210zM972 777h-217l-264 -292l-264 292h-217l392 -412v-365h178v365z" />
    <glyph glyph-name="germandbls" unicode="&#xdf;" horiz-adv-x="754" 
d="M694 177q0 164 -194 215q7 2 19 5.5t42 18.5t53 34.5t42 55t19 78.5q0 37 -16 71.5t-49.5 66t-94.5 50.5t-142 19q-83 0 -141.5 -19t-87.5 -52.5t-41.5 -69.5t-12.5 -79v-571h163v552q0 55 30.5 91.5t93.5 36.5q61 0 93 -36t32 -88q0 -62 -54.5 -94.5t-147.5 -32.5v-97
q97 0 159 -37t62 -112q0 -38 -17.5 -62t-52.5 -24q-34 0 -64 20t-43 40l-13 20l-32 -108q2 -3 6 -8.5t19.5 -20t35 -25t54.5 -19.5t75 -9q85 0 145 52t60 138z" />
    <glyph glyph-name="agrave" unicode="&#xe0;" horiz-adv-x="773" 
d="M116 791l229 -143h117l-136 143h-210zM625 152l9 207q3 89 -69 149t-202 60q-57 0 -106.5 -10.5t-82.5 -27t-59.5 -36.5t-42 -40.5t-25.5 -37t-13 -26.5l-4 -11l172 -44q0 5 1 13.5t9.5 29.5t23 37t45.5 29.5t74 13.5q68 0 91 -31.5t23 -81.5q-211 -18 -312 -82.5
t-101 -143.5q0 -63 43.5 -97.5t120.5 -34.5q48 0 94 20t74 42.5t55 56.5t34 45t14 24q0 -92 32.5 -140t116.5 -48q39 0 72 13t47 26l14 13l-33 108q-3 -6 -9 -14t-26 -22t-40 -14q-42 0 -40 55zM228 153q0 47 58 87t183 52v-39q-3 -6 -8 -16.5t-23 -37.5t-37.5 -47.5
t-51 -37.5t-63.5 -17q-58 0 -58 56z" />
    <glyph glyph-name="aacute" unicode="&#xe1;" horiz-adv-x="773" 
d="M392 792l-136 -144h117l229 144h-210zM625 152l9 207q3 89 -69 149t-202 60q-57 0 -106.5 -10.5t-82.5 -27t-59.5 -36.5t-42 -40.5t-25.5 -37t-13 -26.5l-4 -11l172 -44q0 5 1 13.5t9.5 29.5t23 37t45.5 29.5t74 13.5q68 0 91 -31.5t23 -81.5q-211 -18 -312 -82.5
t-101 -143.5q0 -63 43.5 -97.5t120.5 -34.5q48 0 94 20t74 42.5t55 56.5t34 45t14 24q0 -92 32.5 -140t116.5 -48q39 0 72 13t47 26l14 13l-33 108q-3 -6 -9 -14t-26 -22t-40 -14q-42 0 -40 55zM228 153q0 47 58 87t183 52v-39q-3 -6 -8 -16.5t-23 -37.5t-37.5 -47.5
t-51 -37.5t-63.5 -17q-58 0 -58 56z" />
    <glyph glyph-name="acircumflex" unicode="&#xe2;" horiz-adv-x="773" 
d="M284 792l-186 -144h97l164 62l164 -62h97l-186 144h-150zM625 152l9 207q3 89 -69 149t-202 60q-57 0 -106.5 -10.5t-82.5 -27t-59.5 -36.5t-42 -40.5t-25.5 -37t-13 -26.5l-4 -11l172 -44q0 5 1 13.5t9.5 29.5t23 37t45.5 29.5t74 13.5q68 0 91 -31.5t23 -81.5
q-211 -18 -312 -82.5t-101 -143.5q0 -63 43.5 -97.5t120.5 -34.5q48 0 94 20t74 42.5t55 56.5t34 45t14 24q0 -92 32.5 -140t116.5 -48q39 0 72 13t47 26l14 13l-33 108q-3 -6 -9 -14t-26 -22t-40 -14q-42 0 -40 55zM228 153q0 47 58 87t183 52v-39q-3 -6 -8 -16.5
t-23 -37.5t-37.5 -47.5t-51 -37.5t-63.5 -17q-58 0 -58 56z" />
    <glyph glyph-name="atilde" unicode="&#xe3;" horiz-adv-x="773" 
d="M446 760q-31 0 -81.5 33t-95.5 33q-41 0 -70 -27t-37 -54l-9 -27l40 -56q2 7 5.5 18t22 29.5t44.5 18.5q33 0 82.5 -33t95.5 -33q41 0 70 27t37 54l9 27l-40 56q-1 -3 -2 -7.5t-6.5 -15.5t-13 -20t-21 -16t-30.5 -7zM625 152l9 207q3 89 -69 149t-202 60
q-57 0 -106.5 -10.5t-82.5 -27t-59.5 -36.5t-42 -40.5t-25.5 -37t-13 -26.5l-4 -11l172 -44q0 5 1 13.5t9.5 29.5t23 37t45.5 29.5t74 13.5q68 0 91 -31.5t23 -81.5q-211 -18 -312 -82.5t-101 -143.5q0 -63 43.5 -97.5t120.5 -34.5q48 0 94 20t74 42.5t55 56.5t34 45t14 24
q0 -92 32.5 -140t116.5 -48q39 0 72 13t47 26l14 13l-33 108q-3 -6 -9 -14t-26 -22t-40 -14q-42 0 -40 55zM228 153q0 47 58 87t183 52v-39q-3 -6 -8 -16.5t-23 -37.5t-37.5 -47.5t-51 -37.5t-63.5 -17q-58 0 -58 56z" />
    <glyph glyph-name="adieresis" unicode="&#xe4;" horiz-adv-x="773" 
d="M164 662h138v150h-138v-150zM404 662h138v150h-138v-150zM625 152l9 207q3 89 -69 149t-202 60q-57 0 -106.5 -10.5t-82.5 -27t-59.5 -36.5t-42 -40.5t-25.5 -37t-13 -26.5l-4 -11l172 -44q0 5 1 13.5t9.5 29.5t23 37t45.5 29.5t74 13.5q68 0 91 -31.5t23 -81.5
q-211 -18 -312 -82.5t-101 -143.5q0 -63 43.5 -97.5t120.5 -34.5q48 0 94 20t74 42.5t55 56.5t34 45t14 24q0 -92 32.5 -140t116.5 -48q39 0 72 13t47 26l14 13l-33 108q-3 -6 -9 -14t-26 -22t-40 -14q-42 0 -40 55zM228 153q0 47 58 87t183 52v-39q-3 -6 -8 -16.5
t-23 -37.5t-37.5 -47.5t-51 -37.5t-63.5 -17q-58 0 -58 56z" />
    <glyph glyph-name="aring" unicode="&#xe5;" horiz-adv-x="773" 
d="M254 745q0 -45 34 -77t85 -32q52 0 86.5 32t34.5 77q0 49 -33.5 80t-87.5 31q-52 0 -85.5 -32.5t-33.5 -78.5zM330 746q0 20 13 32t31 12t31 -13t13 -31q0 -19 -13 -31.5t-31 -12.5t-31 12t-13 32zM625 152l9 207q3 89 -69 149t-202 60q-57 0 -106.5 -10.5t-82.5 -27
t-59.5 -36.5t-42 -40.5t-25.5 -37t-13 -26.5l-4 -11l172 -44q0 5 1 13.5t9.5 29.5t23 37t45.5 29.5t74 13.5q68 0 91 -31.5t23 -81.5q-211 -18 -312 -82.5t-101 -143.5q0 -63 43.5 -97.5t120.5 -34.5q48 0 94 20t74 42.5t55 56.5t34 45t14 24q0 -92 32.5 -140t116.5 -48
q39 0 72 13t47 26l14 13l-33 108q-3 -6 -9 -14t-26 -22t-40 -14q-42 0 -40 55zM228 153q0 47 58 87t183 52v-39q-3 -6 -8 -16.5t-23 -37.5t-37.5 -47.5t-51 -37.5t-63.5 -17q-58 0 -58 56z" />
    <glyph glyph-name="ae" unicode="&#xe6;" horiz-adv-x="1192" 
d="M631 268l486 -10q4 19 4 42t-5.5 53.5t-17.5 59.5t-36 57.5t-57.5 50t-86 34.5t-116.5 13q-147 0 -233 -80q-63 80 -206 80q-57 0 -106.5 -10.5t-82.5 -27t-59.5 -36.5t-42 -40.5t-25.5 -37t-13 -26.5l-4 -11l172 -44q0 5 1 13.5t9.5 29.5t23 37t45.5 29.5t74 13.5
q68 0 91 -31.5t23 -81.5q-211 -18 -312 -82.5t-101 -143.5q0 -63 43.5 -97.5t120.5 -34.5q54 0 102 20.5t82.5 55t55.5 62.5t38 59q28 -94 109.5 -145.5t194.5 -51.5q59 0 109 11t82.5 28t59 38t40.5 42.5t23.5 38.5t12.5 28l3 11l-160 41q0 -5 -1 -13.5t-9.5 -31t-23 -39
t-45.5 -30.5t-74 -14q-94 0 -140.5 49.5t-47.5 121.5zM946 356l-305 -10q1 5 3 13t13 28t26.5 35.5t46 28t69.5 12.5q37 0 66 -11t43.5 -26.5t24 -31.5t11.5 -27zM228 153q0 46 57.5 80t183.5 39v-19q-3 -6 -8 -16.5t-23 -37.5t-37.5 -47.5t-51 -37.5t-63.5 -17
q-58 0 -58 56z" />
    <glyph glyph-name="ccedilla" unicode="&#xe7;" horiz-adv-x="777" 
d="M567 225q0 -5 -1 -13.5t-9.5 -31t-23 -39t-46 -30.5t-73.5 -14q-87 0 -134.5 49t-47.5 132q0 79 43 129.5t125 50.5q50 0 83 -20t45.5 -49t17.5 -57.5t3 -48.5l-2 -20l160 41q0 3 0.5 9t-1 24t-5 35.5t-13.5 41.5t-24 44.5t-38 41t-54.5 35.5t-75 24t-98.5 9
q-153 0 -245.5 -82t-92.5 -208q0 -120 78 -195.5t199 -91.5l-31 -87l52 -10q13 22 39 22q19 0 30.5 -11t11.5 -29q0 -21 -18 -33t-49 -12q-28 0 -52 11.5t-34 23.5l-10 12l-18 -68q4 -5 13 -13t41.5 -21t69.5 -13q55 0 96 30t41 83q0 39 -24 62.5t-63 23.5q-15 0 -28.5 -4
t-19.5 -8l-6 -5l15 42h4q59 0 108.5 11t82.5 28t59 38t40.5 42.5t24 38.5t12.5 28l3 11z" />
    <glyph glyph-name="egrave" unicode="&#xe8;" horiz-adv-x="787" 
d="M146 791l229 -143h117l-136 143h-210zM226 268l486 -10q4 19 4 42t-5.5 53.5t-17.5 59.5t-36 57.5t-57.5 50t-86 34.5t-116.5 13q-153 0 -245 -82t-92 -208q0 -135 98 -213t239 -78q59 0 109 11t82.5 28t59 38t40.5 42.5t23.5 38.5t12.5 28l3 11l-160 41q0 -5 -1 -13.5
t-9.5 -31t-23 -39t-45.5 -30.5t-74 -14q-94 0 -140.5 49.5t-47.5 121.5zM541 356l-305 -10q1 5 3 13t13 28t26.5 35.5t46 28t69.5 12.5q37 0 66 -11t43.5 -26.5t24 -31.5t11.5 -27z" />
    <glyph glyph-name="eacute" unicode="&#xe9;" horiz-adv-x="787" 
d="M452 791l-136 -144h117l229 144h-210zM226 268l486 -10q4 19 4 42t-5.5 53.5t-17.5 59.5t-36 57.5t-57.5 50t-86 34.5t-116.5 13q-153 0 -245 -82t-92 -208q0 -135 98 -213t239 -78q59 0 109 11t82.5 28t59 38t40.5 42.5t23.5 38.5t12.5 28l3 11l-160 41q0 -5 -1 -13.5
t-9.5 -31t-23 -39t-45.5 -30.5t-74 -14q-94 0 -140.5 49.5t-47.5 121.5zM541 356l-305 -10q1 5 3 13t13 28t26.5 35.5t46 28t69.5 12.5q37 0 66 -11t43.5 -26.5t24 -31.5t11.5 -27z" />
    <glyph glyph-name="ecircumflex" unicode="&#xea;" horiz-adv-x="787" 
d="M319 792l-186 -144h97l164 62l164 -62h97l-186 144h-150zM226 268l486 -10q4 19 4 42t-5.5 53.5t-17.5 59.5t-36 57.5t-57.5 50t-86 34.5t-116.5 13q-153 0 -245 -82t-92 -208q0 -135 98 -213t239 -78q59 0 109 11t82.5 28t59 38t40.5 42.5t23.5 38.5t12.5 28l3 11
l-160 41q0 -5 -1 -13.5t-9.5 -31t-23 -39t-45.5 -30.5t-74 -14q-94 0 -140.5 49.5t-47.5 121.5zM541 356l-305 -10q1 5 3 13t13 28t26.5 35.5t46 28t69.5 12.5q37 0 66 -11t43.5 -26.5t24 -31.5t11.5 -27z" />
    <glyph glyph-name="edieresis" unicode="&#xeb;" horiz-adv-x="787" 
d="M224 662h138v150h-138v-150zM464 662h138v150h-138v-150zM226 268l486 -10q4 19 4 42t-5.5 53.5t-17.5 59.5t-36 57.5t-57.5 50t-86 34.5t-116.5 13q-153 0 -245 -82t-92 -208q0 -135 98 -213t239 -78q59 0 109 11t82.5 28t59 38t40.5 42.5t23.5 38.5t12.5 28l3 11
l-160 41q0 -5 -1 -13.5t-9.5 -31t-23 -39t-45.5 -30.5t-74 -14q-94 0 -140.5 49.5t-47.5 121.5zM541 356l-305 -10q1 5 3 13t13 28t26.5 35.5t46 28t69.5 12.5q37 0 66 -11t43.5 -26.5t24 -31.5t11.5 -27z" />
    <glyph glyph-name="igrave" unicode="&#xec;" horiz-adv-x="345" 
d="M-78 791l229 -143h117l-136 143h-210zM90 0h165v555h-165v-555z" />
    <glyph glyph-name="iacute" unicode="&#xed;" horiz-adv-x="345" 
d="M226 792l-136 -144h117l229 144h-210zM90 0h165v555h-165v-555z" />
    <glyph glyph-name="icircumflex" unicode="&#xee;" horiz-adv-x="345" 
d="M98 792l-186 -144h97l164 62l164 -62h97l-186 144h-150zM90 0h165v555h-165v-555z" />
    <glyph glyph-name="idieresis" unicode="&#xef;" horiz-adv-x="345" 
d="M-16 642h138v150h-138v-150zM224 642h138v150h-138v-150zM90 0h165v555h-165v-555z" />
    <glyph glyph-name="ntilde" unicode="&#xf1;" horiz-adv-x="815" 
d="M512 760q-31 0 -81.5 33t-95.5 33q-41 0 -70 -27t-37 -54l-9 -27l40 -56q2 7 5.5 18t22 29.5t44.5 18.5q33 0 82.5 -33t95.5 -33q41 0 70 27t37 54l9 27l-40 56q-1 -3 -2 -7.5t-6.5 -15.5t-13 -20t-21 -16t-30.5 -7zM560 0h165v340q0 228 -260 228q-62 0 -108.5 -17.5
t-69 -42.5t-36 -50t-15.5 -42l-3 -18l-47 157h-96v-555h165v336q1 5 4.5 13t16 29t29.5 37.5t47.5 29.5t67.5 13q140 0 140 -110v-348z" />
    <glyph glyph-name="ograve" unicode="&#xf2;" horiz-adv-x="808" 
d="M124 791l229 -143h117l-136 143h-210zM60 278q0 -126 93 -208.5t250 -82.5q159 0 252 82.5t93 208.5q0 125 -93 207.5t-252 82.5q-157 0 -250 -82.5t-93 -207.5zM233 278q0 77 40 128.5t130 51.5q89 0 130.5 -51.5t41.5 -128.5t-41.5 -129t-130.5 -52t-129.5 51.5
t-40.5 129.5z" />
    <glyph glyph-name="oacute" unicode="&#xf3;" horiz-adv-x="808" 
d="M470 792l-136 -144h117l229 144h-210zM60 278q0 -126 93 -208.5t250 -82.5q159 0 252 82.5t93 208.5q0 125 -93 207.5t-252 82.5q-157 0 -250 -82.5t-93 -207.5zM233 278q0 77 40 128.5t130 51.5q89 0 130.5 -51.5t41.5 -128.5t-41.5 -129t-130.5 -52t-129.5 51.5
t-40.5 129.5z" />
    <glyph glyph-name="ocircumflex" unicode="&#xf4;" horiz-adv-x="808" 
d="M326 792l-186 -144h97l164 62l164 -62h97l-186 144h-150zM60 278q0 -126 93 -208.5t250 -82.5q159 0 252 82.5t93 208.5q0 125 -93 207.5t-252 82.5q-157 0 -250 -82.5t-93 -207.5zM233 278q0 77 40 128.5t130 51.5q89 0 130.5 -51.5t41.5 -128.5t-41.5 -129t-130.5 -52
t-129.5 51.5t-40.5 129.5z" />
    <glyph glyph-name="odieresis" unicode="&#xf6;" horiz-adv-x="808" 
d="M211 627h138v150h-138v-150zM451 627h138v150h-138v-150zM60 278q0 -126 93 -208.5t250 -82.5q159 0 252 82.5t93 208.5q0 125 -93 207.5t-252 82.5q-157 0 -250 -82.5t-93 -207.5zM233 278q0 77 40 128.5t130 51.5q89 0 130.5 -51.5t41.5 -128.5t-41.5 -129t-130.5 -52
t-129.5 51.5t-40.5 129.5z" />
    <glyph glyph-name="divide" unicode="&#xf7;" horiz-adv-x="650" 
d="M280 523v-112h90v112h-90zM630 286h-610v-50h610v50zM280 112v-112h90v112h-90z" />
    <glyph glyph-name="oslash" unicode="&#xf8;" horiz-adv-x="808" 
d="M514 696l-44 -133q-35 5 -67 5q-157 0 -250 -82.5t-93 -207.5q0 -100 59.5 -174.5t165.5 -102.5l-43 -129l49 -15l44 135q37 -5 68 -5q159 0 252 82.5t93 208.5q0 98 -59.5 172.5t-165.5 102.5l42 127zM233 278q0 77 40 128.5t130 51.5q12 0 32 -2l-114 -344
q-88 41 -88 166zM575 278q0 -77 -41.5 -129t-130.5 -52q-22 0 -32 2l114 342q46 -21 68 -65t22 -98z" />
    <glyph glyph-name="ugrave" unicode="&#xf9;" horiz-adv-x="815" 
d="M145 791l229 -143h117l-136 143h-210zM254 555h-164v-340q0 -228 260 -228q62 0 108.5 17.5t69 42.5t36 50t16.5 43l2 17l47 -157h96v555h-165v-336q-1 -5 -4.5 -13t-16 -29t-29.5 -37.5t-47.5 -29.5t-67.5 -13q-141 0 -141 110v348z" />
    <glyph glyph-name="uacute" unicode="&#xfa;" horiz-adv-x="815" 
d="M421 792l-136 -144h117l229 144h-210zM254 555h-164v-340q0 -228 260 -228q62 0 108.5 17.5t69 42.5t36 50t16.5 43l2 17l47 -157h96v555h-165v-336q-1 -5 -4.5 -13t-16 -29t-29.5 -37.5t-47.5 -29.5t-67.5 -13q-141 0 -141 110v348z" />
    <glyph glyph-name="ucircumflex" unicode="&#xfb;" horiz-adv-x="815" 
d="M337 792l-186 -144h97l164 62l164 -62h97l-186 144h-150zM254 555h-164v-340q0 -228 260 -228q62 0 108.5 17.5t69 42.5t36 50t16.5 43l2 17l47 -157h96v555h-165v-336q-1 -5 -4.5 -13t-16 -29t-29.5 -37.5t-47.5 -29.5t-67.5 -13q-141 0 -141 110v348z" />
    <glyph glyph-name="udieresis" unicode="&#xfc;" horiz-adv-x="815" 
d="M223 642h138v150h-138v-150zM463 642h138v150h-138v-150zM254 555h-164v-340q0 -228 260 -228q62 0 108.5 17.5t69 42.5t36 50t16.5 43l2 17l47 -157h96v555h-165v-336q-1 -5 -4.5 -13t-16 -29t-29.5 -37.5t-47.5 -29.5t-67.5 -13q-141 0 -141 110v348z" />
    <glyph glyph-name="yacute" unicode="&#xfd;" horiz-adv-x="738" 
d="M369 792l-136 -144h117l229 144h-210zM287 15q-32 -68 -62 -105t-71 -37q-36 0 -63 20t-36 40l-9 20l-32 -107l6 -9t18.5 -20t31 -25t43.5 -20t57 -9q78 0 130.5 40t102.5 135l325 617h-181l-183 -399l-173 399h-181z" />
    <glyph glyph-name="ydieresis" unicode="&#xff;" horiz-adv-x="738" 
d="M175 642h138v150h-138v-150zM415 642h138v150h-138v-150zM287 15q-32 -68 -62 -105t-71 -37q-36 0 -63 20t-36 40l-9 20l-32 -107l6 -9t18.5 -20t31 -25t43.5 -20t57 -9q78 0 130.5 40t102.5 135l325 617h-181l-183 -399l-173 399h-181z" />
    <glyph glyph-name="Aogonek" unicode="&#x104;" horiz-adv-x="1084" 
d="M1050 -115q-21 -29 -54.5 -41.5t-59.5 -1.5t-26 44q0 28 29.5 54.5t113.5 59.5l-367 777h-309l-367 -777h191l107 235h446l107 -235h51q-62 -18 -98.5 -57.5t-36.5 -98.5q0 -69 49 -105t118 -32t130 41zM358 345l148 323h51l147 -323h-346z" />
    <glyph glyph-name="aogonek" unicode="&#x105;" horiz-adv-x="784" 
d="M760 -115q-22 -29 -55 -42t-59 -1t-26 47q0 19 10.5 34.5t24.5 25.5t44.5 31.5t55.5 42.5l18 16l-33 108q-3 -6 -9 -14t-26 -22t-40 -14q-42 0 -40 55l9 207q3 89 -69 149t-202 60q-57 0 -106.5 -10.5t-82.5 -27t-59.5 -36.5t-42 -40.5t-25.5 -37t-13 -26.5l-4 -11
l172 -44q0 5 1 13.5t9.5 29.5t23 37t45.5 29.5t74 13.5q68 0 91 -31.5t23 -81.5q-211 -18 -312 -82.5t-101 -143.5q0 -63 43.5 -97.5t120.5 -34.5q48 0 94 20t74 42.5t55 56.5t34 45t14 24q0 -87 28.5 -134t100.5 -53q-59 -21 -94 -61.5t-35 -92.5q0 -61 47.5 -95.5
t116 -31.5t129.5 41zM469 253q-3 -6 -8 -16.5t-23 -37.5t-37.5 -47.5t-51 -37.5t-63.5 -17q-58 0 -58 56q0 47 58 87t183 52v-39z" />
    <glyph glyph-name="Cacute" unicode="&#x106;" horiz-adv-x="1073" 
d="M774 1019h-210l-136 -144h117zM1001 452q0 7 -1 19t-9.5 47.5t-24.5 67.5t-50.5 71t-81.5 67t-124 47.5t-172 19.5q-216 0 -347 -112.5t-131 -289.5q0 -176 132.5 -289t346.5 -113q89 0 164 17t123.5 43.5t86.5 59t58 65t32.5 59t16.5 43.5l3 17l-183 47q0 -5 -0.5 -13
t-6 -32t-15.5 -45.5t-32.5 -47.5t-53 -45t-81 -32t-112.5 -13q-133 0 -213.5 75.5t-80.5 203.5q0 126 76 202.5t218 76.5q63 0 112.5 -14.5t78 -38t48.5 -52t27.5 -57t11 -52t2.5 -38.5l-1 -14z" />
    <glyph glyph-name="cacute" unicode="&#x107;" horiz-adv-x="777" 
d="M660 777h-210l-136 -144h117zM567 225q0 -5 -1 -13.5t-9.5 -31t-23 -39t-46 -30.5t-73.5 -14q-87 0 -134.5 49t-47.5 132q0 79 43 129.5t125 50.5q50 0 83 -20t45.5 -49t17.5 -57.5t3 -48.5l-2 -20l160 41q0 3 0.5 9t-1 24t-5 35.5t-13.5 41.5t-24 44.5t-38 41
t-54.5 35.5t-75 24t-98.5 9q-153 0 -245.5 -82t-92.5 -208q0 -135 98 -213t239 -78q59 0 108.5 11t82.5 28t59 38t40.5 42.5t24 38.5t12.5 28l3 11z" />
    <glyph glyph-name="Eogonek" unicode="&#x118;" horiz-adv-x="835" 
d="M771 -115q-21 -29 -54.5 -41.5t-59.5 -1.5t-26 44q0 28 29.5 54.5t113.5 59.5h1v110h-507v223h448v109h-448v226h477v109h-655v-777h543q-62 -18 -98.5 -57.5t-36.5 -98.5q0 -69 49 -105t118 -32t130 41z" />
    <glyph glyph-name="eogonek" unicode="&#x119;" horiz-adv-x="787" 
d="M691 111q13 18 22 36t11 27l3 10l-160 41q0 -5 -1 -13.5t-9.5 -31t-23 -39t-45.5 -30.5t-74 -14q-94 0 -140.5 49.5t-47.5 121.5l486 -10q4 19 4 42t-5.5 53.5t-17.5 59.5t-36 57.5t-57.5 50t-86 34.5t-116.5 13q-153 0 -245 -82t-92 -208q0 -135 98 -213t239 -78
q65 0 125 15q-49 -46 -72 -81t-23 -77q0 -69 49 -105t118 -32t130 41l-24 137q-21 -29 -54.5 -41.5t-59.5 -1.5t-26 44q0 19 15.5 46.5t72.5 113.5q27 41 43 65zM541 356l-305 -10q1 5 3 13t13 28t26.5 35.5t46 28t69.5 12.5q37 0 66 -11t43.5 -26.5t24 -31.5t11.5 -27z" />
    <glyph glyph-name="dotlessi" unicode="&#x131;" horiz-adv-x="345" 
d="M90 0h165v555h-165v-555z" />
    <glyph glyph-name="Lslash" unicode="&#x141;" horiz-adv-x="785" 
d="M310 110v227l344 223l-59 103l-285 -200v314h-178v-439l-112 -78l40 -85l72 47v-222h643v110h-465z" />
    <glyph glyph-name="lslash" unicode="&#x142;" horiz-adv-x="462" 
d="M442 455l-49 103l-98 -69v302q-84 -14 -165 -14v-405l-100 -71l39 -73l61 37v-265h165v366z" />
    <glyph glyph-name="Nacute" unicode="&#x143;" horiz-adv-x="1007" 
d="M784 1019h-210l-136 -144h117zM917 0v777h-178v-607l-406 607h-243v-777h178v607l406 -607h243z" />
    <glyph glyph-name="nacute" unicode="&#x144;" horiz-adv-x="815" 
d="M710 777h-210l-136 -144h117zM560 0h165v340q0 228 -260 228q-62 0 -108.5 -17.5t-69 -42.5t-36 -50t-15.5 -42l-3 -18l-47 157h-96v-555h165v336q1 5 4.5 13t16 29t29.5 37.5t47.5 29.5t67.5 13q140 0 140 -110v-348z" />
    <glyph glyph-name="OE" unicode="&#x152;" horiz-adv-x="1415" 
d="M60 389q0 -177 136 -289.5t359 -112.5q67 0 137 13h683v110h-449q100 88 120 223h270v109h-270q-18 135 -120 226h419v109l-643 -1q-75 15 -147 15q-223 0 -359 -112.5t-136 -289.5zM245 389q0 123 78 201t232 78q136 0 213 -62t93 -164h-193v-109h192
q-17 -101 -93.5 -162t-211.5 -61q-154 0 -232 78t-78 201z" />
    <glyph glyph-name="oe" unicode="&#x153;" horiz-adv-x="1302" 
d="M60 278q0 -126 93 -208.5t250 -82.5q172 0 258 99q88 -99 251 -99q59 0 109 11t82.5 28t59 38t40.5 42.5t23.5 38.5t12.5 28l3 11l-160 41q0 -5 -1 -13.5t-9.5 -31t-23 -39t-45.5 -30.5t-74 -14q-94 0 -140.5 49.5t-47.5 121.5l486 -10q4 19 4 42t-5.5 53.5t-17.5 59.5
t-36 57.5t-57.5 50t-86 34.5t-116.5 13q-165 0 -251 -99q-88 99 -258 99q-157 0 -250 -82.5t-93 -207.5zM751 346q1 5 3 13t13 28t26.5 35.5t46 28t69.5 12.5q37 0 66 -11t43.5 -26.5t24 -31.5t11.5 -27l2 -11zM233 278q0 77 40 128.5t130 51.5q89 0 130.5 -51.5
t41.5 -128.5t-41.5 -129t-130.5 -52t-129.5 51.5t-40.5 129.5z" />
    <glyph glyph-name="Sacute" unicode="&#x15a;" horiz-adv-x="871" 
d="M734 1019h-210l-136 -144h117zM379 487q-137 27 -137 91q0 39 45 64.5t123 25.5q62 0 107.5 -16t65.5 -39t31.5 -46t11.5 -39l1 -16l183 50q0 5 -1.5 13t-11 32t-24 45.5t-44.5 48t-69.5 45.5t-102.5 32t-140 13q-173 0 -266 -67t-93 -165q0 -74 61 -128.5t173 -78.5
l198 -42q41 -9 59.5 -13.5t44.5 -13.5t36.5 -18.5t19 -25t8.5 -36.5q0 -44 -50.5 -68.5t-139.5 -24.5q-57 0 -101.5 10.5t-70.5 27t-44.5 37t-25.5 41t-10.5 37t-3.5 27.5l1 10l-183 -47q2 -36 16 -71t46.5 -71t81 -63t125.5 -44t172 -17q163 0 266.5 60t103.5 170
q0 84 -56.5 142t-191.5 85z" />
    <glyph glyph-name="sacute" unicode="&#x15b;" horiz-adv-x="700" 
d="M620 777h-210l-136 -144h117zM40 181q0 -4 1.5 -11t9 -27t19.5 -38.5t37.5 -41t59 -38.5t87 -27t118.5 -11q125 0 206.5 45.5t81.5 127.5q0 137 -193 169l-140 23q-57 10 -81.5 20t-24.5 33t26.5 40.5t75.5 17.5q40 0 69.5 -10t43.5 -24.5t22.5 -29t9.5 -24.5l2 -10
l160 41q-1 7 -4 17.5t-22 38.5t-48 49.5t-88.5 39t-137.5 17.5q-113 0 -187.5 -46.5t-74.5 -126.5q0 -117 187 -151l130 -24q60 -11 86 -25.5t26 -39.5q0 -28 -35 -43t-88 -15q-49 0 -85 13t-52.5 31.5t-25.5 36.5t-10 31l-1 13z" />
    <glyph glyph-name="Ydieresis" unicode="&#x178;" horiz-adv-x="982" 
d="M302 869h138v150h-138v-150zM542 869h138v150h-138v-150zM972 777h-217l-264 -292l-264 292h-217l392 -412v-365h178v365z" />
    <glyph glyph-name="Zacute" unicode="&#x179;" horiz-adv-x="818" 
d="M664 1019h-210l-136 -144h117zM798 0v110h-543l543 548v119h-778v-109h543l-543 -548v-120h778z" />
    <glyph glyph-name="zacute" unicode="&#x17a;" horiz-adv-x="705" 
d="M619 777h-210l-136 -144h117zM60 107v-107h585v97h-377l377 351v107h-585v-97h383z" />
    <glyph glyph-name="Zdotaccent" unicode="&#x17b;" horiz-adv-x="818" 
d="M373 1019v-150h138v150h-138zM798 0v110h-543l543 548v119h-778v-109h543l-543 -548v-120h778z" />
    <glyph glyph-name="zdotaccent" unicode="&#x17c;" horiz-adv-x="705" 
d="M291 812v-150h138v150h-138zM60 107v-107h585v97h-377l377 351v107h-585v-97h383z" />
    <glyph glyph-name="circumflex" unicode="&#x2c6;" horiz-adv-x="1204" 
d="M526 777l-186 -144h97l164 62l164 -62h97l-186 144h-150zM601 613z" />
    <glyph glyph-name="ring" unicode="&#x2da;" horiz-adv-x="1204" 
d="M482 729q0 -45 34 -77t85 -32q52 0 86.5 32t34.5 77q0 49 -33.5 80t-87.5 31q-52 0 -85.5 -32.5t-33.5 -78.5zM558 730q0 20 13 32t31 12t31 -13t13 -31q0 -19 -13 -31.5t-31 -12.5t-31 12t-13 32zM601 613z" />
    <glyph glyph-name="tilde" unicode="&#x2dc;" horiz-adv-x="1204" 
d="M692 725q-31 0 -81.5 33t-95.5 33q-41 0 -70 -27t-37 -54l-9 -27l40 -56q2 7 5.5 18t22 29.5t44.5 18.5q33 0 82.5 -33t95.5 -33q41 0 70 27t37 54l9 27l-40 56q-1 -3 -2 -7.5t-6.5 -15.5t-13 -20t-21 -16t-30.5 -7zM601 613z" />
    <glyph glyph-name="uni0344" unicode="&#x344;" horiz-adv-x="668" 
d="M306 817l-96 -189h87l189 189h-180zM50 627h138v150h-138v-150zM480 627h138v150h-138v-150zM337 613z" />
    <glyph glyph-name="uni037E" unicode="&#x37e;" horiz-adv-x="298" 
d="M60 405h178v150h-178v-150zM238 150h-178v-150h101q-3 -27 -16.5 -52.5t-31 -42.5t-34.5 -30t-29 -19l-11 -6l101 -26q4 3 10.5 9t23.5 26t30 42t23.5 56t10.5 68v125z" />
    <glyph glyph-name="tonos" unicode="&#x384;" horiz-adv-x="446" 
d="M186 777l-136 -149h117l229 149h-210zM177 613z" />
    <glyph glyph-name="dieresistonos" unicode="&#x385;" horiz-adv-x="668" 
d="M306 817l-96 -189h87l189 189h-180zM50 627h138v150h-138v-150zM480 627h138v150h-138v-150zM337 613z" />
    <glyph glyph-name="Alphatonos" unicode="&#x386;" horiz-adv-x="1098" 
d="M896 0h192l-367 777h-309l-367 -777h191l107 235h446zM541 668h51l147 -323h-346zM136 777l-136 -149h117l229 149h-210zM127 613z" />
    <glyph glyph-name="anoteleia" unicode="&#x387;" horiz-adv-x="298" 
d="M60 405h178v150h-178v-150z" />
    <glyph glyph-name="Epsilontonos" unicode="&#x388;" horiz-adv-x="1095" 
d="M370 0h685v110h-507v223h448v109h-448v226h477v109h-655v-777zM136 777l-136 -149h117l229 149h-210zM127 613z" />
    <glyph glyph-name="Etatonos" unicode="&#x389;" horiz-adv-x="1286" 
d="M1018 0h178v777h-178v-335h-470v335h-178v-777h178v333h470v-333zM136 777l-136 -149h117l229 149h-210zM127 613z" />
    <glyph glyph-name="Iotatonos" unicode="&#x38a;" horiz-adv-x="638" 
d="M370 777v-777h178v777h-178zM136 777l-136 -149h117l229 149h-210zM127 613z" />
    <glyph glyph-name="Omicrontonos" unicode="&#x38c;" horiz-adv-x="1222" 
d="M172 389q0 -177 136 -289.5t359 -112.5t359 112.5t136 289.5t-136 289.5t-359 112.5t-359 -112.5t-136 -289.5zM357 389q0 123 78 201t232 78t232 -78t78 -201t-78 -201t-232 -78t-232 78t-78 201zM136 777l-136 -149h117l229 149h-210zM127 613z" />
    <glyph glyph-name="Upsilontonos" unicode="&#x38e;" horiz-adv-x="1328" 
d="M1318 777h-217l-264 -292l-264 292h-217l392 -412v-365h178v365zM136 777l-136 -149h117l229 149h-210zM127 613z" />
    <glyph glyph-name="Omegatonos" unicode="&#x38f;" horiz-adv-x="1227" 
d="M362 419q0 106 81 177.5t229 71.5t229 -71.5t81 -177.5q0 -69 -23.5 -130t-80.5 -111t-141 -69v-109h450v109h-275q124 48 189.5 132.5t65.5 187.5q0 154 -139.5 258t-355.5 104t-355.5 -104t-139.5 -258q0 -104 65.5 -190t189.5 -130h-275v-109h440v111
q-119 30 -177 115.5t-58 192.5zM136 777l-136 -149h117l229 149h-210zM127 613z" />
    <glyph glyph-name="iotadieresistonos" unicode="&#x390;" horiz-adv-x="345" 
d="M90 0h165v555h-165v-555zM187 817l-96 -189h87l189 189h-180zM-69 627h138v150h-138v-150zM361 627h138v150h-138v-150zM218 613z" />
    <glyph glyph-name="Alpha" unicode="&#x391;" horiz-adv-x="1063" 
d="M861 0h192l-367 777h-309l-367 -777h191l107 235h446zM506 668h51l147 -323h-346z" />
    <glyph glyph-name="Beta" unicode="&#x392;" horiz-adv-x="922" 
d="M456 777h-366v-777h386q386 0 386 227q0 42 -16 75t-36.5 50.5t-47 30t-40 16t-22.5 4.5q8 1 20 4.5t35 14.5t41 27t32 45t14 66q0 111 -93.5 164t-292.5 53zM466 452h-198v216h198q191 0 191 -108t-191 -108zM268 110v236h227q84 0 133 -30.5t49 -87.5q0 -58 -51.5 -88
t-139.5 -30h-218z" />
    <glyph glyph-name="Gamma" unicode="&#x393;" horiz-adv-x="815" 
d="M90 0h178v668h477v109h-655v-777z" />
    <glyph glyph-name="uni0394" unicode="&#x394;" horiz-adv-x="1063" 
d="M686 777h-309l-367 -777h1043zM506 668h51l254 -558h-560z" />
    <glyph glyph-name="Epsilon" unicode="&#x395;" horiz-adv-x="815" 
d="M90 0h685v110h-507v223h448v109h-448v226h477v109h-655v-777z" />
    <glyph glyph-name="Zeta" unicode="&#x396;" horiz-adv-x="818" 
d="M798 110h-563l563 548v119h-778v-109h563l-563 -548v-120h778v110z" />
    <glyph glyph-name="Eta" unicode="&#x397;" horiz-adv-x="1006" 
d="M738 0h178v777h-178v-335h-470v335h-178v-777h178v333h470v-333z" />
    <glyph glyph-name="Theta" unicode="&#x398;" horiz-adv-x="1110" 
d="M60 389q0 -177 136 -289.5t359 -112.5t359 112.5t136 289.5t-136 289.5t-359 112.5t-359 -112.5t-136 -289.5zM555 668q136 0 213 -62t93 -164h-612q16 102 93 164t213 62zM555 110q-136 0 -212.5 61t-93.5 162h612q-17 -101 -93.5 -162t-212.5 -61z" />
    <glyph glyph-name="Iota" unicode="&#x399;" horiz-adv-x="358" 
d="M90 777v-777h178v777h-178z" />
    <glyph glyph-name="Kappa" unicode="&#x39a;" horiz-adv-x="912" 
d="M730 0h222l-438 442l408 335h-222l-432 -366v366h-178v-777h178v238l131 109z" />
    <glyph glyph-name="Lambda" unicode="&#x39b;" horiz-adv-x="1063" 
d="M506 668h51l304 -668h192l-367 777h-309l-367 -777h191z" />
    <glyph glyph-name="Mu" unicode="&#x39c;" horiz-adv-x="1312" 
d="M656 170l-259 607h-307v-777h178v668l301 -668h174l301 668v-668h178v777h-307z" />
    <glyph glyph-name="Nu" unicode="&#x39d;" horiz-adv-x="1007" 
d="M917 777h-178v-607l-406 607h-243v-777h178v607l406 -607h243v777z" />
    <glyph glyph-name="Xi" unicode="&#x39e;" horiz-adv-x="955" 
d="M915 0v109h-348v224h291v109h-291v225h319v110h-817v-110h320v-225h-292v-109h292v-224h-349v-109h875z" />
    <glyph glyph-name="Omicron" unicode="&#x39f;" horiz-adv-x="1110" 
d="M60 389q0 -177 136 -289.5t359 -112.5t359 112.5t136 289.5t-136 289.5t-359 112.5t-359 -112.5t-136 -289.5zM245 389q0 123 78 201t232 78t232 -78t78 -201t-78 -201t-232 -78t-232 78t-78 201z" />
    <glyph glyph-name="Pi" unicode="&#x3a0;" horiz-adv-x="966" 
d="M678 0h178v667h100v110h-946v-110h100v-667h178v667h390v-667z" />
    <glyph glyph-name="Rho" unicode="&#x3a1;" horiz-adv-x="862" 
d="M90 777v-777h178v333h188q198 0 292 55t94 167t-94 167t-292 55h-366zM268 442v226h198q191 0 191 -113t-191 -113h-198z" />
    <glyph glyph-name="Sigma" unicode="&#x3a3;" horiz-adv-x="878" 
d="M818 777h-728v-144l363 -248l-363 -245v-140h728v110h-533l350 232v93l-350 232h533v110z" />
    <glyph glyph-name="Tau" unicode="&#x3a4;" horiz-adv-x="882" 
d="M10 668h342v-668h178v668h342v109h-862v-109z" />
    <glyph glyph-name="Upsilon" unicode="&#x3a5;" horiz-adv-x="982" 
d="M972 777h-217l-264 -292l-264 292h-217l392 -412v-365h178v365z" />
    <glyph glyph-name="Phi" unicode="&#x3a6;" horiz-adv-x="1170" 
d="M60 389q0 -142 115 -225.5t320 -98.5v-65h178v65q206 15 321.5 98t115.5 226t-115.5 226t-321.5 98v64h-178v-64q-205 -15 -320 -98.5t-115 -225.5zM925 389q0 -90 -63 -149.5t-189 -74.5v448q126 -15 189 -74.5t63 -149.5zM245 389q0 90 62 149t188 75v-448
q-126 16 -188 75t-62 149z" />
    <glyph glyph-name="Chi" unicode="&#x3a7;" horiz-adv-x="982" 
d="M755 0h217l-373 388l373 389h-217l-264 -276l-264 276h-217l372 -389l-372 -388h217l264 275z" />
    <glyph glyph-name="Psi" unicode="&#x3a8;" horiz-adv-x="1190" 
d="M505 777v-532q-122 16 -179.5 74.5t-57.5 149.5v308h-178v-308q0 -143 107.5 -226t307.5 -98v-145h178v145q201 15 309 97.5t108 226.5v308h-178v-308q0 -91 -58 -149.5t-181 -74.5v532h-178z" />
    <glyph glyph-name="uni03A9" unicode="&#x3a9;" horiz-adv-x="1110" 
d="M245 419q0 106 81 177.5t229 71.5t229 -71.5t81 -177.5q0 -69 -23.5 -130t-80.5 -111t-141 -69v-109h450v109h-275q124 48 189.5 132.5t65.5 187.5q0 154 -139.5 258t-355.5 104t-355.5 -104t-139.5 -258q0 -104 65.5 -190t189.5 -130h-275v-109h440v111
q-119 30 -177 115.5t-58 192.5z" />
    <glyph glyph-name="Iotadieresis" unicode="&#x3aa;" horiz-adv-x="358" 
d="M-10 869h138v150h-138v-150zM230 869h138v150h-138v-150zM90 777v-777h178v777h-178z" />
    <glyph glyph-name="Upsilondieresis" unicode="&#x3ab;" horiz-adv-x="982" 
d="M302 869h138v150h-138v-150zM542 869h138v150h-138v-150zM972 777h-217l-264 -292l-264 292h-217l392 -412v-365h178v365z" />
    <glyph glyph-name="alphatonos" unicode="&#x3ac;" horiz-adv-x="857" 
d="M671 244l100 311h-160l-48 -198q-14 93 -73 152.5t-155 59.5q-123 0 -199 -83t-76 -211q0 -138 72.5 -213t175.5 -75q97 0 174 65.5t117 191.5h4q-18 -54 -18 -122q0 -61 29 -98.5t93 -37.5q36 0 68 15.5t42 34.5l-24 138q-4 -6 -10.5 -14t-27.5 -22t-43 -14
q-51 0 -51 63q0 25 10 57zM233 274q0 87 39.5 146.5t106.5 59.5q54 0 91 -40.5t49.5 -98t5.5 -118.5q-51 -126 -156 -126q-59 0 -97.5 51t-38.5 126zM451 777l-136 -149h117l229 149h-210zM442 613z" />
    <glyph glyph-name="epsilontonos" unicode="&#x3ad;" horiz-adv-x="728" 
d="M527 227q0 -5 -1 -14t-9 -32t-22 -40t-44.5 -31.5t-72.5 -14.5q-72 0 -118 21t-46 62q0 31 32 48.5t94 17.5h107v79h-107q-57 0 -85.5 19t-28.5 45q0 35 39 54t93 19q90 0 123.5 -42.5t26.5 -103.5l159 40q1 38 -16 74t-52 68.5t-97.5 52.5t-143.5 20q-113 0 -197.5 -47
t-84.5 -113q0 -56 49.5 -86t139.5 -32q-94 -7 -149.5 -44.5t-55.5 -95.5q0 -70 80 -117.5t223 -47.5q56 0 104 11t80 28.5t58 38.5t41 42t25 38.5t13 28.5l4 11zM393 777l-136 -149h117l229 149h-210zM384 613z" />
    <glyph glyph-name="etatonos" unicode="&#x3ae;" horiz-adv-x="815" 
d="M560 -223h165v563q0 228 -260 228q-62 0 -108.5 -17.5t-69 -42.5t-36 -50t-15.5 -42l-3 -18l-47 157h-96v-555h165v336q1 5 4.5 13t16 29t29.5 37.5t47.5 29.5t67.5 13q140 0 140 -110v-571zM460 777l-136 -149h117l229 149h-210zM451 613z" />
    <glyph glyph-name="iotatonos" unicode="&#x3af;" horiz-adv-x="345" 
d="M90 0h165v555h-165v-555zM228 777l-136 -149h117l229 149h-210zM219 613z" />
    <glyph glyph-name="upsilondieresistonos" unicode="&#x3b0;" horiz-adv-x="779" 
d="M403 97q-148 0 -148 181v277h-165v-277q0 -129 79.5 -210t233.5 -81q83 0 145.5 27.5t99 76.5t54 110t17.5 135q0 105 -34 219h-160q37 -118 37 -235q0 -223 -159 -223zM361 817l-96 -189h87l189 189h-180zM105 627h138v150h-138v-150zM535 627h138v150h-138v-150z
M392 613z" />
    <glyph glyph-name="alpha" unicode="&#x3b1;" horiz-adv-x="857" 
d="M671 244l100 311h-160l-48 -198q-14 93 -73 152.5t-155 59.5q-123 0 -199 -83t-76 -211q0 -138 72.5 -213t175.5 -75q97 0 174 65.5t117 191.5h4q-18 -54 -18 -122q0 -61 29 -98.5t93 -37.5q36 0 68 15.5t42 34.5l-24 138q-4 -6 -10.5 -14t-27.5 -22t-43 -14
q-51 0 -51 63q0 25 10 57zM233 274q0 87 39.5 146.5t106.5 59.5q54 0 91 -40.5t49.5 -98t5.5 -118.5q-51 -126 -156 -126q-59 0 -97.5 51t-38.5 126z" />
    <glyph glyph-name="beta" unicode="&#x3b2;" horiz-adv-x="801" 
d="M741 230q0 88 -71 148.5t-168 67.5q75 9 124.5 50.5t49.5 103.5q0 89 -77.5 146.5t-209.5 57.5q-55 0 -106.5 -18.5t-95.5 -53t-70.5 -92.5t-26.5 -130v-733h165v346q32 -66 96.5 -101.5t129.5 -35.5q109 0 184.5 66.5t75.5 177.5zM401 692q56 0 89.5 -32.5t33.5 -79.5
q0 -41 -23 -69t-69 -28h-102v-91h97q69 0 106 -39.5t37 -99.5q0 -64 -40.5 -111t-113.5 -47q-64 0 -115 59t-51 146v207q0 97 43.5 141t107.5 44z" />
    <glyph glyph-name="gamma" unicode="&#x3b3;" horiz-adv-x="683" 
d="M243 -223h165v237q189 220 265 541h-166q-19 -116 -63.5 -230.5t-99.5 -188.5l-153 419h-181l233 -530v-248z" />
    <glyph glyph-name="delta" unicode="&#x3b4;" horiz-adv-x="793" 
d="M509 576l165 56q-1 7 -4.5 18.5t-21.5 41t-45.5 52.5t-82.5 41.5t-126 18.5q-100 0 -177.5 -44t-77.5 -107q0 -64 53 -94t195 -60q-18 2 -28 1q-124 -8 -211.5 -71.5t-87.5 -173.5t95 -189.5t238 -79.5q146 0 243 80t97 192q0 62 -24.5 109.5t-63.5 75.5t-86 48.5t-94 34
t-86 27t-63.5 33t-24.5 46.5q0 32 26 50.5t72 18.5q37 0 63 -13t37 -31.5t16 -36.5t5 -31zM393 460q77 0 121.5 -56.5t44.5 -131.5q0 -74 -43.5 -127t-122.5 -53q-75 0 -117.5 54t-42.5 128q0 75 42.5 130.5t117.5 55.5z" />
    <glyph glyph-name="epsilon" unicode="&#x3b5;" horiz-adv-x="728" 
d="M527 227q0 -5 -1 -14t-9 -32t-22 -40t-44.5 -31.5t-72.5 -14.5q-72 0 -118 21t-46 62q0 31 32 48.5t94 17.5h107v79h-107q-57 0 -85.5 19t-28.5 45q0 35 39 54t93 19q90 0 123.5 -42.5t26.5 -103.5l159 40q1 38 -16 74t-52 68.5t-97.5 52.5t-143.5 20q-113 0 -197.5 -47
t-84.5 -113q0 -56 49.5 -86t139.5 -32q-94 -7 -149.5 -44.5t-55.5 -95.5q0 -70 80 -117.5t223 -47.5q56 0 104 11t80 28.5t58 38.5t41 42t25 38.5t13 28.5l4 11z" />
    <glyph glyph-name="zeta" unicode="&#x3b6;" horiz-adv-x="663" 
d="M282 339q0 101 82 179.5t259 146.5l-10 112h-523v-110l441 20q-62 -18 -118 -41t-113 -57t-97.5 -72.5t-66.5 -90t-26 -108.5q0 -66 25.5 -117t63 -79t82 -52t82 -39.5t63 -38t25.5 -49.5q0 -66 -88 -66q-33 0 -52.5 20.5t-22.5 40.5l-2 20l-134 -56q1 -6 4 -15t18.5 -33
t37.5 -42.5t64.5 -33.5t95.5 -15q97 0 169.5 55t72.5 134q0 46 -18.5 79.5t-47.5 53t-64.5 35.5t-71 33t-64.5 38.5t-47.5 59t-18.5 88.5z" />
    <glyph glyph-name="eta" unicode="&#x3b7;" horiz-adv-x="815" 
d="M560 -223h165v563q0 228 -260 228q-62 0 -108.5 -17.5t-69 -42.5t-36 -50t-15.5 -42l-3 -18l-47 157h-96v-555h165v336q1 5 4.5 13t16 29t29.5 37.5t47.5 29.5t67.5 13q140 0 140 -110v-571z" />
    <glyph glyph-name="theta" unicode="&#x3b8;" horiz-adv-x="813" 
d="M60 389q0 -181 89 -291.5t258 -110.5q162 0 254 111.5t92 290.5q0 180 -92 291t-254 111q-163 0 -255 -111t-92 -291zM407 668q166 0 180 -235h-361q14 235 181 235zM407 110q-164 0 -180 228h359q-16 -228 -179 -228z" />
    <glyph glyph-name="iota" unicode="&#x3b9;" horiz-adv-x="345" 
d="M90 0h165v555h-165v-555z" />
    <glyph glyph-name="kappa" unicode="&#x3ba;" horiz-adv-x="708" 
d="M90 0h165v138l75 72l198 -210h210l-314 298l274 257h-200l-243 -249v249h-165v-555z" />
    <glyph glyph-name="lambda" unicode="&#x3bb;" horiz-adv-x="745" 
d="M20 0h170l172 351l106 -248q27 -62 59 -96.5t85 -34.5q88 0 143 61l-30 89q-27 -30 -51 -30q-32 0 -52 47l-228 521q-62 144 -182 144q-91 0 -170 -72l37 -95q39 49 83 49q56 0 87 -73l48 -111zM320 633z" />
    <glyph glyph-name="uni03BC" unicode="&#x3bc;" horiz-adv-x="815" 
d="M90 -223h165v243q31 -33 115 -33q50 0 90.5 17.5t62 42.5t36 50t19.5 43l4 17l47 -157h96v555h-165v-316q0 -65 -49 -103.5t-106 -38.5q-67 0 -108.5 37t-41.5 107l-1 314h-164v-778zM412 633z" />
    <glyph glyph-name="nu" unicode="&#x3bd;" horiz-adv-x="683" 
d="M507 555q-19 -116 -63.5 -230.5t-99.5 -188.5l-153 419h-181l244 -555h138q97 111 167.5 242t113.5 313h-166z" />
    <glyph glyph-name="xi" unicode="&#x3be;" horiz-adv-x="677" 
d="M275 216q0 105 146 105h137v82h-134q-67 0 -104 27.5t-37 74.5q0 60 88 100.5t250 51.5l-10 120h-521v-110l412 33q-63 -6 -125.5 -20.5t-121.5 -38.5t-95.5 -61t-36.5 -81q0 -111 168 -131q-84 -11 -138.5 -55t-54.5 -113q0 -52 28 -88.5t69.5 -52.5t90.5 -28.5
t90.5 -20t69.5 -24.5t28 -43q0 -66 -88 -66q-33 0 -52.5 20.5t-21.5 40.5l-3 20l-134 -56q1 -6 4 -15t18.5 -33t37.5 -42.5t64.5 -33.5t95.5 -15q97 0 169.5 55t72.5 134q0 57 -37.5 90.5t-90.5 45.5t-106 22.5t-90.5 35.5t-37.5 70z" />
    <glyph glyph-name="omicron" unicode="&#x3bf;" horiz-adv-x="808" 
d="M60 278q0 -126 93 -208.5t250 -82.5q159 0 252 82.5t93 208.5q0 125 -93 207.5t-252 82.5q-157 0 -250 -82.5t-93 -207.5zM233 278q0 77 40 128.5t130 51.5q89 0 130.5 -51.5t41.5 -128.5t-41.5 -129t-130.5 -52t-129.5 51.5t-40.5 129.5z" />
    <glyph glyph-name="pi" unicode="&#x3c0;" horiz-adv-x="881" 
d="M131 0h167l24 458h194v-264q0 -106 46 -156.5t140 -50.5q32 0 60 8.5t45 20.5t30 24t19 20l5 9l-32 98q-4 -8 -11 -19.5t-29 -31t-43 -19.5q-35 0 -51 26t-16 83v252h133v97h-772v-97h141z" />
    <glyph glyph-name="rho" unicode="&#x3c1;" horiz-adv-x="805" 
d="M255 99q22 -45 76.5 -78.5t121.5 -33.5q129 0 210.5 80t81.5 201q0 132 -92.5 216t-240.5 84q-136 0 -229 -79t-93 -224v-488h165v322zM404 458q85 0 126.5 -49.5t41.5 -130.5t-41.5 -131t-126.5 -50q-82 0 -123 52.5t-41 128.5t40.5 128t123.5 52z" />
    <glyph glyph-name="sigma1" unicode="&#x3c2;" horiz-adv-x="768" 
d="M60 298q0 -61 23 -107.5t60.5 -74t82 -47t89.5 -32t82.5 -24.5t60.5 -29t23 -41q0 -66 -88 -66q-33 0 -52.5 20.5t-22.5 40.5l-2 20l-134 -56q1 -6 4 -15t18.5 -33t37.5 -42.5t64.5 -33.5t95.5 -15q99 0 173 50.5t74 128.5q0 56 -31 94t-77 55.5t-100.5 36t-100.5 35.5
t-77 54t-31 91q0 64 43 107t125 43q50 0 83 -20t45.5 -49t17.5 -57.5t3 -48.5l-2 -20l160 41q0 3 0.5 9t-1 24t-5 35.5t-13.5 41.5t-24 44.5t-38 41t-54.5 35.5t-75 24t-98.5 9q-156 0 -247 -73t-91 -197z" />
    <glyph glyph-name="sigma" unicode="&#x3c3;" horiz-adv-x="779" 
d="M769 458v97h-366q-164 0 -253.5 -76t-89.5 -201q0 -126 93 -208.5t250 -82.5q148 0 234 74.5t86 176.5q0 75 -45 133.5t-121 86.5h212zM233 278q0 77 40 128.5t130 51.5q89 0 130.5 -51.5t41.5 -128.5t-41.5 -129t-130.5 -52t-129.5 51.5t-40.5 129.5z" />
    <glyph glyph-name="tau" unicode="&#x3c4;" horiz-adv-x="593" 
d="M20 458h168v-264q0 -207 196 -207q55 0 102 20.5t67 40.5l20 21l-32 108q-6 -9 -15.5 -22.5t-39 -35.5t-57.5 -22q-42 0 -60 26t-18 83v252h215v97h-546v-97z" />
    <glyph glyph-name="upsilon" unicode="&#x3c5;" horiz-adv-x="779" 
d="M403 97q-148 0 -148 181v277h-165v-277q0 -129 79.5 -210t233.5 -81q83 0 145.5 27.5t99 76.5t54 110t17.5 135q0 105 -34 219h-160q37 -118 37 -235q0 -223 -159 -223z" />
    <glyph glyph-name="phi" unicode="&#x3c6;" horiz-adv-x="997" 
d="M233 308q0 71 35 111t89 40q19 0 38 -6l-30 108q-25 6 -51 6q-100 0 -177 -73t-77 -176q0 -137 99.5 -222t255.5 -104v-215h165v215q158 19 257.5 105.5t99.5 220.5q0 113 -72 181.5t-182 68.5q-113 0 -190.5 -68.5t-77.5 -201.5v-206q-86 22 -134 82.5t-48 133.5z
M580 328q0 140 96 140q53 0 78 -43t25 -97q0 -92 -49.5 -156t-149.5 -83v239z" />
    <glyph glyph-name="chi" unicode="&#x3c7;" horiz-adv-x="789" 
d="M480 -107q37 -61 79 -96t101 -35q75 0 124 61l-43 84q-22 -35 -47 -35q-30 0 -60 47l-159 258l274 378h-162l-181 -266l-115 186q-58 94 -144 94q-36 0 -73.5 -19.5t-63.5 -55.5l46 -78q19 35 53 35q36 0 71 -58l134 -224l-281 -392h162l187 280zM296 633z" />
    <glyph glyph-name="psi" unicode="&#x3c8;" horiz-adv-x="979" 
d="M420 -223h165v214q170 19 252 113t82 232q0 105 -34 219h-160q37 -118 37 -235q0 -191 -177 -221v586h-165v-586q-87 16 -126 63.5t-39 110.5v282h-165v-277q0 -115 83 -192.5t247 -94.5v-214z" />
    <glyph glyph-name="omega" unicode="&#x3c9;" horiz-adv-x="1082" 
d="M619 400h-156v-134q0 -71 -33 -115t-82 -44q-52 0 -86 49t-34 127q0 95 46.5 141.5t135.5 35.5l-40 106q-119 17 -214.5 -73.5t-95.5 -214.5q0 -131 71 -211.5t170 -80.5q103 0 169.5 76t70.5 209q3 -137 65 -210.5t168 -73.5q101 0 174.5 81.5t73.5 209.5
q0 131 -91.5 220t-218.5 68l-40 -106q86 12 134 -31t48 -146q0 -78 -33.5 -126.5t-85.5 -48.5q-49 0 -82.5 43.5t-33.5 113.5v135z" />
    <glyph glyph-name="iotadieresis" unicode="&#x3ca;" horiz-adv-x="345" 
d="M-16 642h138v150h-138v-150zM224 642h138v150h-138v-150zM90 0h165v555h-165v-555z" />
    <glyph glyph-name="upsilondieresis" unicode="&#x3cb;" horiz-adv-x="779" 
d="M403 97q-148 0 -148 181v277h-165v-277q0 -129 79.5 -210t233.5 -81q83 0 145.5 27.5t99 76.5t54 110t17.5 135q0 105 -34 219h-160q37 -118 37 -235q0 -223 -159 -223zM195 627h138v150h-138v-150zM435 627h138v150h-138v-150zM384 613z" />
    <glyph glyph-name="omicrontonos" unicode="&#x3cc;" horiz-adv-x="808" 
d="M60 278q0 -126 93 -208.5t250 -82.5q159 0 252 82.5t93 208.5q0 125 -93 207.5t-252 82.5q-157 0 -250 -82.5t-93 -207.5zM233 278q0 77 40 128.5t130 51.5q89 0 130.5 -51.5t41.5 -128.5t-41.5 -129t-130.5 -52t-129.5 51.5t-40.5 129.5zM457 777l-136 -149h117l229 149
h-210zM448 613z" />
    <glyph glyph-name="upsilontonos" unicode="&#x3cd;" horiz-adv-x="779" 
d="M403 97q-148 0 -148 181v277h-165v-277q0 -129 79.5 -210t233.5 -81q83 0 145.5 27.5t99 76.5t54 110t17.5 135q0 105 -34 219h-160q37 -118 37 -235q0 -223 -159 -223zM452 777l-136 -149h117l229 149h-210zM443 613z" />
    <glyph glyph-name="omegatonos" unicode="&#x3ce;" horiz-adv-x="1082" 
d="M619 400h-156v-134q0 -71 -33 -115t-82 -44q-52 0 -86 49t-34 127q0 95 46.5 141.5t135.5 35.5l-40 106q-119 17 -214.5 -73.5t-95.5 -214.5q0 -131 71 -211.5t170 -80.5q103 0 169.5 76t70.5 209q3 -137 65 -210.5t168 -73.5q101 0 174.5 81.5t73.5 209.5
q0 131 -91.5 220t-218.5 68l-40 -106q86 12 134 -31t48 -146q0 -78 -33.5 -126.5t-85.5 -48.5q-49 0 -82.5 43.5t-33.5 113.5v135zM594 777l-136 -149h117l229 149h-210zM585 613z" />
    <glyph glyph-name="endash" unicode="&#x2013;" horiz-adv-x="510" 
d="M490 300h-470v-50h470v50zM252 568z" />
    <glyph glyph-name="emdash" unicode="&#x2014;" horiz-adv-x="797" 
d="M777 300h-757v-50h757v50zM232 568z" />
    <glyph glyph-name="quoteleft" unicode="&#x2018;" horiz-adv-x="288" 
d="M50 481h178v150h-101q3 27 16.5 52.5t31 42.5t34.5 30t29 19l11 6l-101 26q-4 -3 -10.5 -9t-23.5 -26t-30 -42t-23.5 -56t-10.5 -68v-125z" />
    <glyph glyph-name="quoteright" unicode="&#x2019;" horiz-adv-x="288" 
d="M238 807h-178v-150h101q-3 -27 -16.5 -52.5t-31 -42.5t-34.5 -30t-29 -19l-11 -6l101 -26q4 3 10.5 9t23.5 26t30 42t23.5 56t10.5 68v125z" />
    <glyph glyph-name="quotesinglbase" unicode="&#x201a;" horiz-adv-x="298" 
d="M238 150h-178v-150h101q-3 -27 -16.5 -52.5t-31 -42.5t-34.5 -30t-29 -19l-11 -6l101 -26q4 3 10.5 9t23.5 26t30 42t23.5 56t10.5 68v125z" />
    <glyph glyph-name="quotedblleft" unicode="&#x201c;" horiz-adv-x="588" 
d="M50 481h178v150h-101q3 27 16.5 52.5t31 42.5t34.5 30t29 19l11 6l-101 26q-4 -3 -10.5 -9t-23.5 -26t-30 -42t-23.5 -56t-10.5 -68v-125zM350 481h178v150h-101q3 27 16.5 52.5t31 42.5t34.5 30t29 19l11 6l-101 26q-4 -3 -10.5 -9t-23.5 -26t-30 -42t-23.5 -56
t-10.5 -68v-125z" />
    <glyph glyph-name="quotedblright" unicode="&#x201d;" horiz-adv-x="593" 
d="M538 807h-178v-150h101q-3 -27 -16.5 -52.5t-31 -42.5t-34.5 -30t-29 -19l-11 -6l101 -26q4 3 10.5 9t23.5 26t30 42t23.5 56t10.5 68v125zM238 807h-178v-150h101q-3 -27 -16.5 -52.5t-31 -42.5t-34.5 -30t-29 -19l-11 -6l101 -26q4 3 10.5 9t23.5 26t30 42t23.5 56
t10.5 68v125z" />
    <glyph glyph-name="quotedblbase" unicode="&#x201e;" horiz-adv-x="588" 
d="M238 150h-178v-150h101q-3 -27 -16.5 -52.5t-31 -42.5t-34.5 -30t-29 -19l-11 -6l101 -26q4 3 10.5 9t23.5 26t30 42t23.5 56t10.5 68v125zM538 150h-178v-150h101q-3 -27 -16.5 -52.5t-31 -42.5t-34.5 -30t-29 -19l-11 -6l101 -26q4 3 10.5 9t23.5 26t30 42t23.5 56
t10.5 68v125z" />
    <glyph glyph-name="dagger" unicode="&#x2020;" horiz-adv-x="525" 
d="M505 458v96h-160l-15 222h-135l-15 -222h-160v-96h160v-681h165v681h160z" />
    <glyph glyph-name="daggerdbl" unicode="&#x2021;" horiz-adv-x="525" 
d="M20 0h160l15 -223h135l15 223h160v97h-160v361h160v96h-160l-15 222h-135l-15 -222h-160v-96h160v-361h-160v-97z" />
    <glyph glyph-name="bullet" unicode="&#x2022;" horiz-adv-x="646" 
d="M604 434l-191 189q-43 16 -86 16l290 -291q-2 51 -13 86zM616 332l-304 304q-28 2 -55 -4l353 -355q6 21 6 55zM604 260l-366 366q-6 -1 -41 -16l391 -392q4 7 9 22t7 20zM530 552q-47 49 -105 69l176 -176q-18 54 -71 107zM578 199l-402 402l-29 -22l409 -410
q17 17 22 30zM532 137l11 10l-416 417l-10 -12l-12 -10l417 -416zM494 107l-409 410l-13 -18l405 -404q9 4 17 12zM45 442l376 -374l18 9l-384 385zM373 55l-340 341l-1 -17l326 -328zM33 298l244 -245l12 -2l-259 258zM114 136l19 -16l-40 39q10 -15 21 -23z" />
    <glyph glyph-name="ellipsis" unicode="&#x2026;" horiz-adv-x="894" 
d="M60 0h178v150h-178v-150zM358 0h178v140h-178v-140zM656 0h178v130h-178v-130z" />
    <glyph glyph-name="perthousand" unicode="&#x2030;" horiz-adv-x="1285" 
d="M20 590q0 -90 59.5 -145.5t151.5 -55.5t151.5 55.5t59.5 145.5t-59.5 146t-151.5 56t-151.5 -56t-59.5 -146zM644 784l-411 -764l46 -23l413 763zM81 590q0 68 39 111t111 43t111 -43t39 -111t-39 -111t-111 -43t-111 43t-39 111zM482 190q0 -90 59.5 -145.5t151.5 -55.5
q59 0 106 23.5t74 66.5q58 -90 181 -90q92 0 151.5 55.5t59.5 145.5t-59.5 146t-151.5 56q-121 0 -181 -92q-27 43 -74.5 67.5t-105.5 24.5q-92 0 -151.5 -56t-59.5 -146zM543 190q0 68 39 111t111 43q70 0 109 -41t41 -107v-6q0 -68 -39 -111t-111 -43t-111 43t-39 111z
M904 190q0 68 39 111t111 43t111 -43t39 -111t-39 -111t-111 -43t-111 43t-39 111z" />
    <glyph glyph-name="guilsinglleft" unicode="&#x2039;" horiz-adv-x="359" 
d="M30 277l201 -219h128l-151 219l151 219h-128z" />
    <glyph glyph-name="guilsinglright" unicode="&#x203a;" horiz-adv-x="359" 
d="M128 496h-128l151 -219l-151 -219h128l201 219z" />
    <glyph glyph-name="fraction" unicode="&#x2044;" horiz-adv-x="459" 
d="M411 703l-411 -764l46 -23l413 763z" />
    <glyph glyph-name="Euro" unicode="&#x20ac;" 
d="M520 332h-268q-3 27 -3 56q0 18 2 54h289v50h-281q17 81 64.5 128.5t129.5 47.5q57 0 97 -23.5t56 -56.5t24 -66t7 -56l-1 -24l182 50q0 6 -0.5 17t-6.5 42t-17.5 59t-38.5 62.5t-64.5 59.5t-99 42t-138.5 17q-154 0 -252.5 -81t-127.5 -218h-53v-50h45q-2 -36 -2 -54
q0 -29 3 -56h-66v-50h74q31 -135 133.5 -215t256.5 -80q74 0 135 16.5t99 42.5t66 58t41.5 64t21.5 58t9 42l1 17l-184 48q0 -5 0.5 -13t-1.5 -31t-7.5 -44t-18.5 -47t-32.5 -44.5t-53 -31t-76.5 -12.5q-82 0 -132.5 46t-70.5 126h259v50zM543 855zM543 -9z" />
    <glyph glyph-name="Omega" unicode="&#x2126;" horiz-adv-x="1110" 
d="M245 409q0 109 79 184t231 75t231 -75t79 -184q0 -107 -60.5 -189.5t-184.5 -110.5v-109h450v109h-265q123 51 184 132.5t61 177.5q0 157 -137.5 264.5t-357.5 107.5t-357.5 -107.5t-137.5 -264.5q0 -96 61 -177.5t184 -132.5h-265v-109h440v111q-119 30 -177 111.5
t-58 186.5z" />
    <glyph glyph-name="Delta" unicode="&#x2206;" horiz-adv-x="1063" 
d="M686 777h-309l-367 -777h1043zM506 668h51l254 -558h-560z" />
    <glyph glyph-name="minus" unicode="&#x2212;" horiz-adv-x="650" 
d="M630 300h-610v-50h610v50zM322 568z" />
    <glyph glyph-name="f_f" unicode="&#xfb00;" horiz-adv-x="928" 
d="M0 555v-97h128v-458h165v458h199v-458h165v458h202v97h-212q-16 14 -16 39q0 35 27 63.5t95 28.5q43 0 74 -13t45.5 -32t23 -38t9.5 -32l1 -13l172 44q-1 4 -3.5 11t-13.5 26.5t-25.5 37.5t-42 39.5t-60 37t-82 26.5t-106.5 11q-103 0 -177 -37q-81 37 -187 37
q-126 0 -198.5 -49.5t-72.5 -113.5q0 -23 10.5 -41.5t17 -24t11.5 -7.5h-149zM283 555q-16 14 -16 39q0 35 27 63.5t95 28.5q54 0 91 -22q-6 -18 -6 -36q0 -23 10.5 -41.5t17 -24t11.5 -7.5h-230z" />
    <glyph glyph-name="f_i" unicode="&#xfb01;" horiz-adv-x="764" 
d="M10 555v-97h128v-458h165v458h199v-458h165v555h-374q-16 14 -16 39q0 35 27 63.5t95 28.5q43 0 74 -13t45.5 -32t23 -38t9.5 -32l1 -13l172 44q-1 4 -3.5 11t-13.5 26.5t-25.5 37.5t-42 39.5t-60 37t-82 26.5t-106.5 11q-126 0 -198.5 -49.5t-72.5 -113.5
q0 -23 10.5 -41.5t17 -24t11.5 -7.5h-149z" />
    <glyph glyph-name="f_l" unicode="&#xfb02;" horiz-adv-x="748" 
d="M0 555v-97h128v-458h165v458h200v-458h165v791q-84 -14 -165 -14v-6q-47 20 -112 20q-126 0 -198.5 -49.5t-72.5 -113.5q0 -23 10.5 -41.5t17 -24t11.5 -7.5h-149zM267 594q0 35 27 63.5t95 28.5q66 0 104 -31v-100h-210q-16 14 -16 39z" />
    <glyph glyph-name="B.alt" horiz-adv-x="1053" 
d="M617 110l-617 14v-124h607q386 0 386 227q0 42 -16 75t-36.5 50.5t-47 30t-40 16t-22.5 4.5q8 1 20 4.5t35 14.5t41 27t32 45t14 66q0 111 -93.5 164t-292.5 53h-366v-607h178v176h227q84 0 133 -30.5t49 -87.5q0 -59 -52 -89.5t-139 -28.5zM597 452h-198v216h198
q191 0 191 -108t-191 -108z" />
    <glyph glyph-name="CR" horiz-adv-x="434" 
 />
    <glyph glyph-name="NULL" horiz-adv-x="0" 
 />
    <glyph glyph-name="O.alt" horiz-adv-x="1079" 
d="M388 -1q75 -12 134 -12q97 0 185 25t158.5 73t112 126.5t41.5 176.5q0 177 -136 289.5t-359 112.5q-214 0 -339 -98t-125 -249q0 -132 98.5 -211t256.5 -79q75 0 134.5 16.5t95 43.5t61 59t36 64t16 59t5.5 43v17l-184 49q0 -5 0.5 -13t-0.5 -32t-5.5 -45.5t-16.5 -47.5
t-29.5 -45t-48.5 -32t-71 -13q-78 0 -120 46t-42 115q0 95 73.5 163t204.5 68q153 0 231.5 -78.5t78.5 -201.5q0 -122 -78.5 -200t-233.5 -78q-35 0 -68.5 5t-49.5 11l-16 5v-132z" />
    <glyph glyph-name="Pi.ss01" horiz-adv-x="1006" 
d="M738 0h178v777h-826v-777h178v667h470v-667z" />
    <glyph glyph-name="Q.alt" horiz-adv-x="1087" 
d="M378 0l611 -266l42 140l-456 139q65 0 126.5 12.5t119.5 41.5t101.5 71t70 106.5t26.5 143.5q0 177 -136 289.5t-359 112.5q-214 0 -339 -98t-125 -249q0 -132 98.5 -211t256.5 -79q75 0 134.5 16.5t95 43.5t61 59t36 64t16 59t5.5 43v17l-184 49q0 -5 0.5 -13t-0.5 -32
t-5.5 -45.5t-16.5 -47.5t-29.5 -45t-48.5 -32t-71 -13q-78 0 -120 46t-42 115q0 95 73.5 163t204.5 68q153 0 231.5 -78.5t78.5 -201.5q0 -122 -78.5 -200t-233.5 -78q-35 0 -71 5t-55 9l-18 5v-129z" />
    <glyph glyph-name="S.alt" horiz-adv-x="921" 
d="M137 460l277 -89q129 -41 173 -66q89 -51 89 -140q0 -39 -20.5 -67.5t-57 -43t-76 -20.5t-86.5 -6q-48 0 -87.5 8.5t-71 35t-31.5 67.5q0 43 33.5 67t91 18t119.5 -44l-44 143q-71 31 -140 28t-124 -27.5t-88.5 -70.5t-33.5 -100q0 -79 54.5 -136.5t138 -84t183.5 -26.5
q80 0 152 14.5t135 44.5t100.5 85t37.5 128q0 47 -16 86t-42.5 67.5t-69 53t-86.5 41.5t-103.5 33t-112.5 27t-121 25q-24 5 -36 7l510 133l-42 140l-605 -232v-99z" />
    <glyph glyph-name="acute.case" horiz-adv-x="727" 
d="M610 777l-136 -144h117l229 144h-210zM601 613z" />
    <glyph glyph-name="alpha.ss01" horiz-adv-x="830" 
d="M549 467l-5.5 11t-19 24.5t-36 30.5t-57 24t-79.5 11q-127 0 -209.5 -82t-82.5 -209t82.5 -208.5t210.5 -81.5q49 0 90 14.5t64.5 32.5t41.5 41t23.5 34t7.5 17q1 -72 34.5 -106t90.5 -34q35 0 66 15t45 30l14 15l-34 89q-16 -25 -35 -35t-32.5 0t-13.5 38v417h-166v-88z
M405 97q-85 0 -128.5 50t-43.5 130t43.5 130.5t128.5 50.5t128 -52.5t43 -128.5t-43 -128t-128 -52z" />
    <glyph glyph-name="alphatonos.ss01" horiz-adv-x="830" 
d="M549 467l-5.5 11t-19 24.5t-36 30.5t-57 24t-79.5 11q-127 0 -209.5 -82t-82.5 -209t82.5 -208.5t210.5 -81.5q49 0 90 14.5t64.5 32.5t41.5 41t23.5 34t7.5 17q1 -72 34.5 -106t90.5 -34q35 0 66 15t45 30l14 15l-34 89q-16 -25 -35 -35t-32.5 0t-13.5 38v417h-166v-88z
M405 97q-85 0 -128.5 50t-43.5 130t43.5 130.5t128.5 50.5t128 -52.5t43 -128.5t-43 -128t-128 -52zM438 777l-136 -149h117l229 149h-210zM429 613z" />
    <glyph glyph-name="circumflex.case" horiz-adv-x="1204" 
d="M526 777l-186 -144h97l164 62l164 -62h97l-186 144h-150zM601 613z" />
    <glyph glyph-name="dieresis.case" horiz-adv-x="358" 
d="M-10 627h138v150h-138v-150zM230 627h138v150h-138v-150zM179 613z" />
    <glyph glyph-name="eight.alt" horiz-adv-x="1064" 
d="M60 311q0 -199 136.5 -335.5t335.5 -136.5t335.5 136.5t136.5 335.5t-136.5 335.5t-335.5 136.5t-335.5 -136.5t-136.5 -335.5zM116 310q0 173 121.5 294.5t294.5 121.5t294.5 -121.5t121.5 -294.5t-121.5 -294.5t-294.5 -121.5t-294.5 121.5t-121.5 294.5zM769 444
q0 69 -68.5 113t-169.5 44t-169.5 -44t-68.5 -113q0 -28 12.5 -50.5t28.5 -34.5t36.5 -21t30 -11.5t15.5 -3.5q-13 -3 -21 -5t-34 -13.5t-43 -25t-31.5 -38.5t-14.5 -56q0 -81 74 -122.5t185 -41.5t185 41.5t74 122.5q0 33 -16.5 58.5t-34 37.5t-47 21t-36.5 9.5t-21 2.5
q8 1 19 4t33 13t39 23t30 37t13 53zM392 444q0 36 35 60.5t104 24.5t104 -24.5t35 -60.5q0 -90 -139 -90q-20 0 -40 3t-44.5 11.5t-39.5 28t-15 47.5zM692 185q0 -48 -45 -70.5t-116 -22.5q-72 0 -116.5 22.5t-44.5 70.5q0 102 161 102q21 0 43 -3.5t51.5 -12.5t48 -31.5
t18.5 -54.5z" />
    <glyph glyph-name="eight.susp_prop" 
d="M796 582q0 93 -101 151t-255 58q-153 0 -254.5 -64.5t-101.5 -164.5q0 -47 22.5 -82.5t56.5 -54t53.5 -25.5t33.5 -10q-12 -2 -26.5 -5t-47.5 -16.5t-57.5 -32t-44.5 -53t-20 -77.5q0 -100 108 -159.5t278 -59.5q169 0 277.5 66t108.5 173q0 42 -20.5 76t-46.5 52.5
t-58.5 32t-48 17t-23.5 4.5q6 1 21 5.5t41 17.5t48.5 31t39.5 50t17 70zM260 562q0 53 49 84.5t131 31.5t131.5 -31.5t49.5 -84.5t-49.5 -84.5t-131.5 -31.5t-131 31.5t-49 84.5zM650 226q0 -55 -54.5 -90.5t-155.5 -35.5t-156 35.5t-55 90.5t55 90.5t156 35.5t155.5 -35.5
t54.5 -90.5z" />
    <glyph glyph-name="five.alt" horiz-adv-x="1064" 
d="M60 311q0 -199 136.5 -335.5t335.5 -136.5t335.5 136.5t136.5 335.5t-136.5 335.5t-335.5 136.5t-335.5 -136.5t-136.5 -335.5zM116 310q0 173 121.5 294.5t294.5 121.5t294.5 -121.5t121.5 -294.5t-121.5 -294.5t-294.5 -121.5t-294.5 121.5t-121.5 294.5zM771 215
q0 84 -60.5 138.5t-143.5 54.5q-33 0 -60.5 -7.5t-44 -18t-28 -21.5t-16.5 -19l-4 -7l34 194h297v61h-377l-52 -288h96q4 4 11.5 9.5t38 15t68.5 9.5q65 0 103.5 -33.5t38.5 -87.5q0 -55 -38.5 -89t-103.5 -34q-48 0 -82 15.5t-48.5 37.5t-22 44.5t-7.5 38.5v15l-96 -28
q0 -8 2 -21t17 -46.5t39 -59t76 -46.5t122 -21q110 0 175.5 51.5t65.5 142.5z" />
    <glyph glyph-name="five.susp_prop" 
d="M820 40q0 125 -92.5 199t-224.5 74q-63 0 -116 -16t-75 -32l-22 -16l45 209h448v97h-586l-83 -419h173q2 3 6.5 7t20.5 15t33.5 19.5t45.5 15.5t58 7q94 0 144 -47t50 -114q0 -68 -50 -114.5t-144 -46.5q-47 0 -83.5 11.5t-58 29t-36.5 39.5t-21 44t-8.5 39.5t-1.5 28.5
v12l-186 -48q0 -6 1.5 -15.5t10 -37.5t23 -53.5t44.5 -56.5t70 -53t104 -37.5t142 -15.5q168 0 268.5 73t100.5 202z" />
    <glyph glyph-name="four.alt" horiz-adv-x="1064" 
d="M60 311q0 -199 136.5 -335.5t335.5 -136.5t335.5 136.5t136.5 335.5t-136.5 335.5t-335.5 136.5t-335.5 -136.5t-136.5 -335.5zM116 310q0 173 121.5 294.5t294.5 121.5t294.5 -121.5t121.5 -294.5t-121.5 -294.5t-294.5 -121.5t-294.5 121.5t-121.5 294.5zM229 166h334
v-135h93v135h113v62h-113v362h-123l-304 -334v-90zM563 522v-294h-261z" />
    <glyph glyph-name="four.susp_prop" 
d="M20 0h485v-223h168v223h174v97h-174v458h-200l-453 -422v-133zM505 416v-319h-345z" />
    <glyph glyph-name="grave.case" horiz-adv-x="727" 
d="M334 776l229 -143h117l-136 143h-210zM601 613z" />
    <glyph glyph-name="nine.alt" horiz-adv-x="1064" 
d="M60 311q0 -199 136.5 -335.5t335.5 -136.5t335.5 136.5t136.5 335.5t-136.5 335.5t-335.5 136.5t-335.5 -136.5t-136.5 -335.5zM116 310q0 173 121.5 294.5t294.5 121.5t294.5 -121.5t121.5 -294.5t-121.5 -294.5t-294.5 -121.5t-294.5 121.5t-121.5 294.5zM494 230
q81 0 129.5 33t63.5 84q2 -24 2 -37q0 -97 -41.5 -157.5t-118.5 -60.5q-33 0 -58 12t-37.5 29.5t-20.5 35t-10 29.5l-2 12l-96 -29q1 -7 4.5 -17.5t20 -38t39 -48.5t65 -38.5t95.5 -17.5q120 0 189.5 80.5t69.5 208.5q0 130 -68.5 210.5t-188.5 80.5q-101 0 -167 -52.5
t-66 -133.5q0 -91 58 -138t138 -47zM531 529q110 0 145 -120q-12 -46 -50.5 -76.5t-94.5 -30.5q-66 0 -100 31t-34 82t34 82.5t100 31.5z" />
    <glyph glyph-name="nine.susp_prop" 
d="M407 -126q-44 0 -77.5 14t-50.5 33.5t-27 39t-12 33.5l-3 14l-184 -50q2 -8 7 -21t29 -46.5t58.5 -59t101.5 -46.5t151 -21q200 0 310 111t110 291t-101.5 291t-285.5 111q-157 0 -261.5 -79t-104.5 -202q0 -82 42.5 -142t106 -87t137.5 -27q61 0 113.5 16t84 38.5t54 45
t31.5 38.5l9 16q5 -133 -60 -222t-178 -89zM626 306q-1 -7 -4 -18t-17.5 -39.5t-35 -50t-61.5 -39.5t-93 -18q-79 0 -125.5 46t-46.5 119q0 64 54 108t137 44q43 0 78.5 -15.5t55.5 -38t34 -45t19 -37.5z" />
    <glyph glyph-name="one.alt" horiz-adv-x="1064" 
d="M60 311q0 -199 136.5 -335.5t335.5 -136.5t335.5 136.5t136.5 335.5t-136.5 335.5t-335.5 136.5t-335.5 -136.5t-136.5 -335.5zM116 310q0 173 121.5 294.5t294.5 121.5t294.5 -121.5t121.5 -294.5t-121.5 -294.5t-294.5 -121.5t-294.5 121.5t-121.5 294.5zM773 31v61
h-151v498h-94q0 -79 -52 -110.5t-164 -31.5v-71q86 0 133 15.5t64.5 45t18.5 83.5v-429h-216v-61h461z" />
    <glyph glyph-name="one.susp_prop" horiz-adv-x="601" 
d="M525 0v555h-165q0 -105 -75.5 -146.5t-237.5 -41.5v-137q81 0 142.5 14t92 31.5t50 41.5t23.5 36t5 23v-376h165z" />
    <glyph glyph-name="ring.case" horiz-adv-x="1204" 
d="M482 729q0 -45 34 -77t85 -32q52 0 86.5 32t34.5 77q0 49 -33.5 80t-87.5 31q-52 0 -85.5 -32.5t-33.5 -78.5zM558 730q0 20 13 32t31 12t31 -13t13 -31q0 -19 -13 -31.5t-31 -12.5t-31 12t-13 32zM601 613z" />
    <glyph glyph-name="seven.alt" horiz-adv-x="1064" 
d="M60 311q0 -199 136.5 -335.5t335.5 -136.5t335.5 136.5t136.5 335.5t-136.5 335.5t-335.5 136.5t-335.5 -136.5t-136.5 -335.5zM116 310q0 173 121.5 294.5t294.5 121.5t294.5 -121.5t121.5 -294.5t-121.5 -294.5t-294.5 -121.5t-294.5 121.5t-121.5 294.5zM807 590h-532
v-61h456q-8 -1 -19 -4t-41 -16.5t-57.5 -33.5t-65 -59t-68.5 -88.5t-61.5 -126.5t-50.5 -170h101q22 94 52 171.5t61.5 126t64 84.5t61 53.5t51 27.5t35.5 12l13 2v82z" />
    <glyph glyph-name="seven.susp_prop" 
d="M848 555h-816v-96h628q-11 -3 -27.5 -9t-57 -29t-78 -53t-82.5 -85t-79 -122t-60.5 -167t-32.5 -216h178q3 113 28 209.5t63 161t83 116t89.5 80.5t81 48.5t59.5 26.5l23 6v129z" />
    <glyph glyph-name="six.alt" horiz-adv-x="1064" 
d="M60 311q0 -199 136.5 -335.5t335.5 -136.5t335.5 136.5t136.5 335.5t-136.5 335.5t-335.5 136.5t-335.5 -136.5t-136.5 -335.5zM116 310q0 173 121.5 294.5t294.5 121.5t294.5 -121.5t121.5 -294.5t-121.5 -294.5t-294.5 -121.5t-294.5 121.5t-121.5 294.5zM569 391
q-73 0 -125.5 -30.5t-68.5 -87.5q-1 12 -1 38q0 97 41.5 157.5t118.5 60.5q33 0 58 -12t37.5 -29t20.5 -34.5t10 -29.5l2 -12l96 29q-1 7 -4.5 17.5t-20 38t-39 48.5t-65 38.5t-95.5 17.5q-120 0 -189.5 -80.5t-69.5 -209.5t68.5 -209.5t188.5 -80.5q101 0 167 52t66 133
q0 91 -57.5 138t-138.5 47zM532 92q-111 0 -146 120q12 48 51 78t95 30q66 0 100 -31.5t34 -82.5t-34 -82.5t-100 -31.5z" />
    <glyph glyph-name="six.susp_prop" 
d="M473 677q44 0 77.5 -13.5t50.5 -32.5t27 -38.5t12 -32.5l3 -14l184 50q-2 8 -7 21t-29 46.5t-58.5 59t-101.5 46.5t-151 21q-200 0 -310 -111t-110 -291t101.5 -291t285.5 -111q157 0 261.5 79t104.5 202q0 82 -42.5 142t-106 87t-137.5 27q-61 0 -113.5 -16t-84 -38.5
t-54 -45t-31.5 -38.5l-9 -16q-5 135 57 221.5t181 86.5zM254 248q1 6 4 16.5t17.5 36.5t35 46t61.5 36.5t93 16.5q80 0 126 -40.5t46 -111.5q0 -64 -54 -106.5t-137 -42.5q-43 0 -78.5 15.5t-55.5 37.5t-34 43.5t-19 36.5z" />
    <glyph glyph-name="three.alt" horiz-adv-x="1064" 
d="M60 311q0 -199 136.5 -335.5t335.5 -136.5t335.5 136.5t136.5 335.5t-136.5 335.5t-335.5 136.5t-335.5 -136.5t-136.5 -335.5zM116 310q0 173 121.5 294.5t294.5 121.5t294.5 -121.5t121.5 -294.5t-121.5 -294.5t-294.5 -121.5t-294.5 121.5t-121.5 294.5zM516 287
q155 0 155 -96q0 -48 -37.5 -73.5t-103.5 -25.5q-48 0 -82 15.5t-48.5 37.5t-22.5 44.5t-8 38.5v15l-96 -28q0 -8 2 -21t17 -46.5t39.5 -59t77 -46.5t123.5 -21q102 0 170 43t68 126q0 36 -14 63t-32.5 41t-43.5 23t-39.5 11t-28.5 3q16 1 35.5 5t46 15.5t44 38t17.5 64.5
q0 62 -59.5 104.5t-154.5 42.5q-61 0 -108 -18t-70.5 -43.5t-38 -51.5t-18.5 -44l-3 -18l96 -29v14t6.5 32t19 40t42 31.5t70.5 14.5q54 0 87 -24.5t33 -63.5q0 -43 -38.5 -67.5t-102.5 -24.5h-36v-62h36z" />
    <glyph glyph-name="three.susp_prop" 
d="M452 123q184 0 184 -116q0 -54 -48 -87t-125 -33q-49 0 -87 12t-60.5 30.5t-38.5 41.5t-22.5 46t-9.5 41.5t-3 30.5l1 12l-186 -48q0 -6 1.5 -16.5t10.5 -40.5t23 -57t44.5 -60.5t71 -57.5t105 -40.5t143.5 -16.5q157 0 260.5 61.5t103.5 180.5q0 41 -17.5 73.5t-39 50
t-51 30t-41.5 15.5t-23 5q14 3 31 9.5t48.5 24t52 51.5t20.5 79q0 97 -91.5 160.5t-240.5 63.5q-54 0 -100.5 -9t-81 -24t-63 -35t-47.5 -41.5t-33.5 -43.5t-22.5 -42t-13.5 -35t-6.5 -24l-2 -9l187 -51q2 1 0 11t2 27t8 37t18.5 40.5t34 37.5t53 27.5t75.5 10.5
q60 0 99.5 -30t39.5 -79q0 -107 -183 -107h-74v-106h94z" />
    <glyph glyph-name="tilde.case" horiz-adv-x="1204" 
d="M692 725q-31 0 -81.5 33t-95.5 33q-41 0 -70 -27t-37 -54l-9 -27l40 -56q2 7 5.5 18t22 29.5t44.5 18.5q33 0 82.5 -33t95.5 -33q41 0 70 27t37 54l9 27l-40 56q-1 -3 -2 -7.5t-6.5 -15.5t-13 -20t-21 -16t-30.5 -7zM601 613z" />
    <glyph glyph-name="two.alt" horiz-adv-x="1064" 
d="M60 311q0 -199 136.5 -335.5t335.5 -136.5t335.5 136.5t136.5 335.5t-136.5 335.5t-335.5 136.5t-335.5 -136.5t-136.5 -335.5zM116 310q0 173 121.5 294.5t294.5 121.5t294.5 -121.5t121.5 -294.5t-121.5 -294.5t-294.5 -121.5t-294.5 121.5t-121.5 294.5zM748 416
q0 81 -58.5 132.5t-166.5 51.5q-105 0 -163.5 -55.5t-58.5 -126.5q0 -42 17.5 -79t34.5 -53l17 -16l96 28q-8 5 -19 14t-30 39t-19 63q0 50 30.5 82t92.5 32q64 0 96 -32t32 -83q0 -37 -19.5 -75.5t-50.5 -70t-68 -60.5t-74.5 -51t-68.5 -38.5t-50 -25.5l-20 -8v-54h461v61
h-317q11 7 50.5 30t66.5 39.5t66 47.5t63 59.5t42 68t18 80.5z" />
    <glyph glyph-name="two.susp_prop" 
d="M760 341q0 99 -87 163t-241 64q-153 0 -237.5 -64t-84.5 -160q0 -35 12.5 -65.5t30.5 -49t36 -32t31 -19.5l12 -5l188 51l-15 2.5t-32.5 10.5t-41.5 21t-33 34.5t-15 51.5q0 51 39 82.5t107 31.5q76 0 116 -35.5t40 -85.5q0 -59 -51.5 -104.5t-125 -69.5t-147 -39.5
t-125.5 -19.5l-51 -4v-100h710v97h-362q12 1 28 3.5t49.5 10.5t64 18.5t65.5 30t60.5 43.5t42.5 60t17 78z" />
    <glyph glyph-name="zero.alt" horiz-adv-x="1064" 
d="M60 311q0 -199 136.5 -335.5t335.5 -136.5t335.5 136.5t136.5 335.5t-136.5 335.5t-335.5 136.5t-335.5 -136.5t-136.5 -335.5zM116 310q0 173 121.5 294.5t294.5 121.5t294.5 -121.5t121.5 -294.5t-121.5 -294.5t-294.5 -121.5t-294.5 121.5t-121.5 294.5zM777 311
q0 131 -63 210.5t-182 79.5t-182 -79.5t-63 -210.5t63 -210.5t182 -79.5t182 79.5t63 210.5zM678 311q0 -100 -35 -159.5t-111 -59.5t-111 59.5t-35 159.5t35 159t111 59t111 -59t35 -159z" />
    <glyph glyph-name="zero.susp_prop" horiz-adv-x="800" 
d="M60 277q0 -124 93 -207.5t247 -83.5t247 83.5t93 207.5t-93 208t-247 84t-247 -84t-93 -208zM151 277q0 99 67 166.5t182 67.5t182 -67.5t67 -166.5t-67 -166.5t-182 -67.5t-182 67.5t-67 166.5z" />
    </font>
</defs>
</svg>
