<?xml version="1.0" standalone="no"?>
<!DOCTYPE svg PUBLIC "-//W3C//DTD SVG 1.1//EN" "http://www.w3.org/Graphics/SVG/1.1/DTD/svg11.dtd" >
<svg xmlns="http://www.w3.org/2000/svg" xmlns:xlink="http://www.w3.org/1999/xlink" version="1.1">
<metadata>
Created by FontForge 20170731 at Fri Apr  6 13:10:43 2018
 By Aleksey,,,
Copyright (c) 2016 by Lucas LE BIHAN. All rights reserved. Greek characters added by George Triantafyllakos (atypical.gr | backpacker.gr)
Polish diacritics added by Maciej Poczyn'ski
</metadata>
<defs>
<font id="SportingGrotesque-Regular" horiz-adv-x="800" >
  <font-face 
    font-family="Sporting Grotesque"
    font-weight="400"
    font-stretch="normal"
    units-per-em="1000"
    panose-1="0 0 0 0 0 0 0 0 0 0"
    ascent="777"
    descent="-223"
    x-height="555"
    cap-height="777"
    bbox="-90 -571 1309 1069"
    underline-thickness="72"
    underline-position="-253"
    unicode-range="U+000D-FB02"
  />
<missing-glyph horiz-adv-x="434" 
 />
    <glyph glyph-name="f_f" unicode="ff" horiz-adv-x="844" 
d="M678 712q-52 0 -82 -23t-30 -63q0 -20 7.5 -37.5t14.5 -25.5l8 -8h204v-75h-198v-480h-120v480h-228v-480h-120v480h-124v75h160l-7.5 2.5t-16.5 9t-21 17t-16.5 26t-7.5 36.5q0 56 51 100.5t146 44.5q116 0 172 -79q53 79 204 79q66 0 120 -17t84.5 -41.5t51 -48.5
t27.5 -41l7 -17l-124 -36q-1 5 -4 13t-15 29t-28 37.5t-46.5 29.5t-68.5 13zM322 712q-47 0 -75.5 -22.5t-28.5 -61.5q0 -20 7.5 -38t14.5 -26l8 -9h270l-7.5 2.5t-16.5 9t-21 17t-16.5 26t-7.5 36.5v2q-44 64 -127 64z" />
    <glyph glyph-name="f_i" unicode="fi" horiz-adv-x="706" 
d="M482 0v480h-228v-480h-120v480h-124v75h160l-7.5 2.5t-16.5 9t-21 17t-16.5 26t-7.5 36.5q0 57 55.5 101t169.5 44q66 0 120 -17t84.5 -41.5t51 -48.5t27.5 -41l7 -17l-124 -36q-1 5 -4 13t-15 29t-28 37.5t-46.5 29.5t-68.5 13q-52 0 -82 -23t-30 -63q0 -20 7.5 -37.5
t14.5 -25.5l8 -8h354v-555h-120z" />
    <glyph glyph-name="f_l" unicode="fl" horiz-adv-x="692" 
d="M482 0v480h-228v-480h-120v480h-124v75h159q-4 1 -8.5 3t-16.5 9.5t-20.5 17t-15.5 26t-7 35.5q0 56 51 100.5t146 44.5q40 0 73.5 -10t53 -24.5t33.5 -29.5t19 -25l5 -10v74q28 0 58 3t46 5l16 3v-777h-120zM248 555h234q0 6 -1.5 17t-11.5 38t-25.5 47.5t-47.5 37.5
t-74 17q-47 0 -75.5 -22.5t-28.5 -61.5q0 -20 7.5 -38t14.5 -26z" />
    <glyph glyph-name=".notdef" horiz-adv-x="434" 
 />
    <glyph glyph-name=".null" horiz-adv-x="0" 
 />
    <glyph glyph-name="nonmarkingreturn" horiz-adv-x="333" 
 />
    <glyph glyph-name="NULL" horiz-adv-x="0" 
 />
    <glyph glyph-name="NULL" horiz-adv-x="0" 
 />
    <glyph glyph-name="CR" unicode="&#xd;" horiz-adv-x="434" 
 />
    <glyph glyph-name="space" unicode=" " horiz-adv-x="434" 
 />
    <glyph glyph-name="exclam" unicode="!" horiz-adv-x="290" 
d="M80 777h130l-10 -537h-110zM80 0v145h130v-145h-130z" />
    <glyph glyph-name="quotedbl" unicode="&#x22;" horiz-adv-x="440" 
d="M90 480v297h80v-297h-80zM270 480v297h80v-297h-80z" />
    <glyph glyph-name="numbersign" unicode="#" horiz-adv-x="650" 
d="M557 283v-50h-122l-51 -233h-54l51 233h-178l-51 -233h-55l51 233h-108v50h119l32 150h-100v50h111l51 232h56l-51 -232h177l51 232h56l-51 -232h119v-50h-130l-33 -150h110zM214 283h178l32 150h-177z" />
    <glyph glyph-name="dollar" unicode="$" 
d="M421 -223h-43v211q-92 7 -161.5 37t-107 72t-56 83.5t-20.5 82.5l134 39q0 -4 -0.5 -11t2 -27t8.5 -38.5t21 -42.5t36.5 -42t59 -33t84.5 -20v256l-111 26q-98 23 -148 75t-50 123q0 95 78.5 159t230.5 64v221h43v-222q62 -3 112 -18t81.5 -35.5t55 -44.5t34.5 -47.5
t17.5 -42.5t7.5 -31l1 -12l-134 -36v16t-8 36t-24 47.5t-53.5 41.5t-89.5 26v-232l118 -26q228 -51 228 -224q0 -106 -93 -164t-240 -58h-13v-209zM341 476l37 -8v224h-2q-78 0 -125 -31t-47 -81q0 -42 34 -65.5t103 -38.5zM456 326l-35 8v-249h10q92 0 146.5 33.5
t54.5 83.5q0 52 -40 76.5t-136 47.5z" />
    <glyph glyph-name="percent" unicode="%" horiz-adv-x="924" 
d="M20 590q0 90 59.5 146t151.5 56t151.5 -56t59.5 -146t-59.5 -145.5t-151.5 -55.5t-151.5 55.5t-59.5 145.5zM644 784l48 -24l-413 -763l-46 23zM81 590q0 -68 39 -111t111 -43t111 43t39 111t-39 111t-111 43t-111 -43t-39 -111zM482 190q0 90 59.5 146t151.5 56
t151.5 -56t59.5 -146t-59.5 -145.5t-151.5 -55.5t-151.5 55.5t-59.5 145.5zM543 190q0 -68 39 -111t111 -43t111 43t39 111t-39 111t-111 43t-111 -43t-39 -111z" />
    <glyph glyph-name="ampersand" unicode="&#x26;" horiz-adv-x="843" 
d="M60 682v95h673v-95l-278 -287q115 -143 220 -310h168v-85h-116q31 -52 57.5 -101.5t37.5 -72.5l12 -24l-132 -40q-36 97 -112 238h-570v95l302 312q-126 154 -262 275zM169 692q110 -93 219 -217l210 217h-429zM155 85h387q-71 123 -156 238z" />
    <glyph glyph-name="quotesingle" unicode="'" horiz-adv-x="260" 
d="M90 480v297h80v-297h-80z" />
    <glyph glyph-name="parenleft" unicode="(" horiz-adv-x="381" 
d="M40 339q0 95 32.5 179t82.5 139t104 89t102 41v-41q-28 -6 -61 -24.5t-68.5 -53.5t-64.5 -80t-47.5 -110.5t-18.5 -138.5t18.5 -138.5t47.5 -110.5t64.5 -80t68.5 -53.5t61 -24.5v-41q-48 7 -102 41t-104 89t-82.5 139t-32.5 179z" />
    <glyph glyph-name="parenright" unicode=")" horiz-adv-x="381" 
d="M341 339q0 -95 -32.5 -179t-82.5 -139t-104 -89t-102 -41v41q28 6 61 24.5t68.5 53.5t64.5 80t47.5 110.5t18.5 138.5t-18.5 138.5t-47.5 110.5t-64.5 80t-68.5 53.5t-61 24.5v41q48 -7 102 -41t104 -89t82.5 -139t32.5 -179z" />
    <glyph glyph-name="asterisk" unicode="*" horiz-adv-x="434" 
d="M241 639h-43l9 111l-77 -84l-30 31l84 69l-113 -2v44l113 -10l-84 79l30 31l74 -89l-6 116h43l-5 -116l73 87l31 -30l-84 -77l111 9v-44l-113 8l86 -74l-31 -30l-73 83z" />
    <glyph glyph-name="plus" unicode="+" horiz-adv-x="650" 
d="M300 580h50v-280h280v-50h-280v-280h-50v280h-280v50h280v280z" />
    <glyph glyph-name="comma" unicode="," horiz-adv-x="310" 
d="M220 145v-120q0 -55 -20 -105t-40 -73l-20 -23l-88 26q4 2 10 6t22.5 18.5t30 30.5t27 42t19.5 53h-71v145h130z" />
    <glyph glyph-name="hyphen" unicode="-" horiz-adv-x="502" 
d="M462 260h-422v75h422v-75z" />
    <glyph glyph-name="period" unicode="." horiz-adv-x="310" 
d="M90 0v145h130v-145h-130z" />
    <glyph glyph-name="slash" unicode="/" horiz-adv-x="245" 
d="M233 729l51 -16l-274 -823l-49 15z" />
    <glyph glyph-name="zero" unicode="0" 
d="M740 389q0 -182 -87.5 -292.5t-252.5 -110.5t-252.5 110.5t-87.5 292.5q0 181 87.5 291.5t252.5 110.5t252.5 -110.5t87.5 -291.5zM603 389q0 138 -48.5 220.5t-154.5 82.5t-154.5 -82.5t-48.5 -220.5q0 -139 48.5 -221.5t154.5 -82.5t154.5 82.5t48.5 221.5z" />
    <glyph glyph-name="one" unicode="1" 
d="M750 0h-640v85h300l-1 607q0 -60 -12 -97t-44.5 -64.5t-91 -39t-151.5 -11.5v99q156 0 228 44t72 154h130v-692h210v-85z" />
    <glyph glyph-name="two" unicode="2" 
d="M715 536q0 -57 -25 -112t-58.5 -94.5t-87.5 -82t-91.5 -66t-92.5 -55.5t-70 -41h440v-85h-640v75q10 4 27.5 12t68.5 34t97 54t102 70.5t96.5 85t68.5 96t28 105.5q0 70 -44.5 115t-133.5 45q-86 0 -128.5 -45t-42.5 -113q0 -29 10 -56.5t23.5 -46t27.5 -32.5t24 -21
l10 -6l-134 -39q-4 3 -10.5 9t-22.5 25.5t-28.5 42t-23 57.5t-10.5 72q0 99 81 175.5t227 76.5q150 0 231 -71t81 -184z" />
    <glyph glyph-name="three" unicode="3" 
d="M387 356h-50v85h50q89 0 142.5 34.5t53.5 93.5q0 54 -45.5 88.5t-120.5 34.5q-58 0 -99 -19t-58 -45.5t-26 -53.5t-9 -46v-19l-134 40q1 5 2.5 13.5t10.5 34t22 48t39 50.5t59 48t84.5 34t113.5 14q132 0 215 -58.5t83 -145.5q0 -39 -14 -70t-37.5 -48t-47.5 -29t-50 -16
t-38 -5.5t-20 -1.5q12 0 29 -1.5t55 -12.5t67 -29.5t52.5 -58.5t23.5 -94q0 -78 -46.5 -132.5t-119.5 -78.5t-164 -24q-71 0 -129.5 15t-95 38.5t-64 52t-40.5 57.5t-20.5 52.5t-8.5 38.5l-2 15l134 39q-1 -8 -0.5 -22.5t11 -50.5t31 -63.5t67.5 -50t114 -22.5
q92 0 144 35.5t52 101.5q0 134 -216 134z" />
    <glyph glyph-name="four" unicode="4" 
d="M40 188v125l422 464h172v-504h156v-85h-156v-188h-130v188h-464zM504 682l-363 -409h363v409z" />
    <glyph glyph-name="five" unicode="5" 
d="M740 255q0 -126 -91 -197.5t-243 -71.5q-71 0 -128.5 15t-93.5 38.5t-63 52t-40 57.5t-20.5 52.5t-8.5 38.5l-2 15l134 39q2 -1 0 -12t2.5 -29.5t10 -40.5t22.5 -44.5t39 -41t60.5 -30t87.5 -11.5q89 0 143 47t54 123t-54 122.5t-143 46.5q-52 0 -93 -12t-56 -24l-15 -12
h-133l71 401h524v-85h-413l-47 -270q2 4 6.5 11t22 24.5t39.5 30.5t61 24t84 11q115 0 199 -75.5t84 -192.5z" />
    <glyph glyph-name="six" unicode="6" 
d="M740 243q0 -112 -91.5 -184.5t-232.5 -72.5q-167 0 -261.5 111.5t-94.5 291.5q0 178 96.5 290t263.5 112q73 0 132 -23t91 -55.5t53 -65t28 -55.5l6 -23l-133 -40q-1 7 -3 18t-13 39t-28.5 49.5t-52.5 39t-80 17.5q-108 0 -165.5 -84.5t-57.5 -218.5q0 -18 2 -54
q22 80 95 122.5t174 42.5q112 0 192 -65.5t80 -191.5zM416 401q-78 0 -132 -42t-69 -108q23 -78 73.5 -122t127.5 -44q93 0 140 43.5t47 114.5t-47 114.5t-140 43.5z" />
    <glyph glyph-name="seven" unicode="7" 
d="M770 777v-115q-7 0 -19 -2.5t-48.5 -17t-72 -38t-83.5 -74t-90 -117.5t-84.5 -174.5t-72.5 -238.5h-140q29 132 72 241.5t89.5 179t96 122.5t93 80.5t78.5 44t55 20.5l21 4h-635v85h740z" />
    <glyph glyph-name="eight" unicode="8" 
d="M730 574q0 -42 -19.5 -76t-47 -53t-54.5 -31.5t-47 -16.5l-19 -4q9 0 23.5 -2t52 -12.5t66 -27.5t52 -53t23.5 -84q0 -77 -51.5 -129.5t-130.5 -75.5t-178 -23t-178 23t-130.5 75.5t-51.5 129.5q0 45 20.5 81t50 55.5t59.5 33t50 17.5l21 4q-7 1 -18.5 4t-41 15.5
t-52 29.5t-41 49t-18.5 71q0 96 95 156.5t235 60.5t235 -60.5t95 -156.5zM207 574q0 -39 21 -66t54.5 -39t61.5 -16t56 -4q193 0 193 125q0 50 -48.5 84t-144.5 34t-144.5 -34t-48.5 -84zM623 214q0 36 -18.5 63.5t-43.5 42t-58.5 23t-57 11t-45.5 2.5q-98 0 -160.5 -33.5
t-62.5 -108.5q0 -66 62 -97.5t161 -31.5t161 31.5t62 97.5z" />
    <glyph glyph-name="nine" unicode="9" 
d="M740 388q0 -178 -96.5 -290t-263.5 -112q-73 0 -132 23t-91 55.5t-53 65t-28 55.5l-6 23l133 40q1 -7 3 -18t13 -39t28.5 -49.5t52.5 -39t80 -17.5q108 0 165.5 84.5t57.5 218.5q0 20 -2 54q-20 -73 -87.5 -119t-181.5 -46q-112 0 -192 65.5t-80 191.5q0 112 91.5 184.5
t232.5 72.5q167 0 261.5 -111.5t94.5 -291.5zM197 534q0 -71 47 -114.5t140 -43.5q78 0 131.5 43t69.5 107q-23 78 -74 122t-127 44q-93 0 -140 -43.5t-47 -114.5z" />
    <glyph glyph-name="colon" unicode=":" horiz-adv-x="310" 
d="M90 410v145h130v-145h-130zM90 0v145h130v-145h-130z" />
    <glyph glyph-name="semicolon" unicode=";" horiz-adv-x="310" 
d="M90 410v145h130v-145h-130zM220 145v-120q0 -55 -20 -105t-40 -73l-20 -23l-88 26q4 2 10 6t22.5 18.5t30 30.5t27 42t19.5 53h-71v145h130z" />
    <glyph glyph-name="less" unicode="&#x3c;" horiz-adv-x="650" 
d="M75 287l454 250l26 -46l-419 -230l418 -230l-26 -45l-453 249v52z" />
    <glyph glyph-name="equal" unicode="=" horiz-adv-x="650" 
d="M610 420v-50h-570v50h570zM610 180v-50h-570v50h570z" />
    <glyph glyph-name="greater" unicode="&#x3e;" horiz-adv-x="650" 
d="M121 537l454 -250v-52l-453 -249l-26 45l418 230l-418 230z" />
    <glyph glyph-name="question" unicode="?" horiz-adv-x="760" 
d="M700 566q0 -50 -28.5 -89t-69 -63.5t-81 -47.5t-69 -54.5t-28.5 -71.5h-110q0 44 18.5 77.5t46 51.5t60 37t60 35t46 45.5t18.5 68.5q0 56 -43 96.5t-123 40.5q-65 0 -109.5 -24t-62.5 -58.5t-25.5 -68.5t-7 -58t1.5 -24l-134 40q0 6 1.5 16.5t9.5 41t20 58t38 61t60 58
t88 41t120 16.5q83 0 145 -21.5t95 -57t48 -72t15 -74.5zM304 0v145h130v-145h-130z" />
    <glyph glyph-name="at" unicode="@" horiz-adv-x="1146" 
d="M792 0q-54 0 -73.5 28.5t-19.5 103.5q-3 -6 -9 -16t-28.5 -35t-48 -44t-68 -35t-89.5 -16q-56 0 -98 18.5t-66 49.5t-35.5 68t-11.5 79q0 106 53 192.5t132 131t163 44.5q42 0 75 -12t49.5 -29t27 -34.5t13.5 -29.5l3 -12l79 103h68l-103 -460q-9 -43 20 -43q26 0 72 33
q58 42 98 110.5t40 151.5q0 120 -61.5 211t-160.5 136t-219 45q-119 0 -225 -58.5t-173 -166.5t-67 -239q0 -211 132 -336t347 -125q110 0 211.5 47.5t159.5 129.5h63q-76 -109 -190 -168t-255 -59q-240 0 -388.5 139t-148.5 361q0 233 153 379.5t392 146.5q126 0 235.5 -52
t177.5 -150t68 -219q0 -77 -22 -142t-56 -105.5t-75 -69t-76.5 -40.5t-64.5 -12zM514 75q77 0 139.5 58.5t85.5 143.5q23 86 -11 144.5t-121 58.5q-92 0 -162 -73t-70 -185q0 -63 36 -105t103 -42z" />
    <glyph glyph-name="A" unicode="A" horiz-adv-x="974" 
d="M815 0l-111 247h-435l-111 -247h-138l360 777h214l360 -777h-139zM470 692l-162 -360h358l-161 360h-35z" />
    <glyph glyph-name="B" unicode="B" horiz-adv-x="849" 
d="M789 221q0 -111 -85 -166t-264 -55h-350v777h330q349 0 349 -190q0 -42 -17 -75t-41.5 -50t-49.5 -27.5t-42 -13.5l-17 -3q4 0 10.5 -1t26 -5.5t37.5 -12t39.5 -22.5t37 -35t26 -51.5t10.5 -69.5zM220 441h200q100 0 156 28t56 98t-56 97.5t-156 27.5h-200v-251zM220 356
v-271h220q48 0 84 6t66.5 20.5t46 42t15.5 67.5q0 53 -29.5 84t-73 41t-109.5 10h-220z" />
    <glyph glyph-name="C" unicode="C" horiz-adv-x="984" 
d="M903 469l-134 -40q0 5 -1 14.5t-7.5 37t-16.5 52.5t-31 55t-49 52t-72.5 37t-98.5 15q-137 0 -216.5 -85.5t-79.5 -218.5q0 -131 84 -217t222 -86q57 0 104 13.5t76 35.5t50.5 48t32 52.5t16.5 48.5t7 35l1 14l134 -39q-1 -6 -3 -17.5t-12.5 -43t-27 -60.5t-49.5 -64.5
t-75 -61t-108 -43t-146 -17.5q-204 0 -323.5 112t-119.5 290q0 180 115 291.5t318 111.5q77 0 141.5 -18t105.5 -46t73 -62.5t48 -69t26.5 -62.5t12.5 -46z" />
    <glyph glyph-name="D" unicode="D" horiz-adv-x="923" 
d="M440 777q195 0 309 -104.5t114 -284.5t-114 -284t-309 -104h-350v777h350zM220 692v-607h160q167 0 256.5 77t89.5 226t-90 226.5t-256 77.5h-160z" />
    <glyph glyph-name="E" unicode="E" horiz-adv-x="745" 
d="M90 0v777h586v-85h-456v-260h428v-85h-428v-262h485v-85h-615z" />
    <glyph glyph-name="F" unicode="F" horiz-adv-x="696" 
d="M90 0v777h586v-85h-456v-260h428v-85h-428v-347h-130z" />
    <glyph glyph-name="G" unicode="G" horiz-adv-x="983" 
d="M900 499l-134 -40q0 5 -1.5 13.5t-9 32.5t-18 46t-32 49t-49 46t-70 32.5t-93.5 13.5q-137 0 -216.5 -85.5t-79.5 -218.5q0 -131 77.5 -217t208.5 -86q53 0 96.5 12.5t71 32t48.5 43.5t31.5 48t17 43.5t8.5 31.5l1 13h-293v85h423v-394h-130v150q-2 -7 -7 -18t-27.5 -39
t-52 -50t-85 -39.5t-122.5 -17.5q-182 0 -292.5 112.5t-110.5 289.5q0 180 115 291.5t318 111.5q74 0 136 -16t102.5 -42t72.5 -57t49.5 -62t28.5 -57t14 -42z" />
    <glyph glyph-name="H" unicode="H" horiz-adv-x="930" 
d="M710 0v347h-490v-347h-130v777h130v-345h490v345h130v-777h-130z" />
    <glyph glyph-name="I" unicode="I" horiz-adv-x="310" 
d="M90 777h130v-777h-130v777z" />
    <glyph glyph-name="J" unicode="J" horiz-adv-x="774" 
d="M194 332q-4 -15 -4 -33q0 -96 46 -155t136 -59t136 59t46 155v478h130v-478q0 -156 -82.5 -234.5t-229.5 -78.5q-145 0 -228 77t-84 230z" />
    <glyph glyph-name="K" unicode="K" horiz-adv-x="862" 
d="M692 0l-345 393l-127 -113v-280h-130v777h130v-368l402 368h160l-350 -310l410 -467h-150z" />
    <glyph glyph-name="L" unicode="L" horiz-adv-x="665" 
d="M90 0v777h130v-692h445v-85h-575z" />
    <glyph glyph-name="M" unicode="M" horiz-adv-x="1222" 
d="M611 85l321 692h200v-777h-130v642l-306 -642h-170l-306 642v-642h-130v777h200z" />
    <glyph glyph-name="N" unicode="N" horiz-adv-x="931" 
d="M841 777v-777h-160l-461 642v-642h-130v777h160l461 -642v642h130z" />
    <glyph glyph-name="O" unicode="O" horiz-adv-x="1027" 
d="M967 388q0 -177 -124.5 -289.5t-329.5 -112.5t-329 112.5t-124 289.5q0 178 124 290.5t329 112.5t329.5 -113t124.5 -290zM830 388q0 131 -88.5 217.5t-228.5 86.5q-139 0 -227.5 -86.5t-88.5 -217.5q0 -130 88.5 -216.5t227.5 -86.5q140 0 228.5 86.5t88.5 216.5z" />
    <glyph glyph-name="P" unicode="P" horiz-adv-x="789" 
d="M90 777h330q180 0 264.5 -51t84.5 -159t-85 -159.5t-264 -51.5h-200v-356h-130v777zM220 441h200q100 0 156 28t56 98t-56 97.5t-156 27.5h-200v-251z" />
    <glyph glyph-name="Q" unicode="Q" horiz-adv-x="1027" 
d="M893 -46l29 -107q-1 -3 -4.5 -7t-16 -14.5t-29.5 -19t-46.5 -15t-65.5 -6.5q-89 0 -131 42.5t-43 100.5q0 38 14 64q-42 -6 -87 -6q-205 0 -329 112.5t-124 289.5q0 178 124 290.5t329 112.5t329.5 -113t124.5 -290q0 -136 -76 -236.5t-209 -141.5q-28 -10 -28 -46
q0 -81 105 -81q34 0 60 7.5t39.5 17.5t22 20.5t10.5 17.5zM830 388q0 131 -88.5 217.5t-228.5 86.5q-139 0 -227.5 -86.5t-88.5 -217.5q0 -130 88.5 -216.5t227.5 -86.5q140 0 228.5 86.5t88.5 216.5z" />
    <glyph glyph-name="R" unicode="R" horiz-adv-x="849" 
d="M90 777h330q180 0 264.5 -51t84.5 -159q0 -86 -64.5 -131t-170.5 -45q64 -8 113 -39.5t65 -93.5q42 -160 54 -202t23 -56h-135q-11 14 -21.5 53t-44.5 183q-16 67 -66.5 93.5t-171.5 26.5h-130v-356h-130v777zM220 441h200q100 0 156 28t56 98t-56 97.5t-156 27.5h-200
v-251z" />
    <glyph glyph-name="S" unicode="S" horiz-adv-x="814" 
d="M348 476l198 -44q228 -51 228 -224q0 -106 -93 -164t-240 -58q-107 0 -188.5 28t-125 72t-64.5 88.5t-23 88.5l134 39q0 -5 -0.5 -12.5t2.5 -30t11 -43t26.5 -45.5t46 -43t73.5 -30.5t105 -12.5q92 0 146.5 33.5t54.5 83.5q0 52 -40 76.5t-136 47.5l-189 44
q-98 23 -148 75t-50 123q0 95 79.5 159t233.5 64q69 0 126 -13t92 -33.5t61.5 -45t39 -49t20 -45t8.5 -33.5l1 -13l-134 -36q1 7 0.5 18.5t-11 40.5t-30.5 51t-66.5 40.5t-112.5 18.5q-78 0 -125 -31t-47 -81q0 -42 34 -65.5t103 -38.5z" />
    <glyph glyph-name="T" unicode="T" horiz-adv-x="787" 
d="M0 692v85h787v-85h-330v-692h-127v692h-330z" />
    <glyph glyph-name="U" unicode="U" horiz-adv-x="916" 
d="M696 777h130v-456q0 -335 -368 -335t-368 335v456h130v-456q0 -74 15.5 -122t49 -72t73.5 -33t100 -9t100 9t73.5 33t49 72t15.5 122v456z" />
    <glyph glyph-name="V" unicode="V" horiz-adv-x="914" 
d="M894 777l-345 -777h-184l-345 777h139l298 -692l298 692h139z" />
    <glyph glyph-name="W" unicode="W" horiz-adv-x="1329" 
d="M1309 777l-265 -777h-184l-196 642l-195 -642h-184l-265 777h139l218 -692l208 692h159l208 -692l218 692h139z" />
    <glyph glyph-name="X" unicode="X" horiz-adv-x="852" 
d="M10 0l341 389l-341 388h150l266 -303l266 303h150l-341 -388l341 -389h-150l-266 303l-266 -303h-150z" />
    <glyph glyph-name="Y" unicode="Y" horiz-adv-x="852" 
d="M361 377l-351 400h150l266 -303l266 303h150l-351 -400v-377h-130v377z" />
    <glyph glyph-name="Z" unicode="Z" horiz-adv-x="743" 
d="M723 85v-85h-703v95l538 597h-538v85h703v-95l-538 -597h538z" />
    <glyph glyph-name="bracketleft" unicode="[" horiz-adv-x="333" 
d="M313 -129v-50h-253v997h253v-50h-203v-897h203z" />
    <glyph glyph-name="backslash" unicode="\" horiz-adv-x="245" 
d="M-39 713l51 16l272 -824l-49 -15z" />
    <glyph glyph-name="bracketright" unicode="]" horiz-adv-x="333" 
d="M20 -179v50h203v897h-203v50h253v-997h-253z" />
    <glyph glyph-name="underscore" unicode="_" horiz-adv-x="510" 
d="M490 -60v-50h-470v50h470z" />
    <glyph glyph-name="grave" unicode="`" horiz-adv-x="727" 
d="M400 821h150l116 -188h-67z" />
    <glyph glyph-name="a" unicode="a" horiz-adv-x="704" 
d="M565 133q-2 -58 44 -58q22 0 39.5 12.5t24.5 24.5l7 13l24 -89q-4 -6 -13 -14t-42.5 -22t-74.5 -14q-53 0 -88.5 30.5t-35.5 98.5v95q-3 -9 -9.5 -24t-29.5 -54t-49 -68.5t-69 -53.5t-89 -24q-60 0 -97 34.5t-37 87.5q0 38 18.5 75t59 74.5t118.5 66t184 40.5q-2 1 0 12
t-4.5 28.5t-16.5 34.5t-36 29t-62 12t-66 -11.5t-46 -28t-27 -33t-14 -27.5l-4 -12l-124 36q2 7 7 18t26.5 39.5t49.5 50t80 39.5t114 18q120 0 183 -57t61 -146zM197 133q0 -58 53 -58q48 0 97.5 47t76.5 98t26 75v35q-79 -20 -133 -47t-78 -55.5t-33 -50.5t-9 -44z" />
    <glyph glyph-name="b" unicode="b" horiz-adv-x="747" 
d="M210 777v-325q2 5 6 13t21 28t37.5 35.5t56.5 28t78 12.5q124 0 201 -82t77 -210t-77 -209.5t-201 -81.5q-49 0 -89 15t-62 36.5t-37 43t-20 36.5l-5 15l-38 -132h-68v766q28 0 58 3t46 5zM371 75q87 0 137.5 55.5t50.5 146.5t-50.5 147t-137.5 56t-136.5 -58.5
t-49.5 -144.5t49.5 -144t136.5 -58z" />
    <glyph glyph-name="c" unicode="c" horiz-adv-x="727" 
d="M543 221l124 -36q-1 -4 -2.5 -11t-10.5 -28t-21.5 -39.5t-36.5 -41.5t-53.5 -39.5t-75 -28t-99.5 -11.5q-128 0 -218 78.5t-90 213.5q0 128 82 209.5t221 81.5q65 0 116.5 -16.5t82 -42.5t51 -61t28.5 -67.5t10 -67.5l-124 -36q7 84 -33 143t-131 59q-83 0 -129 -55.5
t-46 -146.5q0 -95 54 -149t141 -54q45 0 77.5 15t47.5 36.5t24 43t10 36.5z" />
    <glyph glyph-name="d" unicode="d" horiz-adv-x="747" 
d="M537 452v314q28 0 58 3t46 5l16 3v-777h-68l-38 132q-2 -6 -5.5 -16t-19 -35t-37 -44t-62 -35t-89.5 -16q-124 0 -201 81.5t-77 209.5t77 210t201 82q42 0 78 -12t57 -29t36.5 -34.5t21.5 -29.5zM376 75q87 0 136.5 58t49.5 144t-49.5 144.5t-136.5 58.5t-137.5 -56
t-50.5 -147t50.5 -146.5t137.5 -55.5z" />
    <glyph glyph-name="e" unicode="e" horiz-adv-x="727" 
d="M667 185q-1 -8 -5 -21.5t-24.5 -48t-50 -60.5t-87.5 -47.5t-132 -21.5q-128 0 -218 78.5t-90 213.5q0 128 82.5 209.5t225.5 81.5q64 0 114 -17t79 -44t49.5 -59.5t28 -65t11.5 -59.5t3 -44l-1 -17l-464 10q1 -93 55.5 -145.5t139.5 -52.5q45 0 78 15t48 36.5t23.5 43
t9.5 36.5l1 15zM525 339q0 6 -1.5 15.5t-11 33.5t-25.5 43t-49 34t-77 15q-68 0 -111.5 -39t-56.5 -107z" />
    <glyph glyph-name="f" unicode="f" horiz-adv-x="496" 
d="M330 712q-52 0 -82 -23t-30 -63q0 -20 7.5 -37.5t14.5 -25.5l8 -8h204v-75h-198v-480h-120v480h-124v75h160l-7.5 2.5t-16.5 9t-21 17t-16.5 26t-7.5 36.5q0 57 55.5 101t169.5 44q66 0 120 -17t84.5 -41.5t51 -48.5t27.5 -41l7 -17l-124 -36q-1 5 -4 13t-15 29t-28 37.5
t-46.5 29.5t-68.5 13z" />
    <glyph glyph-name="g" unicode="g" horiz-adv-x="727" 
d="M367 182q-51 0 -96 8q-73 -9 -73 -60q0 -55 86 -55h190q120 0 171.5 -42t51.5 -107q0 -159 -294 -159h-130q-124 0 -173.5 38t-49.5 88q0 52 49.5 83t124.5 31q-6 0 -16.5 1t-37 6.5t-47 15t-37 29.5t-16.5 47q0 26 16.5 45.5t43.5 29.5t49 14.5t45 6.5
q-73 23 -109.5 69.5t-36.5 103.5q0 82 72.5 138t213.5 56q125 0 200 -47q-22 44 -19 76t41.5 47t106.5 6l24 -89q-51 9 -84.5 -0.5t-38.5 -29.5t9 -42q47 -48 47 -115q0 -82 -72 -137.5t-211 -55.5zM206 375q0 -51 38.5 -84.5t119.5 -33.5t119 33.5t38 84.5q0 52 -38 85.5
t-119 33.5q-82 0 -120 -33.5t-38 -85.5zM465 -13l-170 13q-5 0 -12.5 -0.5t-27.5 -5t-35.5 -13t-28 -26.5t-12.5 -42q0 -47 43.5 -66t155.5 -19q101 0 145.5 19.5t44.5 65.5q0 33 -23.5 51.5t-79.5 22.5z" />
    <glyph glyph-name="h" unicode="h" horiz-adv-x="748" 
d="M210 777v-362q1 6 4 16.5t17.5 37t35.5 47t63 37t95 16.5q233 0 233 -225v-344h-120v342q0 138 -157 138q-43 0 -75.5 -12.5t-50 -30t-28.5 -40t-14 -38.5t-3 -29v-330h-120v766q32 0 62 3t44 5z" />
    <glyph glyph-name="i" unicode="i" horiz-adv-x="300" 
d="M90 681v96h120v-96h-120zM90 0v555h120v-555h-120z" />
    <glyph glyph-name="j" unicode="j" horiz-adv-x="311" 
d="M101 681v96h120v-96h-120zM101 7v548h120v-540q0 -117 -50.5 -184.5t-146.5 -67.5q-36 0 -64.5 11.5t-39.5 23.5l-10 11l24 89q2 -5 7 -12t22.5 -19t38.5 -12q99 0 99 152z" />
    <glyph glyph-name="k" unicode="k" horiz-adv-x="654" 
d="M90 0v766q32 0 62 3t44 5l14 3v-452l244 230h146l-248 -234l302 -321h-155l-232 251l-57 -54v-197h-120z" />
    <glyph glyph-name="l" unicode="l" horiz-adv-x="300" 
d="M90 0v766q28 0 58 3t46 5l16 3v-777h-120z" />
    <glyph glyph-name="m" unicode="m" horiz-adv-x="1136" 
d="M926 0v342q0 138 -137 138q-49 0 -84 -18t-50 -45t-21 -48.5t-6 -38.5v-330h-120v349q-4 131 -137 131q-49 0 -84 -18t-50 -45t-21 -48.5t-6 -38.5v-330h-120v555h58l51 -165q1 7 4 19t18 43t37 54.5t66 43t101 19.5q173 0 198 -154q7 23 19.5 45.5t37 49t67 43
t96.5 16.5q111 0 157 -57t46 -168v-344h-120z" />
    <glyph glyph-name="n" unicode="n" horiz-adv-x="748" 
d="M538 0v342q0 138 -157 138q-43 0 -75.5 -12.5t-50 -30t-28.5 -40t-14 -38.5t-3 -29v-330h-120v555h58l51 -165q1 7 3 19t16 43t35.5 54.5t67 43t104.5 19.5q233 0 233 -225v-344h-120z" />
    <glyph glyph-name="o" unicode="o" horiz-adv-x="750" 
d="M60 278q0 126 85 208.5t230 82.5t230 -82.5t85 -208.5q0 -127 -85 -209.5t-230 -82.5t-230 82.5t-85 209.5zM188 278q0 -91 50.5 -147t136.5 -56q85 0 136 56t51 147t-51 146.5t-136 55.5q-86 0 -136.5 -55.5t-50.5 -146.5z" />
    <glyph glyph-name="p" unicode="p" horiz-adv-x="747" 
d="M90 555h68l38 -132q2 6 5.5 16t19 35t37 44t62 35t89.5 16q124 0 201 -81.5t77 -209.5t-77 -210t-201 -82q-43 0 -79 12t-57.5 29.5t-36.5 35t-20 29.5l-6 12v-327h-120v778zM371 480q-87 0 -136.5 -58t-49.5 -144t49.5 -144.5t136.5 -58.5t137.5 56t50.5 147
t-50.5 146.5t-137.5 55.5z" />
    <glyph glyph-name="q" unicode="q" horiz-adv-x="747" 
d="M589 555h68v-778h-120v326q-2 -5 -6 -13t-21 -28t-37.5 -35.5t-56.5 -28t-78 -12.5q-124 0 -201 82t-77 210t77 209.5t201 81.5q49 0 89 -15t62 -36.5t37 -43t20 -36.5l5 -15zM376 480q-87 0 -137.5 -55.5t-50.5 -146.5t50.5 -147t137.5 -56t136.5 58.5t49.5 144.5
t-49.5 144t-136.5 58z" />
    <glyph glyph-name="r" unicode="r" horiz-adv-x="512" 
d="M210 329v-329h-120v555h58l51 -165q1 7 3 19t13.5 43t28.5 54.5t50.5 43t76.5 19.5q121 0 121 -136q0 -32 -5 -61.5t-10 -43.5l-5 -13l-124 -36q21 64 21 128q0 73 -49 73q-35 0 -62 -32t-37.5 -65.5t-10.5 -53.5z" />
    <glyph glyph-name="s" unicode="s" horiz-adv-x="647" 
d="M452 366v12.5t-6.5 27t-20 34.5t-45 27.5t-76.5 12.5q-58 0 -86.5 -19.5t-28.5 -51.5q0 -52 112 -71l136 -24q170 -30 170 -154q0 -78 -71 -126t-176 -48q-81 0 -144 20.5t-95 50t-52 58.5t-25 49l-4 21l124 36q0 -3 -0.5 -8.5t2 -20.5t8 -28.5t19.5 -30.5t34.5 -29
t55 -20.5t78.5 -8.5q55 0 86.5 21t31.5 54q0 60 -116 81l-122 22q-88 16 -129 56t-41 94q0 77 67 121.5t168 44.5q52 0 95 -9t70 -24t47.5 -32.5t31 -35.5t17 -33t7.5 -24l2 -9z" />
    <glyph glyph-name="t" unicode="t" horiz-adv-x="532" 
d="M20 480v75h129v126l115 80v-206h228v-75h-228v-279q0 -126 97 -126q27 0 50 8t36.5 20t23.5 24t13 20l4 8l24 -89q-2 -3 -6.5 -8.5t-20 -19.5t-34 -24.5t-50 -19t-65.5 -8.5q-92 0 -142 50t-50 152v292h-124z" />
    <glyph glyph-name="u" unicode="u" horiz-adv-x="748" 
d="M210 555v-342q0 -138 157 -138q43 0 75.5 12.5t50 30t28.5 40t14 38.5t3 29v330h120v-555h-58l-51 165q-1 -7 -3 -19t-16 -43t-35.5 -54.5t-67 -43t-104.5 -19.5q-233 0 -233 225v344h120z" />
    <glyph glyph-name="v" unicode="v" horiz-adv-x="668" 
d="M658 555l-259 -555h-131l-258 555h138l186 -448l188 448h136z" />
    <glyph glyph-name="w" unicode="w" horiz-adv-x="1011" 
d="M225 0l-215 555h138l149 -448l136 448h145l137 -448l148 448h138l-214 -555h-132l-149 465l-150 -465h-131z" />
    <glyph glyph-name="x" unicode="x" horiz-adv-x="662" 
d="M10 0l252 276l-252 279h149l172 -205l172 205h149l-253 -279l253 -276h-153l-168 204l-167 -204h-154z" />
    <glyph glyph-name="y" unicode="y" horiz-adv-x="636" 
d="M246 -1l16 36l-252 520h138l175 -393l167 393h136l-269 -555q-60 -124 -111 -180.5t-117 -56.5q-33 0 -60.5 11.5t-38.5 23.5l-11 11l14 89q3 -5 8 -12.5t23 -19t40 -11.5q36 0 75 40t67 104z" />
    <glyph glyph-name="z" unicode="z" horiz-adv-x="610" 
d="M40 0v85l390 395h-390v75h530v-85l-385 -395h385v-75h-530z" />
    <glyph glyph-name="braceleft" unicode="{" horiz-adv-x="306" 
d="M30 292v90q40 1 67.5 20.5t20.5 67.5l-21 136q-14 90 38.5 133t145.5 48l5 -41q-72 -7 -106 -40t-25 -109l16 -132q7 -59 -21.5 -91t-68.5 -37q40 -5 68.5 -37t21.5 -91l-16 -132q-9 -76 25 -109t106 -40l-5 -40q-94 5 -146 48t-38 132l21 136q7 48 -20.5 67.5
t-67.5 20.5z" />
    <glyph glyph-name="bar" unicode="|" horiz-adv-x="170" 
d="M60 729h50v-839h-50v839z" />
    <glyph glyph-name="braceright" unicode="}" horiz-adv-x="306" 
d="M276 382v-90q-40 -1 -67.5 -20.5t-20.5 -67.5l21 -136q14 -89 -38 -132t-146 -48l-5 40q72 7 106 40t25 109l-16 132q-7 59 21.5 91t68.5 37q-40 5 -68.5 37t-21.5 91l16 132q9 76 -25 109t-106 40l5 41q93 -5 145.5 -48t38.5 -133l-21 -136q-7 -48 20.5 -67.5
t67.5 -20.5z" />
    <glyph glyph-name="exclamdown" unicode="&#xa1;" horiz-adv-x="290" 
d="M80 75v145h130v-145h-130zM210 -557h-130l10 537h110z" />
    <glyph glyph-name="cent" unicode="&#xa2;" 
d="M421 -223h-43v210q-119 8 -200.5 85.5t-81.5 205.5q0 123 76 203.5t206 86.5v209h43v-208q74 -4 128 -29t82 -64.5t41 -79t15 -82.5l-124 -36q7 78 -27.5 135.5t-114.5 65.5v-404q44 0 76.5 15.5t47.5 36.5t23.5 42.5t9.5 36.5l1 15l124 -36q-1 -4 -2.5 -11t-10 -27
t-20 -38t-34.5 -40.5t-50.5 -39.5t-70.5 -29t-94 -14v-209zM224 278q0 -83 42 -135.5t112 -64.5v401q-74 -7 -114 -61.5t-40 -139.5z" />
    <glyph glyph-name="sterling" unicode="&#xa3;" 
d="M185 560q0 -17 2.5 -32t10.5 -30t12 -23.5t18.5 -23.5t18.5 -19.5t22.5 -21t21.5 -19.5h229v-50h-182q41 -55 41 -127q0 -54 -21 -101q34 -28 106 -28q53 0 90.5 25.5t53.5 61.5t24.5 72.5t8.5 61.5v26l134 -39q0 -6 -1 -17.5t-8 -43t-18 -60.5t-33.5 -64.5t-52 -61
t-77 -43t-104.5 -17.5q-45 0 -88.5 15.5t-64.5 30.5l-20 16q-2 -3 -5.5 -7t-17 -14.5t-29.5 -19t-44 -15t-59 -6.5q-73 0 -113 32t-40 92q0 56 34 89.5t96 33.5q76 0 143 -54q3 13 3 28q0 27 -14.5 52.5t-31.5 41.5t-48 40h-182v50h122q-74 69 -74 155q0 100 84 172.5
t251 72.5q68 0 122.5 -14.5t87.5 -37.5t57.5 -51t35 -56t16 -51t6.5 -37v-15l-134 -40q0 4 0.5 11.5t-1.5 28.5t-7.5 40t-19.5 42.5t-35 40.5t-56.5 28.5t-80.5 11.5q-94 0 -141.5 -34.5t-47.5 -97.5zM147 52q28 0 51.5 13.5t33.5 26.5l10 14q-5 5 -19 18t-21 19t-19 14.5
t-23 12t-23 3.5q-30 0 -45 -17t-15 -43t19 -43.5t51 -17.5z" />
    <glyph glyph-name="yen" unicode="&#xa5;" 
d="M335 377l-325 400h160l230 -303l230 303h160l-325 -400v-45h220v-50h-220v-110h220v-50h-220v-122h-130v122h-220v50h220v110h-220v50h220v45z" />
    <glyph glyph-name="brokenbar" unicode="&#xa6;" horiz-adv-x="170" 
d="M60 729h50v-335h-50v335zM60 225h50v-335h-50v335z" />
    <glyph glyph-name="section" unicode="&#xa7;" horiz-adv-x="647" 
d="M407 130q95 -28 147.5 -82t52.5 -111q0 -78 -71 -126t-176 -48q-81 0 -144 20.5t-95 49.5t-52 58.5t-25 50.5l-4 20l124 36q0 -3 -0.5 -8.5t2 -20.5t8 -28.5t19.5 -30.5t34.5 -29t55 -20.5t78.5 -8.5q55 0 86.5 22.5t31.5 58.5q0 66 -96 112l-142 68q-84 40 -127 79.5
t-43 87.5q0 51 49.5 87.5t117.5 55.5q-91 38 -144.5 89t-53.5 105q0 78 71 126t176 48q81 0 144 -20.5t95 -49.5t52 -58.5t24 -50.5l5 -20l-124 -36q0 3 0.5 8.5t-2 20.5t-8 28.5t-19.5 30.5t-34.5 29t-55 20.5t-78.5 8.5q-54 0 -86 -23t-32 -57q0 -65 98 -113l146 -71
q101 -49 132.5 -87t31.5 -82q0 -48 -50 -83.5t-119 -55.5zM304 347q-47 0 -76.5 -14t-29.5 -39q0 -30 36.5 -58.5t108.5 -28.5q46 0 77 15t31 39q-2 35 -43 60.5t-104 25.5z" />
    <glyph glyph-name="dieresis" unicode="&#xa8;" horiz-adv-x="358" 
d="M19 681v96h120v-96h-120zM219 681v96h120v-96h-120z" />
    <glyph glyph-name="copyright" unicode="&#xa9;" horiz-adv-x="1064" 
d="M60 311q0 199 136.5 335.5t335.5 136.5t335.5 -136.5t136.5 -335.5t-136.5 -335.5t-335.5 -136.5t-335.5 136.5t-136.5 335.5zM116 310q0 -173 121.5 -294.5t294.5 -121.5t294.5 121.5t121.5 294.5t-121.5 294.5t-294.5 121.5t-294.5 -121.5t-121.5 -294.5zM835 377
l-122 -36q0 7 -1 18t-10.5 40t-27 51t-56.5 40t-92 18q-88 0 -139.5 -55.5t-51.5 -141.5q0 -85 54 -141.5t143 -56.5q37 0 67.5 10t49 25.5t33 34.5t21 37.5t10.5 34t5 25.5v10l122 -34q-1 -5 -2.5 -13.5t-9.5 -34t-20 -48t-36 -50.5t-55 -48t-79 -34t-106 -14
q-146 0 -233 83.5t-87 213.5q0 131 83.5 213.5t230.5 82.5q60 0 109.5 -12.5t81 -33t55 -45t35 -49t18.5 -45t9 -32.5z" />
    <glyph glyph-name="guillemotleft" unicode="&#xab;" horiz-adv-x="551" 
d="M30 277l181 219h90l-151 -219l151 -219h-90zM250 277l181 219h90l-151 -219l151 -219h-90z" />
    <glyph glyph-name="registered" unicode="&#xae;" horiz-adv-x="1064" 
d="M60 311q0 199 136.5 335.5t335.5 136.5t335.5 -136.5t136.5 -335.5t-136.5 -335.5t-335.5 -136.5t-335.5 136.5t-136.5 335.5zM116 310q0 -173 121.5 -294.5t294.5 -121.5t294.5 121.5t121.5 294.5t-121.5 294.5t-294.5 121.5t-294.5 -121.5t-121.5 -294.5zM292 595h243
q255 0 255 -162q0 -53 -33 -89t-92 -39q33 -4 55.5 -27t30.5 -56q26 -103 38 -137.5t29 -58.5h-130q-11 14 -18 39t-26 105l-8 31q-10 38 -43.5 55t-107.5 17h-75v-247h-118v569zM410 360h125q132 0 132 73t-132 73h-125v-146z" />
    <glyph glyph-name="degree" unicode="&#xb0;" horiz-adv-x="348" 
d="M40 597q0 54 39.5 93t93.5 39q55 0 95 -39t40 -93t-40 -92t-95 -38q-54 0 -93.5 38t-39.5 92zM96 597q0 -35 22 -57t55 -22q34 0 56.5 22t22.5 57q0 36 -22.5 58.5t-56.5 22.5q-33 0 -55 -22.5t-22 -58.5z" />
    <glyph glyph-name="plusminus" unicode="&#xb1;" horiz-adv-x="650" 
d="M630 416v-50h-280v-280h-50v280h-280v50h280v280h50v-280h280zM630 50v-50h-610v50h610z" />
    <glyph glyph-name="acute" unicode="&#xb4;" horiz-adv-x="727" 
d="M650 821h150l-199 -188h-67z" />
    <glyph glyph-name="mu" unicode="&#xb5;" horiz-adv-x="748" 
d="M210 555v-302q0 -85 41 -131.5t116 -46.5q43 0 75.5 12.5t50 30t28.5 40t14 38.5t3 29v330h120v-555h-58l-51 165q-1 -7 -3 -19t-14.5 -43t-32.5 -54.5t-61 -43t-95 -19.5q-33 0 -75.5 15t-57.5 33v-257h-120v778h120z" />
    <glyph glyph-name="paragraph" unicode="&#xb6;" horiz-adv-x="714" 
d="M299 -223v561q-124 0 -201.5 56t-77.5 161q0 115 76.5 168.5t202.5 53.5h325v-1000h-118v915h-87v-915h-120z" />
    <glyph glyph-name="periodcentered" unicode="&#xb7;" horiz-adv-x="545" 
d="M72 280q0 84 58.5 142.5t141.5 58.5t142 -58.5t59 -142.5q0 -82 -59 -140.5t-142 -58.5q-82 0 -141 58.5t-59 140.5z" />
    <glyph glyph-name="cedilla" unicode="&#xb8;" horiz-adv-x="833" 
d="M382 22l-30 -87q20 17 54 17q35 0 57 -21.5t22 -61.5q0 -49 -37.5 -77.5t-94.5 -28.5q-35 0 -65 11.5t-42 23.5l-12 12l18 68q4 -6 11 -15.5t32 -25.5t53 -16q31 0 49 13.5t18 37.5q0 21 -11.5 32.5t-30.5 11.5q-12 0 -21.5 -5.5t-13.5 -10.5l-4 -6l-43 3l43 125h48z" />
    <glyph glyph-name="guillemotright" unicode="&#xbb;" horiz-adv-x="551" 
d="M120 496l181 -219l-181 -219h-90l151 219l-151 219h90zM340 496l181 -219l-181 -219h-90l151 219l-151 219h90z" />
    <glyph glyph-name="onequarter" unicode="&#xbc;" horiz-adv-x="778" 
d="M582 784l48 -24l-413 -763l-46 23zM320 390h-320v42h150l-1 304q0 -59 -30 -82.5t-119 -23.5v49q78 0 114 22t36 77h65v-346h105v-42zM403 94v62l211 232h86v-252h78v-42h-78v-94h-65v94h-232zM635 341l-182 -205h182v205z" />
    <glyph glyph-name="onehalf" unicode="&#xbd;" horiz-adv-x="778" 
d="M582 784l48 -24l-413 -763l-46 23zM320 390h-320v42h150l-1 304q0 -59 -30 -82.5t-119 -23.5v49q78 0 114 22t36 77h65v-346h105v-42zM770 268q0 -29 -12.5 -56.5t-29 -47t-43.5 -41t-46 -33t-46.5 -27.5t-34.5 -21h220v-42h-320v37q10 4 26.5 11.5t58.5 32t74 50
t58.5 62.5t26.5 73q0 35 -22.5 57.5t-66.5 22.5q-43 0 -64.5 -22.5t-21.5 -56.5q0 -23 12 -43.5t24 -29.5l12 -8l-67 -20q-5 4 -13 12t-21.5 35t-13.5 56q0 50 40.5 88t113.5 38q75 0 115.5 -35.5t40.5 -91.5z" />
    <glyph glyph-name="threequarters" unicode="&#xbe;" horiz-adv-x="778" 
d="M168 574h-25v42h25q45 0 71.5 17t26.5 47q0 27 -23 44.5t-60 17.5q-29 0 -49.5 -9.5t-29 -23t-13 -27t-4.5 -22.5v-10l-67 20q1 5 2.5 13t12.5 29t27 37t49 29t75 13q66 0 107.5 -29t41.5 -73q0 -38 -26 -59t-52 -24l-26 -2q5 0 12.5 -0.5t27 -5.5t34.5 -14t27.5 -29.5
t12.5 -48.5q0 -58 -47 -87.5t-118 -29.5q-49 0 -85.5 14t-54 33.5t-27.5 39t-11 33.5l-2 14l67 20v-11t5 -25.5t15 -32t34 -25t57 -11.5q46 0 72 18t26 51q0 67 -108 67zM582 784l48 -24l-413 -763l-46 23zM403 94v62l211 232h86v-252h78v-42h-78v-94h-65v94h-232zM635 341
l-182 -205h182v205z" />
    <glyph glyph-name="questiondown" unicode="&#xbf;" horiz-adv-x="760" 
d="M304 75v145h130v-145h-130zM700 -346q0 -38 -15 -74.5t-48 -72t-95 -57t-145 -21.5q-66 0 -120 16t-88 42t-59.5 57t-38.5 62t-20.5 57t-8.5 42l-2 16l134 40q-1 -5 -1.5 -13.5t1 -32.5t7 -46t19.5 -49t35 -46t58 -32.5t84 -13.5q80 0 123 40.5t43 96.5q0 39 -18.5 68.5
t-46 45.5t-60 35t-60 37t-46 51.5t-18.5 77.5h110q0 -40 28.5 -71.5t69 -54.5t81 -47.5t69 -63.5t28.5 -89z" />
    <glyph glyph-name="Agrave" unicode="&#xc0;" horiz-adv-x="974" 
d="M296 1043h150l116 -188h-67zM815 0l-111 247h-435l-111 -247h-138l360 777h214l360 -777h-139zM470 692l-162 -360h358l-161 360h-35z" />
    <glyph glyph-name="Aacute" unicode="&#xc1;" horiz-adv-x="974" 
d="M526 1043h150l-199 -188h-67zM815 0l-111 247h-435l-111 -247h-138l360 777h214l360 -777h-139zM470 692l-162 -360h358l-161 360h-35z" />
    <glyph glyph-name="Acircumflex" unicode="&#xc2;" horiz-adv-x="974" 
d="M412 1043h90l176 -188h-67l-154 106l-154 -106h-67zM815 0l-111 247h-435l-111 -247h-138l360 777h214l360 -777h-139zM470 692l-162 -360h358l-161 360h-35z" />
    <glyph glyph-name="Atilde" unicode="&#xc3;" horiz-adv-x="974" 
d="M568 957q22 0 38 14t20 28l5 14l40 -36q-1 -4 -3 -10.5t-10.5 -23t-19.5 -29t-30.5 -23t-42.5 -10.5q-41 0 -85.5 28t-72.5 28q-21 0 -36.5 -14t-20.5 -28l-5 -14l-40 36q1 4 3 10.5t10.5 23t19.5 29t30.5 23t42.5 10.5q40 0 85.5 -28t71.5 -28zM815 0l-111 247h-435
l-111 -247h-138l360 777h214l360 -777h-139zM470 692l-162 -360h358l-161 360h-35z" />
    <glyph glyph-name="Adieresis" unicode="&#xc4;" horiz-adv-x="974" 
d="M327 903v96h120v-96h-120zM527 903v96h120v-96h-120zM815 0l-111 247h-435l-111 -247h-138l360 777h214l360 -777h-139zM470 692l-162 -360h358l-161 360h-35z" />
    <glyph glyph-name="Aring" unicode="&#xc5;" horiz-adv-x="974" 
d="M378 951q0 45 32 78t77 33q47 0 79 -31.5t32 -79.5q0 -44 -33 -76.5t-78 -32.5q-44 0 -76.5 32.5t-32.5 76.5zM439 952q0 -21 14 -35t35 -14t35 14.5t14 34.5q0 19 -14.5 34t-34.5 15q-21 0 -35 -14t-14 -35zM815 0l-111 247h-435l-111 -247h-138l360 777h214l360 -777
h-139zM470 692l-162 -360h358l-161 360h-35z" />
    <glyph glyph-name="AE" unicode="&#xc6;" horiz-adv-x="1169" 
d="M584 0v347h-280l-156 -347h-138l360 777h730v-85h-386v-260h358v-85h-358v-262h415v-85h-545zM460 692l-117 -260h241v260h-124z" />
    <glyph glyph-name="Ccedilla" unicode="&#xc7;" horiz-adv-x="984" 
d="M903 469l-134 -40q0 5 -1 14.5t-7.5 37t-16.5 52.5t-31 55t-49 52t-72.5 37t-98.5 15q-137 0 -216.5 -85.5t-79.5 -218.5q0 -131 84 -217t222 -86q57 0 104 13.5t76 35.5t50.5 48t32 52.5t16.5 48.5t7 35l1 14l134 -39q-1 -6 -3 -17.5t-12.5 -43t-27 -60.5t-49.5 -64.5
t-75 -61t-108 -43t-146 -17.5h-1l-18 -51q20 17 54 17q35 0 57 -21.5t22 -61.5q0 -49 -37.5 -77.5t-94.5 -28.5q-35 0 -65 11.5t-42 23.5l-12 12l18 68q4 -6 11 -15.5t32 -25.5t53 -16q31 0 49 13.5t18 37.5q0 21 -11.5 32.5t-30.5 11.5q-12 0 -21.5 -5.5t-13.5 -10.5l-4 -6
l-43 3l31 91q-183 14 -288.5 123.5t-105.5 276.5q0 180 115 291.5t318 111.5q77 0 141.5 -18t105.5 -46t73 -62.5t48 -69t26.5 -62.5t12.5 -46z" />
    <glyph glyph-name="Egrave" unicode="&#xc8;" horiz-adv-x="745" 
d="M206 1043h150l116 -188h-67zM90 0v777h586v-85h-456v-260h428v-85h-428v-262h485v-85h-615z" />
    <glyph glyph-name="Eacute" unicode="&#xc9;" horiz-adv-x="745" 
d="M436 1043h150l-199 -188h-67zM90 0v777h586v-85h-456v-260h428v-85h-428v-262h485v-85h-615z" />
    <glyph glyph-name="Ecircumflex" unicode="&#xca;" horiz-adv-x="745" 
d="M352 1043h90l176 -188h-67l-154 106l-154 -106h-67zM90 0v777h586v-85h-456v-260h428v-85h-428v-262h485v-85h-615z" />
    <glyph glyph-name="Edieresis" unicode="&#xcb;" horiz-adv-x="745" 
d="M267 903v96h120v-96h-120zM467 903v96h120v-96h-120zM90 0v777h586v-85h-456v-260h428v-85h-428v-262h485v-85h-615z" />
    <glyph glyph-name="Igrave" unicode="&#xcc;" horiz-adv-x="310" 
d="M-56 1043h150l116 -188h-67zM90 777h130v-777h-130v777z" />
    <glyph glyph-name="Iacute" unicode="&#xcd;" horiz-adv-x="310" 
d="M174 1043h150l-199 -188h-67zM90 777h130v-777h-130v777z" />
    <glyph glyph-name="Icircumflex" unicode="&#xce;" horiz-adv-x="310" 
d="M90 1043h90l176 -188h-67l-154 106l-154 -106h-67zM90 777h130v-777h-130v777z" />
    <glyph glyph-name="Idieresis" unicode="&#xcf;" horiz-adv-x="310" 
d="M5 903v96h120v-96h-120zM205 903v96h120v-96h-120zM90 777h130v-777h-130v777z" />
    <glyph glyph-name="Ntilde" unicode="&#xd1;" horiz-adv-x="931" 
d="M546 955q22 0 38 14t20 28l5 14l40 -36q-1 -4 -3 -10.5t-10.5 -23t-19.5 -29t-30.5 -23t-42.5 -10.5q-41 0 -85.5 28t-72.5 28q-21 0 -36.5 -14t-20.5 -28l-5 -14l-40 36q1 4 3 10.5t10.5 23t19.5 29t30.5 23t42.5 10.5q40 0 85.5 -28t71.5 -28zM841 777v-777h-160
l-461 642v-642h-130v777h160l461 -642v642h130z" />
    <glyph glyph-name="Ograve" unicode="&#xd2;" horiz-adv-x="1027" 
d="M293 1043h150l116 -188h-67zM967 388q0 -177 -124.5 -289.5t-329.5 -112.5t-329 112.5t-124 289.5q0 178 124 290.5t329 112.5t329.5 -113t124.5 -290zM830 388q0 131 -88.5 217.5t-228.5 86.5q-139 0 -227.5 -86.5t-88.5 -217.5q0 -130 88.5 -216.5t227.5 -86.5
q140 0 228.5 86.5t88.5 216.5z" />
    <glyph glyph-name="Oacute" unicode="&#xd3;" horiz-adv-x="1027" 
d="M523 1043h150l-199 -188h-67zM967 388q0 -177 -124.5 -289.5t-329.5 -112.5t-329 112.5t-124 289.5q0 178 124 290.5t329 112.5t329.5 -113t124.5 -290zM830 388q0 131 -88.5 217.5t-228.5 86.5q-139 0 -227.5 -86.5t-88.5 -217.5q0 -130 88.5 -216.5t227.5 -86.5
q140 0 228.5 86.5t88.5 216.5z" />
    <glyph glyph-name="Ocircumflex" unicode="&#xd4;" horiz-adv-x="1027" 
d="M467 1043h90l176 -188h-67l-154 106l-154 -106h-67zM967 388q0 -177 -124.5 -289.5t-329.5 -112.5t-329 112.5t-124 289.5q0 178 124 290.5t329 112.5t329.5 -113t124.5 -290zM830 388q0 131 -88.5 217.5t-228.5 86.5q-139 0 -227.5 -86.5t-88.5 -217.5
q0 -130 88.5 -216.5t227.5 -86.5q140 0 228.5 86.5t88.5 216.5z" />
    <glyph glyph-name="Odieresis" unicode="&#xd6;" horiz-adv-x="1027" 
d="M354 903v96h120v-96h-120zM554 903v96h120v-96h-120zM967 388q0 -177 -124.5 -289.5t-329.5 -112.5t-329 112.5t-124 289.5q0 178 124 290.5t329 112.5t329.5 -113t124.5 -290zM830 388q0 131 -88.5 217.5t-228.5 86.5q-139 0 -227.5 -86.5t-88.5 -217.5
q0 -130 88.5 -216.5t227.5 -86.5q140 0 228.5 86.5t88.5 216.5z" />
    <glyph glyph-name="multiply" unicode="&#xd7;" horiz-adv-x="650" 
d="M60 502l36 36l229 -229l229 229l36 -36l-229 -229l229 -229l-36 -36l-229 229l-229 -229l-36 36l229 229z" />
    <glyph glyph-name="Oslash" unicode="&#xd8;" horiz-adv-x="1027" 
d="M967 388q0 -177 -124.5 -289.5t-329.5 -112.5q-50 0 -103 8l-33 -99l-49 15l32 96q-140 37 -220 139.5t-80 242.5q0 178 124 290.5t329 112.5q52 0 103 -8l33 99l51 -16l-32 -95q139 -38 219 -140.5t80 -242.5zM197 388q0 -98 52.5 -174.5t142.5 -108.5l192 580
q-31 7 -71 7q-139 0 -227.5 -86.5t-88.5 -217.5zM830 388q0 99 -52.5 175t-142.5 108l-193 -579q32 -7 71 -7q140 0 228.5 86.5t88.5 216.5z" />
    <glyph glyph-name="Ugrave" unicode="&#xd9;" horiz-adv-x="916" 
d="M256 1043h150l116 -188h-67zM696 777h130v-456q0 -335 -368 -335t-368 335v456h130v-456q0 -74 15.5 -122t49 -72t73.5 -33t100 -9t100 9t73.5 33t49 72t15.5 122v456z" />
    <glyph glyph-name="Uacute" unicode="&#xda;" horiz-adv-x="916" 
d="M486 1043h150l-199 -188h-67zM696 777h130v-456q0 -335 -368 -335t-368 335v456h130v-456q0 -74 15.5 -122t49 -72t73.5 -33t100 -9t100 9t73.5 33t49 72t15.5 122v456z" />
    <glyph glyph-name="Ucircumflex" unicode="&#xdb;" horiz-adv-x="916" 
d="M402 1043h90l176 -188h-67l-154 106l-154 -106h-67zM696 777h130v-456q0 -335 -368 -335t-368 335v456h130v-456q0 -74 15.5 -122t49 -72t73.5 -33t100 -9t100 9t73.5 33t49 72t15.5 122v456z" />
    <glyph glyph-name="Udieresis" unicode="&#xdc;" horiz-adv-x="916" 
d="M317 903v96h120v-96h-120zM517 903v96h120v-96h-120zM696 777h130v-456q0 -335 -368 -335t-368 335v456h130v-456q0 -74 15.5 -122t49 -72t73.5 -33t100 -9t100 9t73.5 33t49 72t15.5 122v456z" />
    <glyph glyph-name="Yacute" unicode="&#xdd;" horiz-adv-x="852" 
d="M453 1043h150l-199 -188h-67zM361 377l-351 400h150l266 -303l266 303h150l-351 -400v-377h-130v377z" />
    <glyph glyph-name="germandbls" unicode="&#xdf;" horiz-adv-x="689" 
d="M639 170q0 -84 -55 -134t-139 -50q-32 0 -59 8t-43 20t-28 24t-17 20l-4 8l24 89q1 -3 2.5 -8.5t9.5 -19.5t17.5 -24.5t27.5 -19t40 -8.5q44 0 70.5 27.5t26.5 73.5q0 61 -33.5 100.5t-82 54t-110.5 14.5v75q89 0 147.5 39.5t58.5 99.5q0 62 -36 102.5t-106 40.5
q-73 0 -106.5 -40.5t-33.5 -106.5v-555h-120v575q0 42 11 77.5t38 68t79.5 51.5t127.5 19q74 0 129 -19t85 -51t44.5 -68t14.5 -76q0 -48 -21.5 -83t-52 -51t-61 -25.5t-52.5 -10.5l-21 -1q5 -1 13 -2.5t32 -9t45.5 -17.5t47.5 -29t45 -42.5t32 -59t13 -76.5z" />
    <glyph glyph-name="agrave" unicode="&#xe0;" horiz-adv-x="704" 
d="M135 821h150l116 -188h-67zM565 133q-2 -58 44 -58q22 0 39.5 12.5t24.5 24.5l7 13l24 -89q-4 -6 -13 -14t-42.5 -22t-74.5 -14q-53 0 -88.5 30.5t-35.5 98.5v95q-3 -9 -9.5 -24t-29.5 -54t-49 -68.5t-69 -53.5t-89 -24q-60 0 -97 34.5t-37 87.5q0 38 18.5 75t59 74.5
t118.5 66t184 40.5q-2 1 0 12t-4.5 28.5t-16.5 34.5t-36 29t-62 12t-66 -11.5t-46 -28t-27 -33t-14 -27.5l-4 -12l-124 36q2 7 7 18t26.5 39.5t49.5 50t80 39.5t114 18q120 0 183 -57t61 -146zM197 133q0 -58 53 -58q48 0 97.5 47t76.5 98t26 75v35q-79 -20 -133 -47
t-78 -55.5t-33 -50.5t-9 -44z" />
    <glyph glyph-name="aacute" unicode="&#xe1;" horiz-adv-x="704" 
d="M385 821h150l-199 -188h-67zM565 133q-2 -58 44 -58q22 0 39.5 12.5t24.5 24.5l7 13l24 -89q-4 -6 -13 -14t-42.5 -22t-74.5 -14q-53 0 -88.5 30.5t-35.5 98.5v95q-3 -9 -9.5 -24t-29.5 -54t-49 -68.5t-69 -53.5t-89 -24q-60 0 -97 34.5t-37 87.5q0 38 18.5 75t59 74.5
t118.5 66t184 40.5q-2 1 0 12t-4.5 28.5t-16.5 34.5t-36 29t-62 12t-66 -11.5t-46 -28t-27 -33t-14 -27.5l-4 -12l-124 36q2 7 7 18t26.5 39.5t49.5 50t80 39.5t114 18q120 0 183 -57t61 -146zM197 133q0 -58 53 -58q48 0 97.5 47t76.5 98t26 75v35q-79 -20 -133 -47
t-78 -55.5t-33 -50.5t-9 -44z" />
    <glyph glyph-name="acircumflex" unicode="&#xe2;" horiz-adv-x="704" 
d="M291 821h90l176 -188h-67l-154 106l-154 -106h-67zM565 133q-2 -58 44 -58q22 0 39.5 12.5t24.5 24.5l7 13l24 -89q-4 -6 -13 -14t-42.5 -22t-74.5 -14q-53 0 -88.5 30.5t-35.5 98.5v95q-3 -9 -9.5 -24t-29.5 -54t-49 -68.5t-69 -53.5t-89 -24q-60 0 -97 34.5t-37 87.5
q0 38 18.5 75t59 74.5t118.5 66t184 40.5q-2 1 0 12t-4.5 28.5t-16.5 34.5t-36 29t-62 12t-66 -11.5t-46 -28t-27 -33t-14 -27.5l-4 -12l-124 36q2 7 7 18t26.5 39.5t49.5 50t80 39.5t114 18q120 0 183 -57t61 -146zM197 133q0 -58 53 -58q48 0 97.5 47t76.5 98t26 75v35
q-79 -20 -133 -47t-78 -55.5t-33 -50.5t-9 -44z" />
    <glyph glyph-name="atilde" unicode="&#xe3;" horiz-adv-x="704" 
d="M417 735q22 0 38 14t21 28l4 14l40 -36q-1 -4 -3 -10.5t-10.5 -23t-19.5 -29t-30.5 -23t-42.5 -10.5q-41 0 -85.5 28t-72.5 28q-21 0 -36.5 -14t-20.5 -28l-5 -14l-40 36q1 4 3 10.5t10.5 23t19.5 29t30.5 23t42.5 10.5q40 0 85.5 -28t71.5 -28zM565 133q-2 -58 44 -58
q22 0 39.5 12.5t24.5 24.5l7 13l24 -89q-4 -6 -13 -14t-42.5 -22t-74.5 -14q-53 0 -88.5 30.5t-35.5 98.5v95q-3 -9 -9.5 -24t-29.5 -54t-49 -68.5t-69 -53.5t-89 -24q-60 0 -97 34.5t-37 87.5q0 38 18.5 75t59 74.5t118.5 66t184 40.5q-2 1 0 12t-4.5 28.5t-16.5 34.5
t-36 29t-62 12t-66 -11.5t-46 -28t-27 -33t-14 -27.5l-4 -12l-124 36q2 7 7 18t26.5 39.5t49.5 50t80 39.5t114 18q120 0 183 -57t61 -146zM197 133q0 -58 53 -58q48 0 97.5 47t76.5 98t26 75v35q-79 -20 -133 -47t-78 -55.5t-33 -50.5t-9 -44z" />
    <glyph glyph-name="adieresis" unicode="&#xe4;" horiz-adv-x="704" 
d="M176 681v96h120v-96h-120zM376 681v96h120v-96h-120zM565 133q-2 -58 44 -58q22 0 39.5 12.5t24.5 24.5l7 13l24 -89q-4 -6 -13 -14t-42.5 -22t-74.5 -14q-53 0 -88.5 30.5t-35.5 98.5v95q-3 -9 -9.5 -24t-29.5 -54t-49 -68.5t-69 -53.5t-89 -24q-60 0 -97 34.5t-37 87.5
q0 38 18.5 75t59 74.5t118.5 66t184 40.5q-2 1 0 12t-4.5 28.5t-16.5 34.5t-36 29t-62 12t-66 -11.5t-46 -28t-27 -33t-14 -27.5l-4 -12l-124 36q2 7 7 18t26.5 39.5t49.5 50t80 39.5t114 18q120 0 183 -57t61 -146zM197 133q0 -58 53 -58q48 0 97.5 47t76.5 98t26 75v35
q-79 -20 -133 -47t-78 -55.5t-33 -50.5t-9 -44z" />
    <glyph glyph-name="aring" unicode="&#xe5;" horiz-adv-x="704" 
d="M227 729q0 45 32 78t77 33q47 0 79 -31.5t32 -79.5q0 -44 -33 -76.5t-78 -32.5q-44 0 -76.5 32.5t-32.5 76.5zM288 730q0 -21 14 -35t35 -14t35 14.5t14 34.5q0 19 -14.5 34t-34.5 15q-21 0 -35 -14t-14 -35zM565 133q-2 -58 44 -58q22 0 39.5 12.5t24.5 24.5l7 13
l24 -89q-4 -6 -13 -14t-42.5 -22t-74.5 -14q-53 0 -88.5 30.5t-35.5 98.5v95q-3 -9 -9.5 -24t-29.5 -54t-49 -68.5t-69 -53.5t-89 -24q-60 0 -97 34.5t-37 87.5q0 38 18.5 75t59 74.5t118.5 66t184 40.5q-2 1 0 12t-4.5 28.5t-16.5 34.5t-36 29t-62 12t-66 -11.5t-46 -28
t-27 -33t-14 -27.5l-4 -12l-124 36q2 7 7 18t26.5 39.5t49.5 50t80 39.5t114 18q120 0 183 -57t61 -146zM197 133q0 -58 53 -58q48 0 97.5 47t76.5 98t26 75v35q-79 -20 -133 -47t-78 -55.5t-33 -50.5t-9 -44z" />
    <glyph glyph-name="ae" unicode="&#xe6;" horiz-adv-x="1077" 
d="M741 75q42 0 73 15t45.5 36.5t23 43t9.5 36.5l1 15l124 -36q-1 -8 -5 -21.5t-23.5 -48t-47 -60.5t-81.5 -47.5t-122 -21.5q-106 0 -179.5 60t-89.5 181q-4 -10 -11 -26t-31.5 -57.5t-53 -73.5t-74.5 -58t-95 -26q-60 0 -97 34.5t-37 87.5q0 38 18.5 75t59 74.5t118.5 66
t184 40.5q-2 1 0 12t-4.5 28.5t-16.5 34.5t-36 29t-62 12t-66 -11.5t-46 -28t-27 -33t-14 -27.5l-4 -12l-124 36q2 7 7 18t26.5 39.5t49.5 50t80 39.5t114 18q68 0 120.5 -25t80.5 -64q78 89 210 89q62 0 109.5 -16.5t75 -42.5t46 -57.5t25 -63t9 -57.5t1.5 -42l-2 -17
l-424 10v-5q0 -93 40.5 -148t122.5 -55zM875 338q0 6 -0.5 15.5t-8 34t-21 43t-43.5 34t-71 15.5q-134 0 -151 -156zM197 133q0 -58 53 -58q48 0 97.5 47t76.5 98t26 75v35q-79 -20 -133 -47t-78 -55.5t-33 -50.5t-9 -44z" />
    <glyph glyph-name="ccedilla" unicode="&#xe7;" horiz-adv-x="727" 
d="M543 221l124 -36q-1 -8 -5 -21.5t-24.5 -48t-50 -60.5t-87 -47.5t-130.5 -21.5l-18 -51q20 17 54 17q35 0 57 -21.5t22 -61.5q0 -49 -37.5 -77.5t-94.5 -28.5q-35 0 -65 11.5t-42 23.5l-12 12l18 68q4 -6 11 -15.5t32 -25.5t53 -16q31 0 49 13.5t18 37.5q0 21 -11.5 32.5
t-30.5 11.5q-12 0 -21.5 -5.5t-13.5 -10.5l-4 -6l-43 3l32 92q-113 13 -188 90t-75 199q0 128 82 209.5t221 81.5q65 0 116.5 -16.5t82 -42.5t51 -61t28.5 -67.5t10 -67.5l-124 -36q7 84 -33 143t-131 59q-83 0 -129 -55.5t-46 -146.5q0 -95 54 -149t141 -54q45 0 77.5 15
t47.5 36.5t24 43t10 36.5z" />
    <glyph glyph-name="egrave" unicode="&#xe8;" horiz-adv-x="727" 
d="M170 821h150l116 -188h-67zM667 185q-1 -8 -5 -21.5t-24.5 -48t-50 -60.5t-87.5 -47.5t-132 -21.5q-128 0 -218 78.5t-90 213.5q0 128 82.5 209.5t225.5 81.5q64 0 114 -17t79 -44t49.5 -59.5t28 -65t11.5 -59.5t3 -44l-1 -17l-464 10q1 -93 55.5 -145.5t139.5 -52.5
q45 0 78 15t48 36.5t23.5 43t9.5 36.5l1 15zM525 339q0 6 -1.5 15.5t-11 33.5t-25.5 43t-49 34t-77 15q-68 0 -111.5 -39t-56.5 -107z" />
    <glyph glyph-name="eacute" unicode="&#xe9;" horiz-adv-x="727" 
d="M420 821h150l-199 -188h-67zM667 185q-1 -8 -5 -21.5t-24.5 -48t-50 -60.5t-87.5 -47.5t-132 -21.5q-128 0 -218 78.5t-90 213.5q0 128 82.5 209.5t225.5 81.5q64 0 114 -17t79 -44t49.5 -59.5t28 -65t11.5 -59.5t3 -44l-1 -17l-464 10q1 -93 55.5 -145.5t139.5 -52.5
q45 0 78 15t48 36.5t23.5 43t9.5 36.5l1 15zM525 339q0 6 -1.5 15.5t-11 33.5t-25.5 43t-49 34t-77 15q-68 0 -111.5 -39t-56.5 -107z" />
    <glyph glyph-name="ecircumflex" unicode="&#xea;" horiz-adv-x="727" 
d="M326 821h90l176 -188h-67l-154 106l-154 -106h-67zM667 185q-1 -8 -5 -21.5t-24.5 -48t-50 -60.5t-87.5 -47.5t-132 -21.5q-128 0 -218 78.5t-90 213.5q0 128 82.5 209.5t225.5 81.5q64 0 114 -17t79 -44t49.5 -59.5t28 -65t11.5 -59.5t3 -44l-1 -17l-464 10
q1 -93 55.5 -145.5t139.5 -52.5q45 0 78 15t48 36.5t23.5 43t9.5 36.5l1 15zM525 339q0 6 -1.5 15.5t-11 33.5t-25.5 43t-49 34t-77 15q-68 0 -111.5 -39t-56.5 -107z" />
    <glyph glyph-name="edieresis" unicode="&#xeb;" horiz-adv-x="727" 
d="M211 681v96h120v-96h-120zM411 681v96h120v-96h-120zM667 185q-1 -8 -5 -21.5t-24.5 -48t-50 -60.5t-87.5 -47.5t-132 -21.5q-128 0 -218 78.5t-90 213.5q0 128 82.5 209.5t225.5 81.5q64 0 114 -17t79 -44t49.5 -59.5t28 -65t11.5 -59.5t3 -44l-1 -17l-464 10
q1 -93 55.5 -145.5t139.5 -52.5q45 0 78 15t48 36.5t23.5 43t9.5 36.5l1 15zM525 339q0 6 -1.5 15.5t-11 33.5t-25.5 43t-49 34t-77 15q-68 0 -111.5 -39t-56.5 -107z" />
    <glyph glyph-name="igrave" unicode="&#xec;" horiz-adv-x="300" 
d="M-57 821h150l116 -188h-67zM90 0v555h120v-555h-120z" />
    <glyph glyph-name="iacute" unicode="&#xed;" horiz-adv-x="300" 
d="M218 821h150l-199 -188h-67zM90 0v555h120v-555h-120z" />
    <glyph glyph-name="icircumflex" unicode="&#xee;" horiz-adv-x="300" 
d="M105 821h90l176 -188h-67l-154 106l-154 -106h-67zM90 0v555h120v-555h-120z" />
    <glyph glyph-name="idieresis" unicode="&#xef;" horiz-adv-x="300" 
d="M-10 681v96h120v-96h-120zM190 681v96h120v-96h-120zM90 0v555h120v-555h-120z" />
    <glyph glyph-name="ntilde" unicode="&#xf1;" horiz-adv-x="748" 
d="M454 735q22 0 38 14t20 28l5 14l40 -36q-1 -4 -3 -10.5t-10.5 -23t-19.5 -29t-30.5 -23t-42.5 -10.5q-41 0 -85.5 28t-72.5 28q-21 0 -36.5 -14t-20.5 -28l-5 -14l-40 36q1 4 3 10.5t10.5 23t19.5 29t30.5 23t42.5 10.5q40 0 85.5 -28t71.5 -28zM538 0v342
q0 138 -157 138q-43 0 -75.5 -12.5t-50 -30t-28.5 -40t-14 -38.5t-3 -29v-330h-120v555h58l51 -165q1 7 3 19t16 43t35.5 54.5t67 43t104.5 19.5q233 0 233 -225v-344h-120z" />
    <glyph glyph-name="ograve" unicode="&#xf2;" horiz-adv-x="750" 
d="M174 821h150l116 -188h-67zM60 278q0 126 85 208.5t230 82.5t230 -82.5t85 -208.5q0 -127 -85 -209.5t-230 -82.5t-230 82.5t-85 209.5zM188 278q0 -91 50.5 -147t136.5 -56q85 0 136 56t51 147t-51 146.5t-136 55.5q-86 0 -136.5 -55.5t-50.5 -146.5z" />
    <glyph glyph-name="oacute" unicode="&#xf3;" horiz-adv-x="750" 
d="M424 821h150l-199 -188h-67zM60 278q0 126 85 208.5t230 82.5t230 -82.5t85 -208.5q0 -127 -85 -209.5t-230 -82.5t-230 82.5t-85 209.5zM188 278q0 -91 50.5 -147t136.5 -56q85 0 136 56t51 147t-51 146.5t-136 55.5q-86 0 -136.5 -55.5t-50.5 -146.5z" />
    <glyph glyph-name="ocircumflex" unicode="&#xf4;" horiz-adv-x="750" 
d="M330 821h90l176 -188h-67l-154 106l-154 -106h-67zM60 278q0 126 85 208.5t230 82.5t230 -82.5t85 -208.5q0 -127 -85 -209.5t-230 -82.5t-230 82.5t-85 209.5zM188 278q0 -91 50.5 -147t136.5 -56q85 0 136 56t51 147t-51 146.5t-136 55.5q-86 0 -136.5 -55.5
t-50.5 -146.5z" />
    <glyph glyph-name="odieresis" unicode="&#xf6;" horiz-adv-x="750" 
d="M215 681v96h120v-96h-120zM415 681v96h120v-96h-120zM60 278q0 126 85 208.5t230 82.5t230 -82.5t85 -208.5q0 -127 -85 -209.5t-230 -82.5t-230 82.5t-85 209.5zM188 278q0 -91 50.5 -147t136.5 -56q85 0 136 56t51 147t-51 146.5t-136 55.5q-86 0 -136.5 -55.5
t-50.5 -146.5z" />
    <glyph glyph-name="divide" unicode="&#xf7;" horiz-adv-x="650" 
d="M280 523h90v-112h-90v112zM630 286v-50h-610v50h610zM280 112h90v-112h-90v112z" />
    <glyph glyph-name="oslash" unicode="&#xf8;" horiz-adv-x="750" 
d="M60 278q0 126 85 208.5t230 82.5q32 0 67 -5l44 133l51 -16l-43 -130q93 -30 144.5 -103t51.5 -170q0 -127 -85 -209.5t-230 -82.5q-31 0 -68 5l-44 -133l-49 15l43 130q-93 30 -145 104t-52 171zM188 278q0 -64 26 -112t73 -72l126 383q-18 3 -38 3q-86 0 -136.5 -55.5
t-50.5 -146.5zM562 278q0 63 -26 111t-73 71l-127 -382q19 -3 39 -3q85 0 136 56t51 147z" />
    <glyph glyph-name="ugrave" unicode="&#xf9;" horiz-adv-x="748" 
d="M183 821h150l116 -188h-67zM210 555v-342q0 -138 157 -138q43 0 75.5 12.5t50 30t28.5 40t14 38.5t3 29v330h120v-555h-58l-51 165q-1 -7 -3 -19t-16 -43t-35.5 -54.5t-67 -43t-104.5 -19.5q-233 0 -233 225v344h120z" />
    <glyph glyph-name="uacute" unicode="&#xfa;" horiz-adv-x="748" 
d="M433 821h150l-199 -188h-67zM210 555v-342q0 -138 157 -138q43 0 75.5 12.5t50 30t28.5 40t14 38.5t3 29v330h120v-555h-58l-51 165q-1 -7 -3 -19t-16 -43t-35.5 -54.5t-67 -43t-104.5 -19.5q-233 0 -233 225v344h120z" />
    <glyph glyph-name="ucircumflex" unicode="&#xfb;" horiz-adv-x="748" 
d="M339 821h90l176 -188h-67l-154 106l-154 -106h-67zM210 555v-342q0 -138 157 -138q43 0 75.5 12.5t50 30t28.5 40t14 38.5t3 29v330h120v-555h-58l-51 165q-1 -7 -3 -19t-16 -43t-35.5 -54.5t-67 -43t-104.5 -19.5q-233 0 -233 225v344h120z" />
    <glyph glyph-name="udieresis" unicode="&#xfc;" horiz-adv-x="748" 
d="M224 681v96h120v-96h-120zM424 681v96h120v-96h-120zM210 555v-342q0 -138 157 -138q43 0 75.5 12.5t50 30t28.5 40t14 38.5t3 29v330h120v-555h-58l-51 165q-1 -7 -3 -19t-16 -43t-35.5 -54.5t-67 -43t-104.5 -19.5q-233 0 -233 225v344h120z" />
    <glyph glyph-name="yacute" unicode="&#xfd;" horiz-adv-x="636" 
d="M354 821h150l-199 -188h-67zM246 -1l16 36l-252 520h138l175 -393l167 393h136l-269 -555q-60 -124 -111 -180.5t-117 -56.5q-33 0 -60.5 11.5t-38.5 23.5l-11 11l14 89q3 -5 8 -12.5t23 -19t40 -11.5q36 0 75 40t67 104z" />
    <glyph glyph-name="ydieresis" unicode="&#xff;" horiz-adv-x="636" 
d="M145 681v96h120v-96h-120zM345 681v96h120v-96h-120zM246 -1l16 36l-252 520h138l175 -393l167 393h136l-269 -555q-60 -124 -111 -180.5t-117 -56.5q-33 0 -60.5 11.5t-38.5 23.5l-11 11l14 89q3 -5 8 -12.5t23 -19t40 -11.5q36 0 75 40t67 104z" />
    <glyph glyph-name="Aogonek" unicode="&#x104;" horiz-adv-x="991" 
d="M951 -115l20 -137q-48 -37 -105 -40t-97 30.5t-40 94.5q0 62 36 105t98 62h-48l-111 247h-435l-111 -247h-138l360 777h214l360 -777q-86 -35 -113.5 -60.5t-27.5 -58.5t25.5 -45.5t58.5 1.5t54 48zM308 332h358l-161 360h-35z" />
    <glyph glyph-name="aogonek" unicode="&#x105;" horiz-adv-x="731" 
d="M711 -115l20 -137q-48 -37 -105 -40t-97 30.5t-40 94.5q0 89 84 153q-52 0 -87.5 30.5t-35.5 98.5v94q-5 -12 -9 -21t-20 -40.5t-35.5 -55t-46 -50t-62 -41.5t-73.5 -15q-60 0 -97 34.5t-37 87.5q0 38 18.5 75t59 74.5t118.5 66t184 40.5q-2 1 0 12t-4.5 28.5t-16.5 34.5
t-36 29t-62 12t-66 -11.5t-46 -28t-27 -33t-14 -27.5l-4 -12l-124 36q2 7 7 18t26.5 39.5t49.5 50t80 39.5t114 18q120 0 183 -57t61 -146l-6 -233q-2 -58 44 -58q22 0 39.5 12.5t24.5 24.5l7 13l24 -89l-2 -3l-1 -1h-1q-16 -16 -30 -23q-61 -47 -79 -72.5t-18 -55.5
q0 -33 25.5 -45.5t58.5 1.5t54 48zM197 133q0 -58 53 -58q48 0 97.5 47t76.5 98t26 75v35q-79 -20 -133 -47t-78 -55.5t-33 -50.5t-9 -44z" />
    <glyph glyph-name="Cacute" unicode="&#x106;" horiz-adv-x="984" 
d="M728 1069l-199 -188h-67l116 188h150zM790 332l134 -39q-1 -6 -3 -17.5t-12.5 -43t-27 -60.5t-49.5 -64.5t-75 -61t-108 -43t-146 -17.5q-204 0 -323.5 112t-119.5 290q0 180 115 291.5t318 111.5q77 0 141.5 -18t105.5 -46t73 -62.5t48 -69t26.5 -62.5t12.5 -46l3 -18
l-134 -40q0 5 -1 14.5t-7.5 37t-16.5 52.5t-31 55t-49 52t-72.5 37t-98.5 15q-137 0 -216.5 -85.5t-79.5 -218.5q0 -131 84 -217t222 -86q57 0 104 13.5t76 35.5t50.5 48t32 52.5t16.5 48.5t7 35z" />
    <glyph glyph-name="cacute" unicode="&#x107;" horiz-adv-x="727" 
d="M585 821l-199 -188h-67l116 188h150zM543 221l124 -36q-1 -4 -2.5 -11t-10.5 -28t-21.5 -39.5t-36.5 -41.5t-53.5 -39.5t-75 -28t-99.5 -11.5q-128 0 -218 78.5t-90 213.5q0 128 82 209.5t221 81.5q65 0 116.5 -16.5t82 -42.5t51 -61t28.5 -67.5t10 -67.5l-124 -36
q7 84 -33 143t-131 59q-83 0 -129 -55.5t-46 -146.5q0 -95 54 -149t141 -54q45 0 77.5 15t47.5 36.5t24 43t10 36.5z" />
    <glyph glyph-name="Eogonek" unicode="&#x118;" horiz-adv-x="782" 
d="M702 -115l20 -137q-48 -37 -105 -40t-97 30.5t-40 94.5q0 62 36 105t98 62h-524v777h586v-85h-456v-260h428v-85h-428v-262h485v-85q-86 -35 -113.5 -60.5t-27.5 -58.5t25.5 -45.5t58.5 1.5t54 48z" />
    <glyph glyph-name="eogonek" unicode="&#x119;" horiz-adv-x="727" 
d="M632 106q-82 -119 -105.5 -161.5t-23.5 -63.5q0 -33 25.5 -45.5t58.5 1.5t54 48l20 -137q-48 -37 -105 -40.5t-97 31t-40 96.5q0 32 14.5 64t30 52t51.5 61q-63 -26 -147 -26q-128 0 -218 78.5t-90 213.5q0 128 82.5 209.5t225.5 81.5q64 0 114 -17t79 -44t49.5 -59.5
t28 -65t11.5 -59.5t3 -44l-1 -17l-464 10q1 -93 55 -145.5t140 -52.5q45 0 78 15t48 36.5t23.5 43t9.5 36.5l1 15l124 -36q-6 -37 -35 -79zM525 339q0 6 -1.5 15.5t-11 33.5t-25.5 43t-49 34t-77 15q-69 0 -112 -39.5t-56 -106.5z" />
    <glyph glyph-name="dotlessi" unicode="&#x131;" horiz-adv-x="300" 
d="M90 0v555h120v-555h-120z" />
    <glyph glyph-name="Lslash" unicode="&#x141;" horiz-adv-x="727" 
d="M282 85h445v-85h-575v240l-72 -55l-40 55l112 92v445h130v-338l273 224l59 -73l-332 -252v-253z" />
    <glyph glyph-name="lslash" unicode="&#x142;" horiz-adv-x="462" 
d="M432 485l-162 -118v-367h-120v280l-71 -52l-39 53l110 89v396q28 0 58 3t46 5l16 3v-310l113 91z" />
    <glyph glyph-name="Nacute" unicode="&#x143;" horiz-adv-x="931" 
d="M648 1069l-199 -188h-67l116 188h150zM841 0h-160l-461 642v-642h-130v777h160l461 -642v642h130v-777z" />
    <glyph glyph-name="nacute" unicode="&#x144;" horiz-adv-x="748" 
d="M604 821l-199 -188h-67l116 188h150zM538 0v342q0 138 -157 138q-43 0 -75.5 -12.5t-50 -30t-28.5 -40t-14 -38.5t-3 -29v-330h-120v555h58l51 -165q1 7 3 19t16 43t35.5 54.5t67 43t104.5 19.5q233 0 233 -225v-344h-120z" />
    <glyph glyph-name="OE" unicode="&#x152;" horiz-adv-x="1168" 
d="M1128 0h-534q-58 -14 -121 -14q-189 0 -301 112t-112 290t112 290.5t301 112.5q63 0 121 -14h505v-85h-339q111 -97 125 -260h186v-85h-186q-14 -165 -125 -262h368v-85zM603 347v85h145q-13 115 -87.5 187.5t-187.5 72.5q-124 0 -200 -86.5t-76 -217.5t76 -217t200 -86
q114 0 188.5 73t86.5 189h-145z" />
    <glyph glyph-name="oe" unicode="&#x153;" horiz-adv-x="1189" 
d="M60 278q0 127 80.5 209t224.5 82q156 0 239 -108q81 108 236 108q64 0 113.5 -16.5t77.5 -42.5t47.5 -57.5t26 -63t9.5 -57.5t2 -42l-2 -17l-444 10v-15q2 -92 51.5 -142.5t133.5 -50.5q45 0 77 15t45.5 36.5t20.5 43t7 36.5v15l124 -36q-1 -8 -4.5 -21.5t-22 -48
t-46.5 -60.5t-85 -47.5t-131 -21.5q-71 0 -132.5 29t-101.5 81q-38 -52 -100 -81t-141 -29q-144 0 -224.5 82t-80.5 210zM188 278q0 -92 46 -147.5t131 -55.5q84 0 130.5 55.5t46.5 147.5v9q-2 88 -48.5 140.5t-128.5 52.5q-85 0 -131 -55t-46 -147zM833 480
q-70 0 -110.5 -41.5t-49.5 -114.5l314 14q0 6 -0.5 15.5t-8.5 34t-22.5 43t-46.5 34t-76 15.5z" />
    <glyph glyph-name="Sacute" unicode="&#x15a;" horiz-adv-x="814" 
d="M638 1069l-199 -188h-67l116 188h150zM348 476l198 -44q228 -51 228 -224q0 -106 -93 -164t-240 -58q-107 0 -188.5 28t-125 72t-64.5 88.5t-23 88.5l134 39q0 -5 -0.5 -12.5t2.5 -30t11 -43t26.5 -45.5t46 -43t73.5 -30.5t105 -12.5q92 0 146.5 33.5t54.5 83.5
q0 52 -40 76.5t-136 47.5l-189 44q-98 23 -148 75t-50 123q0 95 79.5 159t233.5 64q69 0 126 -13t92 -33.5t61.5 -45t39 -49t20 -45t8.5 -33.5l1 -13l-134 -36q1 7 0.5 18.5t-11 40.5t-30.5 51t-66.5 40.5t-112.5 18.5q-78 0 -125 -31t-47 -81q0 -42 34 -65.5t103 -38.5z
" />
    <glyph glyph-name="sacute" unicode="&#x15b;" horiz-adv-x="647" 
d="M527 821l-199 -188h-67l116 188h150zM576 402l-124 -36v12.5t-6.5 27t-20 34.5t-45 27.5t-76.5 12.5q-58 0 -86.5 -19.5t-28.5 -51.5q0 -52 112 -71l136 -24q170 -30 170 -154q0 -78 -71 -126t-176 -48q-81 0 -144 20.5t-95 50t-52 58.5t-25 49l-4 21l124 36
q0 -3 -0.5 -8.5t2 -20.5t8 -28.5t19.5 -30.5t34.5 -29t55 -20.5t78.5 -8.5q55 0 86.5 21t31.5 54q0 60 -116 81l-122 22q-88 16 -129 56t-41 94q0 77 67 121.5t168 44.5q52 0 95 -9t70 -24t47.5 -32.5t31 -35.5t17 -33t7.5 -24z" />
    <glyph glyph-name="Ydieresis" unicode="&#x178;" horiz-adv-x="852" 
d="M266 903v96h120v-96h-120zM466 903v96h120v-96h-120zM361 377l-351 400h150l266 -303l266 303h150l-351 -400v-377h-130v377z" />
    <glyph glyph-name="Zacute" unicode="&#x179;" horiz-adv-x="743" 
d="M598 1069l-199 -188h-67l116 188h150zM723 0h-703v95l538 597h-538v85h703v-95l-538 -597h538v-85z" />
    <glyph glyph-name="zacute" unicode="&#x17a;" horiz-adv-x="610" 
d="M533 821l-199 -188h-67l116 188h150zM40 85l380 395h-380v75h530v-85l-375 -395h375v-75h-530v85z" />
    <glyph glyph-name="Zdotaccent" unicode="&#x17b;" horiz-adv-x="743" 
d="M312 999h120v-96h-120v96zM723 0h-703v95l538 597h-538v85h703v-95l-538 -597h538v-85z" />
    <glyph glyph-name="zdotaccent" unicode="&#x17c;" horiz-adv-x="610" 
d="M245 777h120v-96h-120v96zM40 85l380 395h-380v75h530v-85l-375 -395h375v-75h-530v85z" />
    <glyph glyph-name="circumflex" unicode="&#x2c6;" horiz-adv-x="1204" 
d="M556 821h90l176 -188h-67l-154 106l-154 -106h-67z" />
    <glyph glyph-name="ring" unicode="&#x2da;" horiz-adv-x="1204" 
d="M492 729q0 45 32 78t77 33q47 0 79 -31.5t32 -79.5q0 -44 -33 -76.5t-78 -32.5q-44 0 -76.5 32.5t-32.5 76.5zM553 730q0 -21 14 -35t35 -14t35 14.5t14 34.5q0 19 -14.5 34t-34.5 15q-21 0 -35 -14t-14 -35z" />
    <glyph glyph-name="tilde" unicode="&#x2dc;" horiz-adv-x="1204" 
d="M682 735q22 0 38 14t20 28l5 14l40 -36q-1 -4 -3 -10.5t-10.5 -23t-19.5 -29t-30.5 -23t-42.5 -10.5q-41 0 -85.5 28t-72.5 28q-21 0 -36.5 -14t-20.5 -28l-5 -14l-40 36q1 4 3 10.5t10.5 23t19.5 29t30.5 23t42.5 10.5q40 0 85.5 -28t71.5 -28z" />
    <glyph glyph-name="uni0344" unicode="&#x344;" horiz-adv-x="548" 
d="M296 821h150l-199 -188h-67zM19 633v96h120v-96h-120zM409 633v96h120v-96h-120z" />
    <glyph glyph-name="uni037E" unicode="&#x37e;" horiz-adv-x="310" 
d="M90 410v145h130v-145h-130zM220 145v-120q0 -55 -20 -105t-40 -73l-20 -23l-88 26q4 2 10 6t22.5 18.5t30 30.5t27 42t19.5 53h-71v145h130z" />
    <glyph glyph-name="tonos" unicode="&#x384;" horiz-adv-x="366" 
d="M166 821h150l-199 -188h-67z" />
    <glyph glyph-name="dieresistonos" unicode="&#x385;" horiz-adv-x="548" 
d="M296 821h150l-199 -188h-67zM19 633v96h120v-96h-120zM409 633v96h120v-96h-120z" />
    <glyph glyph-name="Alphatonos" unicode="&#x386;" horiz-adv-x="974" 
d="M815 0l-111 247h-435l-111 -247h-138l360 777h214l360 -777h-139zM156 777h150l-199 -188h-67zM470 692l-162 -360h358l-161 360h-35z" />
    <glyph glyph-name="anoteleia" unicode="&#x387;" horiz-adv-x="310" 
d="M90 410v145h130v-145h-130z" />
    <glyph glyph-name="Epsilontonos" unicode="&#x388;" horiz-adv-x="965" 
d="M310 0v777h586v-85h-456v-260h428v-85h-428v-262h485v-85h-615zM116 777h150l-199 -188h-67z" />
    <glyph glyph-name="Etatonos" unicode="&#x389;" horiz-adv-x="1150" 
d="M930 0v347h-490v-347h-130v777h130v-345h490v345h130v-777h-130zM116 777h150l-199 -188h-67z" />
    <glyph glyph-name="Iotatonos" unicode="&#x38a;" horiz-adv-x="528" 
d="M308 777h130v-777h-130v777zM116 777h150l-199 -188h-67z" />
    <glyph glyph-name="Omicrontonos" unicode="&#x38c;" horiz-adv-x="1107" 
d="M1047 388q0 -177 -124.5 -289.5t-329.5 -112.5t-329 112.5t-124 289.5q0 178 124 290.5t329 112.5t329.5 -113t124.5 -290zM116 777h150l-199 -188h-67zM910 388q0 131 -88.5 217.5t-228.5 86.5q-139 0 -227.5 -86.5t-88.5 -217.5q0 -130 88.5 -216.5t227.5 -86.5
q140 0 228.5 86.5t88.5 216.5z" />
    <glyph glyph-name="Upsilontonos" unicode="&#x38e;" horiz-adv-x="1142" 
d="M651 377l-351 400h150l266 -303l266 303h150l-351 -400v-377h-130v377zM116 777h150l-199 -188h-67z" />
    <glyph glyph-name="Omegatonos" unicode="&#x38f;" horiz-adv-x="1107" 
d="M120 85h267q-122 37 -184.5 127.5t-62.5 205.5q0 151 126.5 262t326.5 111t327 -111t127 -262q0 -111 -73 -203t-198 -130h291v-85h-407v81q114 20 182 103.5t68 203.5q0 131 -88.5 217.5t-228.5 86.5q-139 0 -227.5 -86.5t-88.5 -217.5q0 -118 66 -201t177 -105v-82
h-400v85zM116 777h150l-199 -188h-67z" />
    <glyph glyph-name="iotadieresistonos" unicode="&#x390;" horiz-adv-x="300" 
d="M207 821h150l-199 -188h-67zM-70 633v96h120v-96h-120zM320 633v96h120v-96h-120zM90 0v555h120v-555h-120z" />
    <glyph glyph-name="Alpha" unicode="&#x391;" horiz-adv-x="974" 
d="M815 0l-111 247h-435l-111 -247h-138l360 777h214l360 -777h-139zM470 692l-162 -360h358l-161 360h-35z" />
    <glyph glyph-name="Beta" unicode="&#x392;" horiz-adv-x="849" 
d="M789 221q0 -111 -85 -166t-264 -55h-350v777h330q349 0 349 -190q0 -42 -17 -75t-41.5 -50t-49.5 -27.5t-42 -13.5l-17 -3q4 0 10.5 -1t26 -5.5t37.5 -12t39.5 -22.5t37 -35t26 -51.5t10.5 -69.5zM220 441h200q100 0 156 28t56 98t-56 97.5t-156 27.5h-200v-251zM220 356
v-271h220q48 0 84 6t66.5 20.5t46 42t15.5 67.5q0 53 -29.5 84t-73 41t-109.5 10h-220z" />
    <glyph glyph-name="Gamma" unicode="&#x393;" horiz-adv-x="745" 
d="M90 0v777h586v-85h-456v-692h-130z" />
    <glyph glyph-name="uni0394" unicode="&#x394;" horiz-adv-x="974" 
d="M594 777l360 -777h-934l360 777h214zM470 692l-274 -607h581l-272 607h-35z" />
    <glyph glyph-name="Epsilon" unicode="&#x395;" horiz-adv-x="745" 
d="M90 0v777h586v-85h-456v-260h428v-85h-428v-262h485v-85h-615z" />
    <glyph glyph-name="Zeta" unicode="&#x396;" horiz-adv-x="743" 
d="M723 85v-85h-703v95l558 597h-558v85h703v-95l-558 -597h558z" />
    <glyph glyph-name="Eta" unicode="&#x397;" horiz-adv-x="930" 
d="M710 0v347h-490v-347h-130v777h130v-345h490v345h130v-777h-130z" />
    <glyph glyph-name="Theta" unicode="&#x398;" horiz-adv-x="1027" 
d="M967 388q0 -177 -124.5 -289.5t-329.5 -112.5t-329 112.5t-124 289.5q0 178 124 290.5t329 112.5t329.5 -113t124.5 -290zM513 692q-127 0 -212.5 -73t-100.5 -187h627q-15 114 -101 187t-213 73zM513 85q129 0 214.5 73.5t99.5 188.5h-627q14 -115 99.5 -188.5
t213.5 -73.5z" />
    <glyph glyph-name="Iota" unicode="&#x399;" horiz-adv-x="310" 
d="M90 777h130v-777h-130v777z" />
    <glyph glyph-name="Kappa" unicode="&#x39a;" horiz-adv-x="862" 
d="M692 0l-345 393l-127 -113v-280h-130v777h130v-368l402 368h160l-350 -310l410 -467h-150z" />
    <glyph glyph-name="Lambda" unicode="&#x39b;" horiz-adv-x="974" 
d="M470 692l-312 -692h-138l360 777h214l360 -777h-139l-310 692h-35z" />
    <glyph glyph-name="Mu" unicode="&#x39c;" horiz-adv-x="1222" 
d="M611 85l321 692h200v-777h-130v642l-306 -642h-170l-306 642v-642h-130v777h200z" />
    <glyph glyph-name="Nu" unicode="&#x39d;" horiz-adv-x="931" 
d="M841 777v-777h-160l-461 642v-642h-130v777h160l461 -642v642h130z" />
    <glyph glyph-name="Xi" unicode="&#x39e;" horiz-adv-x="895" 
d="M855 0h-815v85h340v262h-283v85h283v260h-311v85h757v-85h-316v-260h288v-85h-288v-262h345v-85z" />
    <glyph glyph-name="Omicron" unicode="&#x39f;" horiz-adv-x="1027" 
d="M967 388q0 -177 -124.5 -289.5t-329.5 -112.5t-329 112.5t-124 289.5q0 178 124 290.5t329 112.5t329.5 -113t124.5 -290zM830 388q0 131 -88.5 217.5t-228.5 86.5q-139 0 -227.5 -86.5t-88.5 -217.5q0 -130 88.5 -216.5t227.5 -86.5q140 0 228.5 86.5t88.5 216.5z" />
    <glyph glyph-name="Pi" unicode="&#x3a0;" horiz-adv-x="910" 
d="M660 0v692h-410v-692h-130v692h-120v85h910v-85h-120v-692h-130z" />
    <glyph glyph-name="Rho" unicode="&#x3a1;" horiz-adv-x="789" 
d="M90 777h330q180 0 264.5 -51t84.5 -159t-85 -159.5t-264 -51.5h-200v-356h-130v777zM220 441h200q100 0 156 28t56 98t-56 97.5t-156 27.5h-200v-251z" />
    <glyph glyph-name="Sigma" unicode="&#x3a3;" horiz-adv-x="833" 
d="M753 777v-85h-523l360 -267v-62l-355 -278h538v-85h-683v95l366 294l-366 276v112h663z" />
    <glyph glyph-name="Tau" unicode="&#x3a4;" horiz-adv-x="787" 
d="M0 692v85h787v-85h-330v-692h-127v692h-330z" />
    <glyph glyph-name="Upsilon" unicode="&#x3a5;" horiz-adv-x="852" 
d="M361 377l-351 400h150l266 -303l266 303h150l-351 -400v-377h-130v377z" />
    <glyph glyph-name="Phi" unicode="&#x3a6;" horiz-adv-x="1067" 
d="M465 777h130v-58q94 -5 171.5 -27.5t136.5 -62t91.5 -101t32.5 -140.5q0 -104 -58 -177.5t-152.5 -109.5t-221.5 -43v-58h-130v58q-193 13 -309 95t-116 235t116 235.5t309 95.5v58zM890 388q0 115 -82 177.5t-213 73.5v-501q131 11 213 73.5t82 176.5zM177 388
q0 -113 79.5 -175t208.5 -75v501q-129 -13 -208.5 -75t-79.5 -176z" />
    <glyph glyph-name="Chi" unicode="&#x3a7;" horiz-adv-x="852" 
d="M10 0l341 389l-341 388h150l266 -303l266 303h150l-341 -388l341 -389h-150l-266 303l-266 -303h-150z" />
    <glyph glyph-name="Psi" unicode="&#x3a8;" horiz-adv-x="1167" 
d="M517 777h130v-518q129 14 211 76t82 173v269h137v-269q0 -151 -118 -233.5t-312 -96.5v-178h-130v177q-200 10 -313.5 92t-113.5 239v269h137v-269q0 -115 80 -177.5t210 -73.5v520z" />
    <glyph glyph-name="uni03A9" unicode="&#x3a9;" horiz-adv-x="1027" 
d="M40 85h267q-122 37 -184.5 127.5t-62.5 205.5q0 151 126.5 262t326.5 111t327 -111t127 -262q0 -111 -73 -203t-198 -130h291v-85h-407v81q114 20 182 103.5t68 203.5q0 131 -88.5 217.5t-228.5 86.5q-139 0 -227.5 -86.5t-88.5 -217.5q0 -118 66 -201t177 -105v-82h-400
v85z" />
    <glyph glyph-name="Iotadieresis" unicode="&#x3aa;" horiz-adv-x="310" 
d="M5 903v96h120v-96h-120zM205 903v96h120v-96h-120zM90 777h130v-777h-130v777z" />
    <glyph glyph-name="Upsilondieresis" unicode="&#x3ab;" horiz-adv-x="852" 
d="M266 903v96h120v-96h-120zM466 903v96h120v-96h-120zM361 377l-351 400h150l266 -303l266 303h150l-351 -400v-377h-130v377z" />
    <glyph glyph-name="alphatonos" unicode="&#x3ac;" horiz-adv-x="817" 
d="M437 821h150l-199 -188h-67zM635 264q-55 -170 37 -170q22 0 42 12.5t30 25.5l9 12l24 -108q-10 -19 -42 -34.5t-68 -15.5q-64 0 -97.5 54.5t-12.5 147.5q-36 -98 -103.5 -150t-141.5 -52q-115 0 -183.5 82.5t-68.5 201.5q0 76 28.5 143t88 111.5t138.5 44.5
q101 0 163.5 -78.5t61.5 -200.5q1 4 3 10l68 255h120zM186 274q0 -94 41.5 -145.5t110.5 -51.5q116 0 179 146q-6 131 -51.5 194t-116.5 63q-76 0 -119.5 -61.5t-43.5 -144.5z" />
    <glyph glyph-name="epsilontonos" unicode="&#x3ad;" horiz-adv-x="692" 
d="M389 821h150l-199 -188h-67zM508 221l124 -36q-1 -4 -2.5 -11t-10.5 -28t-21.5 -39.5t-36.5 -41.5t-53.5 -39.5t-75 -28t-99.5 -11.5q-134 0 -203.5 48t-69.5 117q0 59 53 96t152 44q-90 2 -139.5 32t-49.5 86q0 71 75 115.5t177 44.5q80 0 139 -22.5t89 -59t44 -71.5
t16 -72l-124 -36q7 68 -33 120t-131 52q-52 0 -92 -25t-40 -68q0 -26 29 -47.5t85 -21.5h107v-71h-107q-60 0 -93 -23.5t-33 -55.5q0 -48 45 -70.5t119 -22.5q45 0 77.5 15t47.5 36.5t24 43t10 36.5z" />
    <glyph glyph-name="etatonos" unicode="&#x3ae;" horiz-adv-x="748" 
d="M422 821h150l-199 -188h-67zM538 -223v565q0 138 -157 138q-43 0 -75.5 -12.5t-50 -30t-28.5 -40t-14 -38.5t-3 -29v-330h-120v555h58l51 -165q1 7 3 19t16 43t35.5 54.5t67 43t104.5 19.5q233 0 233 -225v-567h-120z" />
    <glyph glyph-name="iotatonos" unicode="&#x3af;" horiz-adv-x="300" 
d="M213 821h150l-199 -188h-67zM90 0v555h120v-555h-120z" />
    <glyph glyph-name="upsilondieresistonos" unicode="&#x3b0;" horiz-adv-x="741" 
d="M395 821h150l-199 -188h-67zM118 633v96h120v-96h-120zM508 633v96h120v-96h-120zM561 278q0 108 -39 277h127q32 -155 32 -277q0 -127 -79.5 -209.5t-216.5 -82.5q-143 0 -219 81.5t-76 210.5v277h128v-278q0 -91 44.5 -146.5t122.5 -55.5q84 0 130 55t46 148z" />
    <glyph glyph-name="alpha" unicode="&#x3b1;" horiz-adv-x="817" 
d="M635 264q-55 -170 37 -170q22 0 42 12.5t30 25.5l9 12l24 -108q-10 -19 -42 -34.5t-68 -15.5q-64 0 -97.5 54.5t-12.5 147.5q-36 -98 -103.5 -150t-141.5 -52q-115 0 -183.5 82.5t-68.5 201.5q0 76 28.5 143t88 111.5t138.5 44.5q101 0 163.5 -78.5t61.5 -200.5q1 4 3 10
l68 255h120zM186 274q0 -94 41.5 -145.5t110.5 -51.5q116 0 179 146q-6 131 -51.5 194t-116.5 63q-76 0 -119.5 -61.5t-43.5 -144.5z" />
    <glyph glyph-name="beta" unicode="&#x3b2;" horiz-adv-x="741" 
d="M681 240q0 -119 -73 -186.5t-182 -67.5q-63 0 -123.5 35.5t-92.5 102.5v-347h-120v743q0 72 22.5 126t62 85t87 45.5t102.5 14.5q114 0 185.5 -54.5t71.5 -146.5q0 -59 -47.5 -100.5t-126.5 -43.5q101 -7 167.5 -62.5t66.5 -143.5zM366 702q-32 0 -57 -7t-50.5 -27
t-39.5 -63t-14 -108v-227q0 -81 45.5 -138t130.5 -57q72 0 122.5 44.5t50.5 120.5q0 70 -47.5 116t-134.5 46h-87v71h112q34 0 57 12t33 31t13.5 34t3.5 30q0 50 -34.5 86t-103.5 36z" />
    <glyph glyph-name="gamma" unicode="&#x3b3;" horiz-adv-x="658" 
d="M254 -223v241l-244 537h138l186 -448q132 185 195 448h119q-80 -323 -274 -555v-223h-120z" />
    <glyph glyph-name="delta" unicode="&#x3b4;" horiz-adv-x="748" 
d="M510 586q0 2 0.5 6.5t-1 16t-5.5 22.5t-14 24t-24.5 22.5t-40 16t-58.5 6.5q-53 0 -86.5 -20.5t-33.5 -50.5q0 -25 24.5 -43t63 -30.5t85.5 -25.5t94.5 -33.5t86 -48.5t63 -77t24.5 -113q0 -47 -22 -95t-61 -87.5t-100 -64.5t-132 -25q-141 0 -227 78.5t-86 190.5
q0 118 89.5 181.5t219.5 63.5q19 0 28 -1q-145 29 -206.5 62.5t-61.5 91.5q0 56 68.5 96t166.5 40q52 0 95 -9t70 -24t47.5 -32.5t31 -35.5t17 -33t7.5 -24l2 -9zM560 278q0 72 -52 127t-135 55q-82 0 -134.5 -55.5t-52.5 -126.5q0 -91 51 -147t136 -56q86 0 136.5 56
t50.5 147z" />
    <glyph glyph-name="epsilon" unicode="&#x3b5;" horiz-adv-x="672" 
d="M508 221l124 -36q-1 -4 -2.5 -11t-10.5 -28t-21.5 -39.5t-36.5 -41.5t-53.5 -39.5t-75 -28t-99.5 -11.5q-134 0 -203.5 48t-69.5 117q0 59 53 96t152 44q-90 2 -139.5 32t-49.5 86q0 71 75 115.5t177 44.5q80 0 139 -22.5t89 -59t44 -71.5t16 -72l-124 -36q7 68 -33 120
t-131 52q-52 0 -92 -25t-40 -68q0 -26 29 -47.5t85 -21.5h107v-71h-107q-60 0 -93 -23.5t-33 -55.5q0 -48 45 -70.5t119 -22.5q45 0 77.5 15t47.5 36.5t24 43t10 36.5z" />
    <glyph glyph-name="zeta" unicode="&#x3b6;" horiz-adv-x="607" 
d="M459 -67q0 30 -21 51t-54.5 34.5t-73.5 27t-80.5 33.5t-74 48t-54.5 77t-21 114q0 70 31 130t90.5 108t129.5 84.5t164 71.5l-415 -20v85h493l10 -67q-113 -53 -186.5 -99.5t-115 -93.5t-57.5 -93t-16 -105q0 -50 21 -86.5t54.5 -57.5t73.5 -37t80.5 -31.5t74 -35
t54.5 -53.5t21 -81q0 -78 -71 -126t-176 -48q-51 0 -90 12.5t-59 29.5t-32.5 34.5t-15.5 30.5l-3 12l114 36q0 -3 0.5 -7.5t5.5 -15.5t13.5 -20t26 -16t41.5 -7q55 0 86.5 22.5t31.5 58.5z" />
    <glyph glyph-name="eta" unicode="&#x3b7;" horiz-adv-x="748" 
d="M538 -223v565q0 138 -157 138q-43 0 -75.5 -12.5t-50 -30t-28.5 -40t-14 -38.5t-3 -29v-330h-120v555h58l51 -165q1 7 3 19t16 43t35.5 54.5t67 43t104.5 19.5q233 0 233 -225v-567h-120z" />
    <glyph glyph-name="theta" unicode="&#x3b8;" horiz-adv-x="740" 
d="M680 389q0 -182 -80 -292.5t-230 -110.5t-230 110.5t-80 292.5q0 181 80 291.5t230 110.5t230 -110.5t80 -291.5zM370 692q-86 0 -133.5 -72.5t-53.5 -192.5h374q-6 120 -53.5 192.5t-133.5 72.5zM370 85q86 0 133.5 73t53.5 194h-374q6 -121 53.5 -194t133.5 -73z" />
    <glyph glyph-name="iota" unicode="&#x3b9;" horiz-adv-x="300" 
d="M90 0v555h120v-555h-120z" />
    <glyph glyph-name="kappa" unicode="&#x3ba;" horiz-adv-x="654" 
d="M90 0v555h120v-240l249 240h141l-248 -234l302 -321h-155l-232 251l-57 -54v-197h-120z" />
    <glyph glyph-name="lambda" unicode="&#x3bb;" horiz-adv-x="686" 
d="M453 93l-121 300l-180 -393h-132l264 501l-37 87q-24 55 -48 82t-66 27q-19 0 -35.5 -9t-22.5 -16t-8 -11l-19 80q5 5 14 13t40 21t64 13q42 0 72 -10.5t52 -35.5t36 -50.5t33 -71.5l205 -491q23 -56 54 -56q27 0 54 39l24 -79q-40 -48 -105 -48q-47 0 -80.5 24.5
t-57.5 83.5z" />
    <glyph glyph-name="uni03BC" unicode="&#x3bc;" horiz-adv-x="748" 
d="M210 555v-302q0 -85 41 -131.5t116 -46.5q43 0 75.5 12.5t50 30t28.5 40t14 38.5t3 29v330h120v-555h-58l-51 165q-1 -7 -3 -19t-14.5 -43t-32.5 -54.5t-61 -43t-95 -19.5q-33 0 -75.5 15t-57.5 33v-257h-120v778h120z" />
    <glyph glyph-name="nu" unicode="&#x3bd;" horiz-adv-x="658" 
d="M529 555h119q-80 -323 -274 -555h-106l-258 555h138l186 -448q132 185 195 448z" />
    <glyph glyph-name="xi" unicode="&#x3be;" horiz-adv-x="618" 
d="M223 240q0 -44 38.5 -73t93.5 -45.5t110.5 -35.5t94 -56t38.5 -93q0 -78 -71 -126t-176 -48q-51 0 -90 12.5t-59 29.5t-32.5 34.5t-15.5 30.5l-3 12l114 36q0 -3 0.5 -7.5t5.5 -15.5t13.5 -20t26 -16t41.5 -7q55 0 86.5 22.5t31.5 58.5q0 29 -28 49.5t-70.5 31.5
t-91.5 27.5t-91.5 34.5t-70.5 55.5t-28 88.5q0 69 54.5 113t138.5 55q-88 10 -128 41.5t-40 89.5q0 153 356 203l-380 -25v80h473l10 -82q-335 -29 -335 -180q0 -42 39 -69.5t105 -27.5h127v-72h-137q-80 0 -115 -30t-35 -76z" />
    <glyph glyph-name="omicron" unicode="&#x3bf;" horiz-adv-x="750" 
d="M60 278q0 126 85 208.5t230 82.5t230 -82.5t85 -208.5q0 -127 -85 -209.5t-230 -82.5t-230 82.5t-85 209.5zM188 278q0 -91 50.5 -147t136.5 -56q85 0 136 56t51 147t-51 146.5t-136 55.5q-86 0 -136.5 -55.5t-50.5 -146.5z" />
    <glyph glyph-name="pi" unicode="&#x3c0;" horiz-adv-x="822" 
d="M136 0l57 480h-153v75h722v-75h-128v-279q0 -116 54 -116q22 0 47 19.5t43 50.5l24 -89q-23 -32 -66.5 -56t-81.5 -24q-140 0 -140 172v322h-214l-36 -480h-128z" />
    <glyph glyph-name="rho" unicode="&#x3c1;" horiz-adv-x="747" 
d="M90 -223v481q0 158 83 234.5t226 76.5q125 0 206.5 -82t81.5 -209q0 -135 -81 -213.5t-190 -78.5q-61 0 -121 38.5t-85 99.5v-347h-120zM381 480q-80 0 -128 -58.5t-48 -143.5q0 -88 45 -145.5t131 -57.5q81 0 129.5 56t48.5 147q0 90 -48.5 146t-129.5 56z" />
    <glyph glyph-name="sigma1" unicode="&#x3c2;" horiz-adv-x="691" 
d="M479 -67q0 30 -23 50.5t-60 33t-81.5 25t-89.5 31.5t-82 46t-60 75.5t-23 113.5q0 113 82 187t221 74q65 0 116.5 -16.5t82 -42.5t51 -61t28.5 -67.5t10 -67.5l-124 -36q7 84 -33 143t-131 59q-84 0 -129.5 -49.5t-45.5 -132.5q0 -47 23 -80t60 -51.5t81.5 -32.5
t89.5 -28t82 -33t60 -53.5t23 -82.5q0 -78 -71 -126t-176 -48q-51 0 -90 12.5t-59 29.5t-32.5 34.5t-15.5 30.5l-3 12l114 36q0 -3 0.5 -7.5t5.5 -15.5t13.5 -20t26 -16t41.5 -7q55 0 86.5 22.5t31.5 58.5z" />
    <glyph glyph-name="sigma" unicode="&#x3c3;" horiz-adv-x="750" 
d="M730 480h-236q84 -25 134 -86.5t50 -138.5q0 -107 -82.5 -188t-220.5 -81q-145 0 -230 82.5t-85 209.5q0 124 85 200.5t231 76.5h354v-75zM188 278q0 -91 50.5 -147t136.5 -56q85 0 136 56t51 147t-51 146.5t-136 55.5q-86 0 -136.5 -55.5t-50.5 -146.5z" />
    <glyph glyph-name="tau" unicode="&#x3c4;" horiz-adv-x="552" 
d="M20 480v75h472v-75h-188v-279q0 -66 20 -96t67 -30q27 0 49 8t34 20t20.5 24t11.5 20l2 8l24 -89q-2 -3 -5.5 -8.5t-17.5 -19.5t-31.5 -24.5t-47.5 -19t-64 -8.5q-182 0 -182 202v292h-164z" />
    <glyph glyph-name="upsilon" unicode="&#x3c5;" horiz-adv-x="741" 
d="M561 278q0 108 -39 277h127q32 -155 32 -277q0 -127 -79.5 -209.5t-216.5 -82.5q-143 0 -219 81.5t-76 210.5v277h128v-278q0 -91 44.5 -146.5t122.5 -55.5q84 0 130 55t46 148z" />
    <glyph glyph-name="phi" unicode="&#x3c6;" horiz-adv-x="877" 
d="M158 308q0 -95 53.5 -158.5t158.5 -78.5v267q0 100 66.5 165.5t177.5 65.5q112 0 177.5 -74t65.5 -177q0 -134 -107.5 -222t-259.5 -106v-213h-120v213q-151 14 -245.5 96.5t-94.5 201.5q0 71 26.5 132t84 102.5t134.5 41.5q19 0 40 -3l30 -103q-18 9 -49 9
q-71 0 -104.5 -47.5t-33.5 -111.5zM490 338v-268q119 14 179 79.5t60 168.5q0 172 -123 172q-58 0 -87 -41t-29 -111z" />
    <glyph glyph-name="chi" unicode="&#x3c7;" horiz-adv-x="730" 
d="M482 -130l-111 215l-191 -308h-128l270 403l-96 185q-16 31 -24 44.5t-23 32t-31.5 25.5t-38.5 7q-19 0 -35 -9.5t-21 -16t-7 -10.5l-26 80q4 5 12.5 13t38.5 21t63 13q40 0 68.5 -10t52.5 -37t37 -49t40 -72l58 -111l168 269h130l-248 -363l150 -286q30 -56 59 -56
q26 0 51 39l30 -79q-21 -22 -52 -35t-58 -13q-45 0 -76 23.5t-62 84.5z" />
    <glyph glyph-name="psi" unicode="&#x3c8;" horiz-adv-x="941" 
d="M430 -223v211q-170 13 -255 100.5t-85 239.5v227h128v-228q0 -225 212 -249v607h120v-606q214 26 214 229q0 78 -39 247h124q32 -155 32 -247q0 -135 -85.5 -219.5t-245.5 -99.5v-212h-120z" />
    <glyph glyph-name="omega" unicode="&#x3c9;" horiz-adv-x="1052" 
d="M590 400v-132q0 -94 36 -142t98 -48q55 0 97.5 52t42.5 148q0 97 -47.5 148t-126.5 51q-24 0 -43 -9l30 93q21 3 42 3q114 0 193.5 -79.5t79.5 -206.5q0 -139 -74.5 -215.5t-176.5 -76.5q-82 0 -140 57.5t-75 187.5q-17 -133 -77.5 -189t-145.5 -56q-100 0 -171.5 76
t-71.5 216q0 125 77 205.5t198 80.5q19 0 40 -3l30 -93q-18 9 -49 9q-168 0 -168 -199q0 -96 42.5 -148t98.5 -52q59 0 96 48t37 143v131h128z" />
    <glyph glyph-name="iotadieresis" unicode="&#x3ca;" horiz-adv-x="300" 
d="M-10 681v96h120v-96h-120zM190 681v96h120v-96h-120zM90 0v555h120v-555h-120z" />
    <glyph glyph-name="upsilondieresis" unicode="&#x3cb;" horiz-adv-x="741" 
d="M213 681v96h120v-96h-120zM413 681v96h120v-96h-120zM561 278q0 108 -39 277h127q32 -155 32 -277q0 -127 -79.5 -209.5t-216.5 -82.5q-143 0 -219 81.5t-76 210.5v277h128v-278q0 -91 44.5 -146.5t122.5 -55.5q84 0 130 55t46 148z" />
    <glyph glyph-name="omicrontonos" unicode="&#x3cc;" horiz-adv-x="750" 
d="M428 821h150l-199 -188h-67zM60 278q0 126 85 208.5t230 82.5t230 -82.5t85 -208.5q0 -127 -85 -209.5t-230 -82.5t-230 82.5t-85 209.5zM188 278q0 -91 50.5 -147t136.5 -56q85 0 136 56t51 147t-51 146.5t-136 55.5q-86 0 -136.5 -55.5t-50.5 -146.5z" />
    <glyph glyph-name="upsilontonos" unicode="&#x3cd;" horiz-adv-x="741" 
d="M438 821h150l-199 -188h-67zM561 278q0 108 -39 277h127q32 -155 32 -277q0 -127 -79.5 -209.5t-216.5 -82.5q-143 0 -219 81.5t-76 210.5v277h128v-278q0 -91 44.5 -146.5t122.5 -55.5q84 0 130 55t46 148z" />
    <glyph glyph-name="omegatonos" unicode="&#x3ce;" horiz-adv-x="1052" 
d="M589 821h150l-199 -188h-67zM590 400v-132q0 -94 36 -142t98 -48q55 0 97.5 52t42.5 148q0 97 -47.5 148t-126.5 51q-24 0 -43 -9l30 93q21 3 42 3q114 0 193.5 -79.5t79.5 -206.5q0 -139 -74.5 -215.5t-176.5 -76.5q-82 0 -140 57.5t-75 187.5q-17 -133 -77.5 -189
t-145.5 -56q-100 0 -171.5 76t-71.5 216q0 125 77 205.5t198 80.5q19 0 40 -3l30 -93q-18 9 -49 9q-168 0 -168 -199q0 -96 42.5 -148t98.5 -52q59 0 96 48t37 143v131h128z" />
    <glyph glyph-name="endash" unicode="&#x2013;" horiz-adv-x="510" 
d="M490 300v-50h-470v50h470z" />
    <glyph glyph-name="emdash" unicode="&#x2014;" horiz-adv-x="797" 
d="M777 300v-50h-757v50h757z" />
    <glyph glyph-name="quoteleft" unicode="&#x2018;" horiz-adv-x="310" 
d="M90 481v120q0 55 20 105t40 73l20 23l88 -26q-4 -2 -10 -6t-22.5 -18.5t-30 -30.5t-27 -42t-19.5 -53h71v-145h-130z" />
    <glyph glyph-name="quoteright" unicode="&#x2019;" horiz-adv-x="310" 
d="M220 802v-120q0 -55 -20 -105t-40 -73l-20 -23l-88 26q4 2 10 6t22.5 18.5t30 30.5t27 42t19.5 53h-71v145h130z" />
    <glyph glyph-name="quotesinglbase" unicode="&#x201a;" horiz-adv-x="310" 
d="M220 145v-120q0 -55 -20 -105t-40 -73l-20 -23l-88 26q4 2 10 6t22.5 18.5t30 30.5t27 42t19.5 53h-71v145h130z" />
    <glyph glyph-name="quotedblleft" unicode="&#x201c;" horiz-adv-x="560" 
d="M302 480v120q0 55 20 105t40 73l20 23l88 -26q-4 -2 -10 -6t-22.5 -18.5t-30 -30.5t-27 -42t-19.5 -53h71v-145h-130zM52 480v120q0 55 20 105t40 73l20 23l88 -26q-4 -2 -10 -6t-22.5 -18.5t-30 -30.5t-27 -42t-19.5 -53h71v-145h-130z" />
    <glyph glyph-name="quotedblright" unicode="&#x201d;" horiz-adv-x="560" 
d="M220 801v-120q0 -55 -20 -105t-40 -73l-20 -23l-88 26q4 2 10 6t22.5 18.5t30 30.5t27 42t19.5 53h-71v145h130zM470 801v-120q0 -55 -20 -105t-40 -73l-20 -23l-88 26q4 2 10 6t22.5 18.5t30 30.5t27 42t19.5 53h-71v145h130z" />
    <glyph glyph-name="quotedblbase" unicode="&#x201e;" horiz-adv-x="560" 
d="M220 145v-120q0 -55 -20 -105t-40 -73l-20 -23l-88 26q4 2 10 6t22.5 18.5t30 30.5t27 42t19.5 53h-71v145h130zM470 145v-120q0 -55 -20 -105t-40 -73l-20 -23l-88 26q4 2 10 6t22.5 18.5t30 30.5t27 42t19.5 53h-71v145h130z" />
    <glyph glyph-name="dagger" unicode="&#x2020;" horiz-adv-x="480" 
d="M460 480h-160v-703h-120v703h-160v75h160l15 222h90l15 -222h160v-75z" />
    <glyph glyph-name="daggerdbl" unicode="&#x2021;" horiz-adv-x="480" 
d="M20 0v75h160v404h-160v75h160l15 222h90l15 -222h160v-75h-160v-404h160v-75h-160l-15 -223h-90l-15 223h-160z" />
    <glyph glyph-name="bullet" unicode="&#x2022;" horiz-adv-x="646" 
d="M604 434q11 -35 13 -86l-290 291q43 0 86 -16zM616 332q0 -34 -6 -55l-353 355q27 6 55 4zM604 260q-2 -5 -7 -20t-9 -22l-391 392q35 15 41 16zM530 552q53 -53 71 -107l-176 176q58 -20 105 -69zM578 199q-5 -13 -22 -30l-409 410l29 22zM532 137l-10 -11l-417 416
l12 10l10 12l416 -417zM494 107q-8 -8 -17 -12l-405 404l13 18zM45 442l10 20l384 -385l-18 -9zM373 55l-15 -4l-326 328l1 17zM33 298l-3 11l259 -258l-12 2zM114 136q-11 8 -21 23l40 -39z" />
    <glyph glyph-name="ellipsis" unicode="&#x2026;" horiz-adv-x="770" 
d="M90 0v145h130v-145h-130zM320 0v135h130v-135h-130zM550 0v125h130v-125h-130z" />
    <glyph glyph-name="perthousand" unicode="&#x2030;" horiz-adv-x="1285" 
d="M20 590q0 90 59.5 146t151.5 56t151.5 -56t59.5 -146t-59.5 -145.5t-151.5 -55.5t-151.5 55.5t-59.5 145.5zM644 784l48 -24l-413 -763l-46 23zM81 590q0 -68 39 -111t111 -43t111 43t39 111t-39 111t-111 43t-111 -43t-39 -111zM482 190q0 90 59.5 146t151.5 56
q123 0 180 -92q59 92 181 92q92 0 151.5 -56t59.5 -146t-59.5 -145.5t-151.5 -55.5q-59 0 -106 24t-74 67q-59 -91 -181 -91q-92 0 -151.5 55.5t-59.5 145.5zM543 190q0 -68 39 -111t111 -43t111 43t39 111t-39 111t-111 43t-111 -43t-39 -111zM904 190q0 -68 39 -111
t111 -43t111 43t39 111t-39 111t-111 43t-111 -43t-39 -111z" />
    <glyph glyph-name="guilsinglleft" unicode="&#x2039;" horiz-adv-x="331" 
d="M30 277l181 219h90l-151 -219l151 -219h-90z" />
    <glyph glyph-name="guilsinglright" unicode="&#x203a;" horiz-adv-x="331" 
d="M120 496l181 -219l-181 -219h-90l151 219l-151 219h90z" />
    <glyph glyph-name="fraction" unicode="&#x2044;" horiz-adv-x="459" 
d="M411 703l48 -24l-413 -763l-46 23z" />
    <glyph glyph-name="Euro" unicode="&#x20ac;" 
d="M520 332v-50h-313q19 -92 73 -144.5t143 -52.5q62 0 105.5 25.5t61.5 61.5t27.5 72.5t8.5 61.5v26l134 -39q0 -6 -1 -17.5t-8.5 -43t-19 -60.5t-37.5 -64.5t-60 -61t-89 -43t-122 -17.5q-140 0 -232.5 80t-120.5 216h-70v50h63q-3 27 -3 56q0 18 2 54h-42v50h49
q25 137 114.5 218t229.5 81q73 0 130.5 -18t91.5 -46t58 -62.5t33 -69t14 -62.5t4 -46l-1 -18l-134 -40q0 5 0.5 14.5t-1.5 37t-7.5 52.5t-19.5 55t-34.5 52t-55 37t-78.5 15q-172 0 -208 -200h335v-50h-341q-2 -34 -2 -54q0 -29 3 -56h320z" />
    <glyph glyph-name="Omega" unicode="&#x2126;" horiz-adv-x="1027" 
d="M40 85h267q-122 37 -184.5 127.5t-62.5 205.5q0 151 126.5 262t326.5 111t327 -111t127 -262q0 -111 -73 -203t-198 -130h291v-85h-407v81q114 20 182 103.5t68 203.5q0 131 -88.5 217.5t-228.5 86.5q-139 0 -227.5 -86.5t-88.5 -217.5q0 -118 66 -201t177 -105v-82h-400
v85z" />
    <glyph glyph-name="Delta" unicode="&#x2206;" horiz-adv-x="974" 
d="M594 777l360 -777h-934l360 777h214zM470 692l-274 -607h581l-272 607h-35z" />
    <glyph glyph-name="minus" unicode="&#x2212;" horiz-adv-x="650" 
d="M630 300v-50h-610v50h610z" />
    <glyph glyph-name="S.alt" horiz-adv-x="804" 
d="M404 280l27 -99q-5 5 -14.5 12.5t-42 20.5t-69.5 13q-50 0 -79 -22t-29 -61q0 -58 58.5 -101t165.5 -43q91 0 158.5 42.5t67.5 126.5q0 73 -49.5 117t-162.5 85l-302 109v75l546 236l29 -108l-465 -151l307 -85q111 -31 172.5 -100t61.5 -171q0 -133 -103 -204t-265 -71
q-157 0 -256.5 70.5t-99.5 175.5q0 72 55.5 123t156.5 51q39 0 72 -10.5t46 -20.5z" />
    <glyph glyph-name="Q.alt" horiz-adv-x="988" 
d="M443 6l505 -171l-29 -108l-546 236v138q50 -16 108 -16q141 0 230 86.5t89 216.5q0 131 -88.5 217.5t-228.5 86.5q-135 0 -210.5 -72.5t-75.5 -180.5q0 -82 47 -135.5t140 -53.5q55 0 93.5 24t53.5 58t22.5 68t6.5 58l-1 24l133 -39q0 -6 -0.5 -16.5t-6.5 -41t-16.5 -58
t-34.5 -61t-56.5 -58t-86.5 -41t-121 -16.5q-140 0 -225 82t-85 213q0 150 114 247.5t309 97.5q205 0 329.5 -113t124.5 -290q0 -129 -68 -224t-181 -136.5t-245 -21.5z" />
    <glyph glyph-name="B.alt" horiz-adv-x="979" 
d="M350 131h-130v646h330q349 0 349 -190q0 -42 -17 -75t-41.5 -50t-49.5 -27.5t-42 -13.5l-17 -3q4 0 10.5 -1t26 -5.5t37.5 -12t39.5 -22.5t37 -35t26 -51.5t10.5 -69.5q0 -111 -85 -166t-264 -55h-570v100l570 -15q212 -5 212 136q0 53 -29.5 84t-73 41t-109.5 10h-220
v-225zM350 441h200q100 0 156 28t56 98t-56 97.5t-156 27.5h-200v-251z" />
    <glyph glyph-name="O.alt" horiz-adv-x="997" 
d="M373 -5v106q50 -16 108 -16q141 0 230 86.5t89 216.5q0 131 -88.5 217.5t-228.5 86.5q-135 0 -210.5 -72.5t-75.5 -180.5q0 -82 47 -135.5t140 -53.5q55 0 93.5 24t53.5 58t22.5 68t6.5 58l-1 24l133 -39q0 -6 -0.5 -16.5t-6.5 -41t-16.5 -58t-34.5 -61t-56.5 -58
t-86.5 -41t-121 -16.5q-140 0 -225 82t-85 213q0 150 114 247.5t309 97.5q205 0 329.5 -113t124.5 -290q0 -91 -33 -166t-88.5 -121.5t-128.5 -77.5t-153 -35t-161 7z" />
    <glyph glyph-name="zero.alt" horiz-adv-x="1064" 
d="M60 311q0 199 136.5 335.5t335.5 136.5t335.5 -136.5t136.5 -335.5t-136.5 -335.5t-335.5 -136.5t-335.5 136.5t-136.5 335.5zM116 310q0 -173 121.5 -294.5t294.5 -121.5t294.5 121.5t121.5 294.5t-121.5 294.5t-294.5 121.5t-294.5 -121.5t-121.5 -294.5zM777 311
q0 -131 -63 -210.5t-182 -79.5t-182 79.5t-63 210.5t63 210.5t182 79.5t182 -79.5t63 -210.5zM678 311q0 100 -35 159t-111 59t-111 -59t-35 -159t35 -159.5t111 -59.5t111 59.5t35 159.5z" />
    <glyph glyph-name="three.susp_prop" horiz-adv-x="819" 
d="M387 133h-50v75h50q89 0 147.5 39.5t58.5 99.5t-49.5 96.5t-126.5 36.5q-44 0 -79 -10.5t-55.5 -27.5t-35.5 -37.5t-21 -41.5t-9 -38t-3 -27l1 -11l-124 40q1 5 2.5 13.5t10.5 34t22 48t39 50.5t59 48t84.5 34t113.5 14q132 0 215 -58.5t83 -145.5q0 -47 -21.5 -82
t-48.5 -51t-62 -25.5t-50.5 -11t-25.5 -1.5q7 0 16 -0.5t33 -4.5t45 -10.5t46.5 -21.5t44 -35t31 -52t12.5 -72q0 -78 -46.5 -132.5t-119.5 -78.5t-164 -24q-71 0 -129.5 15t-95 38.5t-64 52t-40.5 57.5t-20.5 52.5t-8.5 38.5l-2 15l124 39q2 -1 0 -12.5t3 -31t10.5 -42.5
t23.5 -46.5t41.5 -43t63.5 -31.5t91 -12q91 0 148.5 40t57.5 107q0 49 -34 80.5t-81.5 42.5t-110.5 11z" />
    <glyph glyph-name="one.susp_prop" horiz-adv-x="570" 
d="M480 0h-120l-1 470q0 -79 -23 -120.5t-87.5 -61.5t-188.5 -20v89q156 0 228 44t72 154h120v-555z" />
    <glyph glyph-name="five.susp_prop" 
d="M740 32q0 -126 -91 -197.5t-243 -71.5q-71 0 -128.5 15t-93.5 38.5t-63 52t-40 57.5t-20.5 52.5t-8.5 38.5l-2 15l124 39v-12.5t4.5 -30.5t12 -43.5t24.5 -46t40.5 -43.5t62.5 -30.5t88 -12.5q97 0 152 48.5t55 131.5t-55 131t-152 48q-50 0 -91 -14.5t-57 -28.5l-16 -15
h-123l71 402h514v-75h-413l-47 -281q2 4 6.5 11t22 24.5t39.5 30.5t61 24t84 11q115 0 199 -75.5t84 -192.5z" />
    <glyph glyph-name="six.susp_prop" 
d="M740 243q0 -112 -91.5 -184.5t-232.5 -72.5q-167 0 -261.5 111.5t-94.5 291.5q0 178 96.5 290t263.5 112q73 0 132 -23t91 -55.5t53 -65t28 -55.5l6 -23l-123 -40q-1 7 -3 18.5t-13.5 41.5t-30 53t-55.5 41.5t-85 18.5q-108 0 -170.5 -89.5t-62.5 -223.5q0 -43 6 -82
q23 91 93.5 142t181.5 51q112 0 192 -65.5t80 -191.5zM416 411q-97 0 -149 -60.5t-46 -137.5q28 -65 77.5 -101.5t117.5 -36.5q95 0 146 45.5t51 122.5t-51 122.5t-146 45.5z" />
    <glyph glyph-name="seven.susp_prop" horiz-adv-x="730" 
d="M700 555v-115q-6 -2 -16.5 -6t-43 -24t-64 -47.5t-75 -80.5t-82 -118.5t-79 -166.5t-70.5 -220h-130q29 116 70 217t83.5 170.5t88 126.5t85 91t71 57t49.5 32l18 9h-585v75h680z" />
    <glyph glyph-name="eight.susp_prop" 
d="M730 574q0 -42 -19.5 -76t-47 -53t-54.5 -31.5t-47 -16.5l-19 -4q9 0 23.5 -2t52 -12.5t66 -27.5t52 -53t23.5 -84q0 -77 -51.5 -129.5t-130.5 -75.5t-178 -23t-178 23t-130.5 75.5t-51.5 129.5q0 45 20.5 81t50 55.5t59.5 33t50 17.5l21 4q-7 1 -18.5 4t-41 15.5
t-52 29.5t-41 49t-18.5 71q0 96 95 156.5t235 60.5t235 -60.5t95 -156.5zM197 574q0 -39 22.5 -68t57.5 -42t65.5 -19t57.5 -6q97 0 150 36.5t53 98.5q0 51 -54 89.5t-149 38.5t-149 -38.5t-54 -89.5zM633 214q0 36 -19.5 63.5t-46 42t-61.5 23t-59.5 11t-46.5 2.5
q-63 0 -113 -12.5t-85 -45.5t-35 -84q0 -67 67.5 -103t165.5 -36t165.5 36t67.5 103z" />
    <glyph glyph-name="nine.susp_prop" 
d="M740 166q0 -179 -96.5 -291t-263.5 -112q-73 0 -132 23t-91 55.5t-53 65t-28 55.5l-6 23l123 40q1 -7 3 -18.5t13.5 -41.5t30 -53t55.5 -41.5t85 -18.5q108 0 170.5 90t62.5 224q0 43 -6 82q-23 -91 -93.5 -142t-181.5 -51q-112 0 -192 65.5t-80 191.5q0 112 91.5 184.5
t232.5 72.5q167 0 261.5 -111.5t94.5 -291.5zM187 312q0 -77 51 -122.5t146 -45.5q97 0 149 60.5t46 137.5q-28 65 -77.5 101.5t-117.5 36.5q-95 0 -146 -45.5t-51 -122.5z" />
    <glyph glyph-name="four.susp_prop" 
d="M40 0v115l422 440h162v-480h166v-75h-166v-222h-120v222h-464zM504 460l-363 -385h363v385z" />
    <glyph glyph-name="two.susp_prop" 
d="M105 374q0 89 76.5 142t196.5 53q133 0 199.5 -59.5t66.5 -151.5q0 -202 -344 -283h370v-75h-580v85q61 10 104 19t97 24t90.5 33t70 42.5t50 57t16.5 72.5q0 66 -40.5 106.5t-114.5 40.5q-62 0 -98 -29t-36 -79q0 -32 16.5 -55t32.5 -30l16 -7l-134 -39q-2 2 -6 5
t-13.5 15t-16.5 26t-13 37.5t-6 49.5z" />
    <glyph glyph-name="acute.case" horiz-adv-x="727" 
d="M610 821h150l-199 -188h-67z" />
    <glyph glyph-name="grave.case" horiz-adv-x="727" 
d="M380 821h150l116 -188h-67z" />
    <glyph glyph-name="circumflex.case" horiz-adv-x="1204" 
d="M526 821h90l176 -188h-67l-154 106l-154 -106h-67z" />
    <glyph glyph-name="tilde.case" horiz-adv-x="1204" 
d="M682 735q22 0 38 14t20 28l5 14l40 -36q-1 -4 -3 -10.5t-10.5 -23t-19.5 -29t-30.5 -23t-42.5 -10.5q-41 0 -85.5 28t-72.5 28q-21 0 -36.5 -14t-20.5 -28l-5 -14l-40 36q1 4 3 10.5t10.5 23t19.5 29t30.5 23t42.5 10.5q40 0 85.5 -28t71.5 -28z" />
    <glyph glyph-name="dieresis.case" horiz-adv-x="358" 
d="M19 681v96h120v-96h-120zM219 681v96h120v-96h-120z" />
    <glyph glyph-name="ring.case" horiz-adv-x="1204" 
d="M492 729q0 45 32 78t77 33q47 0 79 -31.5t32 -79.5q0 -44 -33 -76.5t-78 -32.5q-44 0 -76.5 32.5t-32.5 76.5zM553 730q0 -21 14 -35t35 -14t35 14.5t14 34.5q0 19 -14.5 34t-34.5 15q-21 0 -35 -14t-14 -35z" />
    <glyph glyph-name="zero.susp_prop" 
d="M60 277q0 124 93 208t247 84t247 -84t93 -208t-93 -207.5t-247 -83.5t-247 83.5t-93 207.5zM151 277q0 -99 67 -166.5t182 -67.5t182 67.5t67 166.5t-67 166.5t-182 67.5t-182 -67.5t-67 -166.5z" />
    <glyph glyph-name="one.alt" horiz-adv-x="1064" 
d="M60 311q0 199 136.5 335.5t335.5 136.5t335.5 -136.5t136.5 -335.5t-136.5 -335.5t-335.5 -136.5t-335.5 136.5t-136.5 335.5zM116 310q0 -173 121.5 -294.5t294.5 -121.5t294.5 121.5t121.5 294.5t-121.5 294.5t-294.5 121.5t-294.5 -121.5t-121.5 -294.5zM773 31h-461
v61h216v437q0 -85 -43.5 -118.5t-172.5 -33.5v71q112 0 164 31.5t52 110.5h94v-498h151v-61z" />
    <glyph glyph-name="two.alt" horiz-adv-x="1064" 
d="M60 311q0 199 136.5 335.5t335.5 136.5t335.5 -136.5t136.5 -335.5t-136.5 -335.5t-335.5 -136.5t-335.5 136.5t-136.5 335.5zM116 310q0 -173 121.5 -294.5t294.5 -121.5t294.5 121.5t121.5 294.5t-121.5 294.5t-294.5 121.5t-294.5 -121.5t-121.5 -294.5zM748 416
q0 -41 -18 -80.5t-42 -68t-63 -59.5t-66 -47.5t-66.5 -39.5t-50.5 -30h317v-61h-461v54q7 3 20 8.5t49.5 24.5t69.5 39t73.5 50.5t69.5 61t49 69.5t20 76q0 51 -32 83t-96 32q-62 0 -92.5 -32t-30.5 -82q0 -33 17 -62t34 -42l17 -12l-96 -28q-3 2 -7.5 6t-16.5 18.5
t-21 30.5t-16.5 41t-7.5 52q0 71 58.5 126.5t163.5 55.5q108 0 166.5 -51.5t58.5 -132.5z" />
    <glyph glyph-name="three.alt" horiz-adv-x="1064" 
d="M60 311q0 199 136.5 335.5t335.5 136.5t335.5 -136.5t136.5 -335.5t-136.5 -335.5t-335.5 -136.5t-335.5 136.5t-136.5 335.5zM116 310q0 -173 121.5 -294.5t294.5 -121.5t294.5 121.5t121.5 294.5t-121.5 294.5t-294.5 121.5t-294.5 -121.5t-121.5 -294.5zM516 287h-36
v62h36q64 0 102.5 24.5t38.5 67.5q0 39 -33 63.5t-87 24.5q-41 0 -70.5 -13.5t-42 -33t-19 -39t-6.5 -33.5v-13l-96 29q1 7 3.5 19t18 42t38.5 53t70 42t108 19q95 0 154.5 -42.5t59.5 -104.5q0 -34 -15.5 -59.5t-37.5 -37t-43.5 -18.5t-36.5 -7l-16 -1q5 0 11.5 -0.5
t23.5 -3t32.5 -7.5t34 -15.5t31.5 -25t22 -37.5t9 -52q0 -83 -68 -126t-170 -43q-71 0 -123.5 20t-77 48.5t-39.5 57t-17 48.5l-2 20l96 28v-16.5t7.5 -36.5t22.5 -45.5t49 -36t82 -16.5q66 0 103.5 25.5t37.5 73.5q0 96 -155 96z" />
    <glyph glyph-name="four.alt" horiz-adv-x="1064" 
d="M60 311q0 199 136.5 335.5t335.5 136.5t335.5 -136.5t136.5 -335.5t-136.5 -335.5t-335.5 -136.5t-335.5 136.5t-136.5 335.5zM116 310q0 -173 121.5 -294.5t294.5 -121.5t294.5 121.5t121.5 294.5t-121.5 294.5t-294.5 121.5t-294.5 -121.5t-121.5 -294.5zM229 166v90
l304 334h123v-362h113v-62h-113v-135h-93v135h-334zM563 522l-261 -294h261v294z" />
    <glyph glyph-name="five.alt" horiz-adv-x="1064" 
d="M60 311q0 199 136.5 335.5t335.5 136.5t335.5 -136.5t136.5 -335.5t-136.5 -335.5t-335.5 -136.5t-335.5 136.5t-136.5 335.5zM116 310q0 -173 121.5 -294.5t294.5 -121.5t294.5 121.5t121.5 294.5t-121.5 294.5t-294.5 121.5t-294.5 -121.5t-121.5 -294.5zM771 215
q0 -91 -65.5 -142.5t-175.5 -51.5q-70 0 -122 20t-76.5 48.5t-39 57t-16.5 48.5l-2 20l96 28v-16.5t7.5 -36.5t22 -45.5t48.5 -36t82 -16.5q65 0 103.5 34t38.5 89q0 54 -38.5 87.5t-103.5 33.5q-38 0 -67.5 -8.5t-40.5 -17.5l-10 -8h-96l52 288h377v-61h-297l-34 -194
q1 3 4.5 8t16 17.5t28 22t43.5 17.5t61 8q83 0 143.5 -54.5t60.5 -138.5z" />
    <glyph glyph-name="six.alt" horiz-adv-x="1064" 
d="M60 311q0 199 136.5 335.5t335.5 136.5t335.5 -136.5t136.5 -335.5t-136.5 -335.5t-335.5 -136.5t-335.5 136.5t-136.5 335.5zM116 310q0 -173 121.5 -294.5t294.5 -121.5t294.5 121.5t121.5 294.5t-121.5 294.5t-294.5 121.5t-294.5 -121.5t-121.5 -294.5zM765 206
q0 -81 -66 -133t-167 -52q-120 0 -188.5 80.5t-68.5 209.5t69.5 209.5t189.5 80.5q53 0 95.5 -16.5t65.5 -40t38.5 -47t20.5 -39.5l4 -17l-96 -29q0 5 -1.5 13t-10 28t-21 35.5t-37.5 28t-58 12.5q-77 0 -118.5 -60.5t-41.5 -157.5q0 -13 2 -37q15 57 67.5 87t125.5 30
q81 0 138.5 -47t57.5 -138zM532 320q-56 0 -95 -30t-50 -78q35 -120 145 -120q66 0 100 31.5t34 82.5t-34 82.5t-100 31.5z" />
    <glyph glyph-name="seven.alt" horiz-adv-x="1064" 
d="M60 311q0 199 136.5 335.5t335.5 136.5t335.5 -136.5t136.5 -335.5t-136.5 -335.5t-335.5 -136.5t-335.5 136.5t-136.5 335.5zM116 310q0 -173 121.5 -294.5t294.5 -121.5t294.5 121.5t121.5 294.5t-121.5 294.5t-294.5 121.5t-294.5 -121.5t-121.5 -294.5zM807 590v-82
q-5 0 -13.5 -1.5t-34.5 -12t-51.5 -28t-60.5 -54t-65 -84.5t-60.5 -125.5t-52.5 -171.5h-101q21 95 52 173.5t64.5 128.5t69 88.5t67 58t57 31.5t40.5 15l14 3h-457v61h532z" />
    <glyph glyph-name="eight.alt" horiz-adv-x="1064" 
d="M60 311q0 199 136.5 335.5t335.5 136.5t335.5 -136.5t136.5 -335.5t-136.5 -335.5t-335.5 -136.5t-335.5 136.5t-136.5 335.5zM116 310q0 -173 121.5 -294.5t294.5 -121.5t294.5 121.5t121.5 294.5t-121.5 294.5t-294.5 121.5t-294.5 -121.5t-121.5 -294.5zM769 444
q0 -30 -14 -54.5t-33.5 -38t-39.5 -22.5t-34 -12l-14 -3q3 0 8.5 -0.5t22 -3.5t31 -8t32.5 -15t31 -23t22 -33.5t9 -45.5q0 -81 -74 -122.5t-185 -41.5t-185 41.5t-74 122.5q0 32 15 58t36 40.5t42.5 24t36.5 12.5l15 3q-5 1 -13.5 3t-30 11t-37.5 21t-29.5 35t-13.5 51
q0 69 68.5 113t169.5 44t169.5 -44t68.5 -113zM392 444q0 -28 15 -47.5t39.5 -28t44.5 -11.5t40 -3q139 0 139 90q0 36 -35 60.5t-104 24.5t-104 -24.5t-35 -60.5zM692 185q0 32 -18.5 54.5t-48 31.5t-51.5 12.5t-43 3.5q-161 0 -161 -102q0 -48 44.5 -70.5t116.5 -22.5
q71 0 116 22.5t45 70.5z" />
    <glyph glyph-name="nine.alt" horiz-adv-x="1064" 
d="M60 311q0 199 136.5 335.5t335.5 136.5t335.5 -136.5t136.5 -335.5t-136.5 -335.5t-335.5 -136.5t-335.5 136.5t-136.5 335.5zM116 310q0 -173 121.5 -294.5t294.5 -121.5t294.5 121.5t121.5 294.5t-121.5 294.5t-294.5 121.5t-294.5 -121.5t-121.5 -294.5zM788 310
q0 -128 -69.5 -208.5t-189.5 -80.5q-53 0 -95.5 16.5t-65.5 40t-38.5 47t-19.5 39.5l-5 17l96 29q0 -5 1.5 -13t10 -28t21 -35.5t37.5 -28.5t58 -13q77 0 118.5 60.5t41.5 157.5q0 14 -2 38q-15 -52 -63 -85t-130 -33q-80 0 -138 47t-58 138q0 81 66 133.5t167 52.5
q120 0 188.5 -80.5t68.5 -210.5zM397 415q0 -51 34 -82t100 -31q57 0 95.5 30.5t49.5 77.5q-16 55 -53 87t-92 32q-66 0 -100 -31.5t-34 -82.5z" />
    <glyph glyph-name="alpha.ss01" horiz-adv-x="791" 
d="M537 452v103h120v-422q0 -26 12 -42t32 -16q22 0 38.5 12.5t22.5 24.5l5 13l24 -89q-4 -6 -12.5 -14t-39.5 -22t-68 -14q-52 0 -86 30.5t-34 98.5v16q-2 -8 -6 -18.5t-20.5 -35t-38 -43t-61 -33.5t-87.5 -15q-124 0 -201 81.5t-77 209.5t77 210t201 82q42 0 78 -12
t57 -29t36.5 -34.5t21.5 -29.5zM376 75q87 0 136.5 58t49.5 144t-49.5 144.5t-136.5 58.5t-137.5 -56t-50.5 -147t50.5 -146.5t137.5 -55.5z" />
    <glyph glyph-name="alphatonos.ss01" horiz-adv-x="791" 
d="M428 821h150l-199 -188h-67zM537 452v103h120v-422q0 -26 12 -42t32 -16q22 0 38.5 12.5t22.5 24.5l5 13l24 -89q-4 -6 -12.5 -14t-39.5 -22t-68 -14q-52 0 -86 30.5t-34 98.5v16q-2 -8 -6 -18.5t-20.5 -35t-38 -43t-61 -33.5t-87.5 -15q-124 0 -201 81.5t-77 209.5
t77 210t201 82q42 0 78 -12t57 -29t36.5 -34.5t21.5 -29.5zM376 75q87 0 136.5 58t49.5 144t-49.5 144.5t-136.5 58.5t-137.5 -56t-50.5 -147t50.5 -146.5t137.5 -55.5z" />
    <glyph glyph-name="Pi.ss01" horiz-adv-x="930" 
d="M710 0v692h-490v-692h-130v777h750v-777h-130z" />
    </font>
</defs>
</svg>
